{
.appVersion = "3517";
DisplayStrings = (
$,
"the/space quick/space brown/space fox",
"#"
);
classes = (
{
automatic = 1;
code = "A B C D E F G H I J K L M N O P Q R S T U V W X Y Z Agrave Aacute Acircumflex Atilde Adieresis Aring AE Ccedilla Egrave Eacute Ecircumflex Edieresis Igrave Iacute Icircumflex Idieresis Eth Ntilde Ograve Oacute Ocircumflex Otilde Odieresis Oslash Ugrave Uacute Ucircumflex Udieresis Yacute Thorn Amacron Abreve Aogonek Cacute Ccircumflex Cdotaccent Ccaron Dcaron Dcroat Emacron Edotaccent Eogonek Ecaron Gcircumflex Gbreve Gdotaccent Gcommaaccent Hcircumflex Hbar Imacron Iogonek Idotaccent IJ Jcircumflex Kcommaaccent Lacute Lcommaaccent Lcaron Lslash Nacute Ncommaaccent Ncaron Omacron Ohungarumlaut OE Racute Rcommaaccent Rcaron Sacute Scircumflex Scedilla Scaron Tcommaaccent Tcaron Umacron Ubreve Uring Uhungarumlaut Uogonek Ydieresis Zacute Zdotaccent Zcaron Scommaaccent Omega Delta Tcedilla Ebreve Ibreve Itilde Ldot Eng Obreve Tbar Utilde Wacute Wcircumflex Wdieresis Wgrave Ycircumflex Ygrave";
name = Uppercase;
}
);
copyright = "Copyright 2015 The Courier Prime Project Authors (https://github.com/quoteunquoteapps/CourierPrime).";
customParameters = (
{
name = fsType;
value = (
);
},
{
name = isFixedPitch;
value = 1;
},
{
name = "Enforce Compatibility Check";
value = 1;
},
{
name = glyphOrder;
value = (
.notdef,
.null,
CR,
space,
exclam,
quotedbl,
numbersign,
dollar,
percent,
ampersand,
quotesingle,
parenleft,
parenright,
asterisk,
plus,
comma,
hyphen,
period,
slash,
zero,
one,
two,
three,
four,
five,
six,
seven,
eight,
nine,
colon,
semicolon,
less,
equal,
greater,
question,
at,
A,
B,
C,
D,
E,
F,
G,
H,
I,
J,
K,
L,
M,
N,
O,
P,
Q,
R,
S,
T,
U,
V,
W,
X,
Y,
Z,
bracketleft,
backslash,
bracketright,
asciicircum,
underscore,
grave,
a,
b,
c,
d,
e,
f,
g,
h,
i,
j,
k,
l,
m,
n,
o,
p,
q,
r,
s,
t,
u,
v,
w,
x,
y,
z,
braceleft,
bar,
braceright,
asciitilde,
uni00A0,
exclamdown,
cent,
sterling,
currency,
yen,
brokenbar,
section,
dieresis,
copyright,

glyphs = (
{
glyphname = .notdef;
lastChange = "2026-02-27 13:18:40 +0000";
layers = (
{
background = {
paths = (
{
closed = 1;
nodes = (
"-1566 1606 LINE SMOOTH",
"-1619 1606 OFFCURVE",
"-1643 1585 OFFCURVE",
"-1654 1526 CURVE SMOOTH",
"-1978 -310 LINE SMOOTH",
"-1988 -369 OFFCURVE",
"-1971 -390 OFFCURVE",
"-1918 -390 CURVE SMOOTH",
"-1434 -390 LINE SMOOTH",
"-1381 -390 OFFCURVE",
"-1355 -366 OFFCURVE",
"-1345 -305 CURVE SMOOTH",
"-1334 -245 OFFCURVE",
"-1351 -221 OFFCURVE",
"-1403 -221 CURVE SMOOTH",
"-1786 -221 LINE",
"-1494 1437 LINE",
"-1112 1437 LINE SMOOTH",
"-1059 1437 OFFCURVE",
"-1033 1461 OFFCURVE",
"-1023 1521 CURVE SMOOTH",
"-1012 1582 OFFCURVE",
"-1029 1606 OFFCURVE",
"-1081 1606 CURVE SMOOTH"
);
},
{
closed = 1;
nodes = (
"-1090 1606 LINE SMOOTH",
"-1142 1606 OFFCURVE",
"-1168 1582 OFFCURVE",
"-1178 1521 CURVE SMOOTH",
"-1189 1461 OFFCURVE",
"-1173 1437 OFFCURVE",
"-1120 1437 CURVE SMOOTH",
"-737 1437 LINE",
"-1029 -221 LINE",
"-1411 -221 LINE SMOOTH",
"-1464 -221 OFFCURVE",
"-1490 -245 OFFCURVE",
"-1500 -305 CURVE SMOOTH",
"-1511 -366 OFFCURVE",
"-1494 -390 OFFCURVE",
"-1442 -390 CURVE SMOOTH",
"-957 -390 LINE SMOOTH",
"-905 -390 OFFCURVE",
"-880 -369 OFFCURVE",
"-870 -310 CURVE SMOOTH",
"-545 1526 LINE SMOOTH",
"-535 1585 OFFCURVE",
"-552 1606 OFFCURVE",
"-605 1606 CURVE SMOOTH"
);
},
{
closed = 1;
nodes = (
"-930 1244 OFFCURVE",
"-950 1237 OFFCURVE",
"-960 1221 CURVE SMOOTH",
"-1645 30 LINE SMOOTH",
"-1662 1 OFFCURVE",
"-1638 -27 OFFCURVE",
"-1593 -27 CURVE SMOOTH",
"-1566 -27 OFFCURVE",
"-1546 -21 OFFCURVE",
"-1537 -5 CURVE SMOOTH",
"-851 1187 LINE SMOOTH",
"-834 1215 OFFCURVE",
"-858 1244 OFFCURVE",
"-903 1244 CURVE SMOOTH"
);
},
{
closed = 1;
nodes = (
"-1411 1244 OFFCURVE",
"-1448 1225 OFFCURVE",
"-1441 1197 CURVE SMOOTH",
"-1166 -5 LINE SMOOTH",
"-1162 -20 OFFCURVE",
"-1145 -27 OFFCURVE",
"-1119 -27 CURVE SMOOTH",
"-1087 -27 OFFCURVE",
"-1050 -9 OFFCURVE",
"-1057 19 CURVE SMOOTH",
"-1332 1221 LINE SMOOTH",
"-1335 1236 OFFCURVE",
"-1354 1244 OFFCURVE",
"-1380 1244 CURVE SMOOTH"
);
},
{
closed = 1;
nodes = (
"-1169 234 OFFCURVE",
"-1145 259 OFFCURVE",
"-1145 289 CURVE SMOOTH",
"-1145 319 OFFCURVE",
"-1169 344 OFFCURVE",
"-1200 344 CURVE SMOOTH",
"-1231 344 OFFCURVE",
"-1256 319 OFFCURVE",
"-1256 289 CURVE SMOOTH",
"-1256 259 OFFCURVE",
"-1231 234 OFFCURVE",
"-1200 234 CURVE SMOOTH"
);
},
{
closed = 1;
nodes = (
"-1400 282 OFFCURVE",
"-1375 307 OFFCURVE",
"-1375 337 CURVE SMOOTH",
"-1375 367 OFFCURVE",
"-1400 392 OFFCURVE",
"-1430 392 CURVE SMOOTH",
"-1462 392 OFFCURVE",
"-1486 367 OFFCURVE",
"-1486 337 CURVE SMOOTH",
"-1486 307 OFFCURVE",
"-1462 282 OFFCURVE",
"-1430 282 CURVE SMOOTH"
);
},
{
closed = 1;
nodes = (
"-983 1162 OFFCURVE",
"-1001 1155 OFFCURVE",
"-1011 1139 CURVE SMOOTH",
"-1296 669 LINE",
"-1631 111 LINE SMOOTH",
"-1649 83 OFFCURVE",
"-1621 54 OFFCURVE",
"-1578 54 CURVE SMOOTH",
"-1551 54 OFFCURVE",
"-1533 60 OFFCURVE",
"-1523 76 CURVE SMOOTH",
"-902 1105 LINE SMOOTH",
"-887 1130 OFFCURVE",
"-913 1162 OFFCURVE",
"-956 1162 CURVE SMOOTH"
);
},
{
closed = 1;
nodes = (
"-1403 1162 OFFCURVE",
"-1441 1143 OFFCURVE",
"-1435 1115 CURVE SMOOTH",
"-1210 64 LINE SMOOTH",
"-1207 49 OFFCURVE",
"-1190 42 OFFCURVE",
"-1164 42 CURVE SMOOTH",
"-1133 42 OFFCURVE",
"-1094 60 OFFCURVE",
"-1100 88 CURVE SMOOTH",
"-1325 1139 LINE SMOOTH",
"-1328 1154 OFFCURVE",
"-1346 1162 OFFCURVE",
"-1372 1162 CURVE SMOOTH"
);
},
{
closed = 1;
nodes = (
"-983 1162 OFFCURVE",
"-1002 1155 OFFCURVE",
"-1011 1139 CURVE SMOOTH",
"-1297 667 LINE",
"-1631 111 LINE SMOOTH",
"-1649 83 OFFCURVE",
"-1621 54 OFFCURVE",
"-1578 54 CURVE SMOOTH",
"-1551 54 OFFCURVE",
"-1532 60 OFFCURVE",
"-1523 76 CURVE SMOOTH",
"-1246 570 LINE",
"-902 1105 LINE SMOOTH",
"-886 1130 OFFCURVE",
"-913 1162 OFFCURVE",
"-956 1162 CURVE SMOOTH"
);
},
{
closed = 1;
nodes = (
"-1403 1162 OFFCURVE",
"-1442 1143 OFFCURVE",
"-1435 1115 CURVE SMOOTH",
"-1311 578 LINE",
"-1210 64 LINE SMOOTH",
"-1207 49 OFFCURVE",
"-1190 42 OFFCURVE",
"-1164 42 CURVE SMOOTH",
"-1133 42 OFFCURVE",
"-1093 60 OFFCURVE",
"-1100 88 CURVE SMOOTH",
"-1232 655 LINE",
"-1325 1139 LINE SMOOTH",
"-1328 1154 OFFCURVE",
"-1346 1162 OFFCURVE",
"-1372 1162 CURVE SMOOTH"
);
},
{
closed = 1;
nodes = (
"-1987 -369 OFFCURVE",
"-1970 -390 OFFCURVE",
"-1917 -390 CURVE SMOOTH",
"-956 -390 LINE SMOOTH",
"-903 -390 OFFCURVE",
"-879 -369 OFFCURVE",
"-868 -310 CURVE SMOOTH",
"-544 1526 LINE SMOOTH",
"-534 1585 OFFCURVE",
"-551 1606 OFFCURVE",
"-604 1606 CURVE SMOOTH",
"-1565 1606 LINE SMOOTH",
"-1617 1606 OFFCURVE",
"-1642 1585 OFFCURVE",
"-1652 1526 CURVE SMOOTH",
"-1977 -310 LINE SMOOTH"
);
},
{
closed = 1;
nodes = (
"-1517 1478 LINE",
"-699 1478 LINE",
"-1004 -262 LINE",
"-1822 -262 LINE"
);
},
{
closed = 1;
nodes = (
"1037 1219 OFFCURVE",
"1016 1211 OFFCURVE",
"1005 1194 CURVE SMOOTH",
"690 674 LINE",
"322 61 LINE SMOOTH",
"303 30 OFFCURVE",
"334 -2 OFFCURVE",
"382 -2 CURVE SMOOTH",
"411 -2 OFFCURVE",
"432 4 OFFCURVE",
"442 22 CURVE SMOOTH",
"747 566 LINE",
"1126 1156 LINE SMOOTH",
"1143 1184 OFFCURVE",
"1114 1219 OFFCURVE",
"1066 1219 CURVE SMOOTH"
);
},
{
closed = 1;
nodes = (
"573 1219 OFFCURVE",
"531 1198 OFFCURVE",
"538 1168 CURVE SMOOTH",
"675 576 LINE",
"786 9 LINE SMOOTH",
"790 -7 OFFCURVE",
"809 -15 OFFCURVE",
"837 -15 CURVE SMOOTH",
"872 -15 OFFCURVE",
"915 4 OFFCURVE",
"908 35 CURVE SMOOTH",
"762 661 LINE",
"660 1194 LINE SMOOTH",
"657 1210 OFFCURVE",
"637 1219 OFFCURVE",
"609 1219 CURVE SMOOTH"
);
},
{
closed = 1;
nodes = (
"4 -369 OFFCURVE",
"21 -390 OFFCURVE",
"74 -390 CURVE SMOOTH",
"1035 -390 LINE SMOOTH",
"1087 -390 OFFCURVE",
"1112 -369 OFFCURVE",
"1122 -310 CURVE SMOOTH",
"1446 1526 LINE SMOOTH",
"1457 1585 OFFCURVE",
"1439 1606 OFFCURVE",
"1387 1606 CURVE SMOOTH",
"426 1606 LINE SMOOTH",
"373 1606 OFFCURVE",
"349 1585 OFFCURVE",
"338 1526 CURVE SMOOTH",
"14 -310 LINE SMOOTH"
);
},
{
closed = 1;
nodes = (
"466 1486 LINE",
"1304 1486 LINE",
"995 -270 LINE",
"157 -270 LINE"
);
}
);
};
layerId = "38D47A70-C265-4203-8B70-C23C50FC2DCC";
paths = (
{
closed = 1;
nodes = (
"379 1129 OFFCURVE",
"353 1108 OFFCURVE",
"360 1080 CURVE SMOOTH",
"489 577 LINE",
"595 98 LINE SMOOTH",
"597 83 OFFCURVE",
"610 76 OFFCURVE",
"630 76 CURVE SMOOTH",
"654 76 OFFCURVE",
"681 94 OFFCURVE",
"673 123 CURVE SMOOTH",
"541 651 LINE",
"440 1105 LINE SMOOTH",
"437 1120 OFFCURVE",
"424 1129 OFFCURVE",
"404 1129 CURVE SMOOTH"
);
},
{
closed = 1;
nodes = (
"9 -310 OFFCURVE",
"22 -331 OFFCURVE",
"59 -331 CURVE SMOOTH",
"731 -331 LINE SMOOTH",
"769 -331 OFFCURVE",
"785 -310 OFFCURVE",
"792 -252 CURVE SMOOTH",
"1006 1468 LINE SMOOTH",
"1012 1526 OFFCURVE",
"1001 1547 OFFCURVE",
"963 1547 CURVE SMOOTH",
"291 1547 LINE SMOOTH",
"254 1547 OFFCURVE",
"236 1526 OFFCURVE",
"231 1468 CURVE SMOOTH",
"16 -252 LINE SMOOTH"
);
},
{
closed = 1;
nodes = (
"311 1428 LINE",
"914 1428 LINE",
"712 -212 LINE",
"108 -212 LINE"
);
},
{
closed = 1;
nodes = (
"734 1129 OFFCURVE",
"719 1120 OFFCURVE",
"712 1105 CURVE SMOOTH",
"502 660 LINE",
"242 123 LINE SMOOTH",
"228 94 OFFCURVE",
"256 76 OFFCURVE",
"281 76 CURVE SMOOTH",
"301 76 OFFCURVE",
"316 83 OFFCURVE",
"323 98 CURVE SMOOTH",
"534 558 LINE",
"791 1080 LINE SMOOTH",
"805 1108 OFFCURVE",
"778 1129 OFFCURVE",
"754 1129 CURVE SMOOTH"
);
}
);
width = 1006;
},
{
background = {
paths = (
{
closed = 1;
nodes = (
"1037 1219 OFFCURVE",
"1016 1211 OFFCURVE",
"1005 1194 CURVE SMOOTH",
"690 674 LINE",
"322 61 LINE SMOOTH",
"303 30 OFFCURVE",
"334 -2 OFFCURVE",
"382 -2 CURVE SMOOTH",
"411 -2 OFFCURVE",
"432 4 OFFCURVE",
"442 22 CURVE SMOOTH",
"747 566 LINE",
"1126 1156 LINE SMOOTH",
"1143 1184 OFFCURVE",
"1114 1219 OFFCURVE",
"1066 1219 CURVE SMOOTH"
);
},
{
closed = 1;
nodes = (
"573 1219 OFFCURVE",
"531 1198 OFFCURVE",
"538 1168 CURVE SMOOTH",
"675 576 LINE",
"786 9 LINE SMOOTH",
"790 -7 OFFCURVE",
"809 -15 OFFCURVE",
"837 -15 CURVE SMOOTH",
"872 -15 OFFCURVE",
"915 4 OFFCURVE",
"908 35 CURVE SMOOTH",
"762 661 LINE",
"660 1194 LINE SMOOTH",
"657 1210 OFFCURVE",
"637 1219 OFFCURVE",
"609 1219 CURVE SMOOTH"
);
},
{
closed = 1;
nodes = (
"4 -369 OFFCURVE",
"21 -390 OFFCURVE",
"74 -390 CURVE SMOOTH",
"1035 -390 LINE SMOOTH",
"1087 -390 OFFCURVE",
"1112 -369 OFFCURVE",
"1122 -310 CURVE SMOOTH",
"1446 1526 LINE SMOOTH",
"1457 1585 OFFCURVE",
"1439 1606 OFFCURVE",
"1387 1606 CURVE SMOOTH",
"426 1606 LINE SMOOTH",
"373 1606 OFFCURVE",
"349 1585 OFFCURVE",
"338 1526 CURVE SMOOTH",
"14 -310 LINE SMOOTH"
);
},
{
closed = 1;
nodes = (
"466 1486 LINE",
"1304 1486 LINE",
"995 -270 LINE",
"157 -270 LINE"
);
}
);
};
layerId = UUID0;
paths = (
{
closed = 1;
nodes = (
"379 1129 OFFCURVE",
"353 1108 OFFCURVE",
"360 1080 CURVE SMOOTH",
"489 577 LINE",
"595 98 LINE SMOOTH",
"597 83 OFFCURVE",
"610 76 OFFCURVE",
"630 76 CURVE SMOOTH",
"654 76 OFFCURVE",
"681 94 OFFCURVE",
"673 123 CURVE SMOOTH",
"541 651 LINE",
"440 1105 LINE SMOOTH",
"437 1120 OFFCURVE",
"424 1129 OFFCURVE",
"404 1129 CURVE SMOOTH"
);
},
{
closed = 1;
nodes = (
"9 -310 OFFCURVE",
"22 -331 OFFCURVE",
"59 -331 CURVE SMOOTH",
"731 -331 LINE SMOOTH",
"769 -331 OFFCURVE",
"785 -310 OFFCURVE",
"792 -252 CURVE SMOOTH",
"1006 1468 LINE SMOOTH",
"1012 1526 OFFCURVE",
"1001 1547 OFFCURVE",
"963 1547 CURVE SMOOTH",
"291 1547 LINE SMOOTH",
"254 1547 OFFCURVE",
"236 1526 OFFCURVE",
"231 1468 CURVE SMOOTH",
"16 -252 LINE SMOOTH"
);
},
{
closed = 1;
nodes = (
"311 1428 LINE",
"914 1428 LINE",
"712 -212 LINE",
"108 -212 LINE"
);
},
{
closed = 1;
nodes = (
"734 1129 OFFCURVE",
"719 1120 OFFCURVE",
"712 1105 CURVE SMOOTH",
"502 660 LINE",
"242 123 LINE SMOOTH",
"228 94 OFFCURVE",
"256 76 OFFCURVE",
"281 76 CURVE SMOOTH",
"301 76 OFFCURVE",
"316 83 OFFCURVE",
"323 98 CURVE SMOOTH",
"534 558 LINE",
"791 1080 LINE SMOOTH",
"805 1108 OFFCURVE",
"778 1129 OFFCURVE",
"754 1129 CURVE SMOOTH"
);
}
);
width = 1006;
}
);
},
{
glyphname = exclam;
lastChange = "2026-02-27 13:18:40 +0000";
layers = (
{
layerId = UUID0;
paths = (
{
closed = 1;
nodes = (
"535 1485 LINE SMOOTH",
"510 1485 OFFCURVE",
"496 1468 OFFCURVE",
"494 1427 CURVE SMOOTH",
"446 658 LINE SMOOTH",
"444 613 OFFCURVE",
"468 590 OFFCURVE",
"518 590 CURVE SMOOTH",
"571 590 OFFCURVE",
"599 612 OFFCURVE",
"607 658 CURVE SMOOTH",
"750 1427 LINE SMOOTH",
"757 1468 OFFCURVE",
"748 1485 OFFCURVE",
"723 1485 CURVE SMOOTH"
);
},
{
closed = 1;
nodes = (
"407 386 OFFCURVE",
"372 365 OFFCURVE",
"365 312 CURVE SMOOTH",
"335 62 LINE SMOOTH",
"328 9 OFFCURVE",
"367 -12 OFFCURVE",
"458 -12 CURVE SMOOTH",
"547 -12 OFFCURVE",
"582 9 OFFCURVE",
"589 62 CURVE SMOOTH",
"619 312 LINE SMOOTH",
"626 365 OFFCURVE",
"586 386 OFFCURVE",
"496 386 CURVE SMOOTH"
);
}
);
width = 1006;
},
{
layerId = "38D47A70-C265-4203-8B70-C23C50FC2DCC";
paths = (
{
closed = 1;
nodes = (
"571 1485 LINE SMOOTH",
"547 1485 OFFCURVE",
"532 1468 OFFCURVE",
"530 1427 CURVE SMOOTH",
"467 599 LINE SMOOTH",
"465 563 OFFCURVE",
"480 543 OFFCURVE",
"508 543 CURVE SMOOTH",
"537 543 OFFCURVE",
"556 563 OFFCURVE",
"562 599 CURVE SMOOTH",
"703 1427 LINE SMOOTH",
"712 1468 OFFCURVE",
"702 1485 OFFCURVE",
"678 1485 CURVE SMOOTH"
);
},
{
closed = 1;
nodes = (
"411 316 OFFCURVE",
"384 295 OFFCURVE",
"378 242 CURVE SMOOTH",
"356 62 LINE SMOOTH",
"349 9 OFFCURVE",
"384 -12 OFFCURVE",
"455 -12 CURVE SMOOTH",
"528 -12 OFFCURVE",
"554 9 OFFCURVE",
"561 62 CURVE SMOOTH",
"583 242 LINE SMOOTH",
"589 295 OFFCURVE",
"556 316 OFFCURVE",
"483 316 CURVE SMOOTH"
);
}
);
width = 1006;
}
);
unicode = 0021;
},
{
color = (0,243,255,1);
glyphname = numbersign;
lastChange = "2026-02-27 13:18:40 +0000";
layers = (
{
layerId = UUID0;
paths = (
{
closed = 1;
nodes = (
"859 1415 OFFCURVE",
"833 1403 OFFCURVE",
"825 1376 CURVE SMOOTH",
"426 53 LINE SMOOTH",
"411 5 OFFCURVE",
"460 -26 OFFCURVE",
"517 -26 CURVE SMOOTH",
"550 -26 OFFCURVE",
"577 -14 OFFCURVE",
"585 13 CURVE SMOOTH",
"984 1336 LINE SMOOTH",
"998 1384 OFFCURVE",
"950 1415 OFFCURVE",
"893 1415 CURVE SMOOTH"
);
},
{
closed = 1;
nodes = (
"105 564 LINE SMOOTH",
"68 564 OFFCURVE",
"50 543 OFFCURVE",
"37 432 CURVE SMOOTH",
"23 321 OFFCURVE",
"35 301 OFFCURVE",
"73 301 CURVE SMOOTH",
"819 301 LINE SMOOTH",
"857 301 OFFCURVE",
"873 321 OFFCURVE",
"887 432 CURVE SMOOTH",
"901 543 OFFCURVE",
"889 564 OFFCURVE",
"852 564 CURVE SMOOTH"
);
},
{
closed = 1;
nodes = (
"513 1415 OFFCURVE",
"486 1403 OFFCURVE",
"477 1376 CURVE SMOOTH",
"78 53 LINE SMOOTH",
"64 5 OFFCURVE",
"112 -26 OFFCURVE",
"170 -26 CURVE SMOOTH",
"204 -26 OFFCURVE",
"229 -14 OFFCURVE",
"238 13 CURVE SMOOTH",
"637 1336 LINE SMOOTH",
"652 1384 OFFCURVE",
"603 1415 OFFCURVE",
"545 1415 CURVE SMOOTH"
);
},
{
closed = 1;
nodes = (
"245 1100 LINE SMOOTH",
"208 1100 OFFCURVE",
"191 1079 OFFCURVE",
"177 968 CURVE SMOOTH",
"163 857 OFFCURVE",
"176 837 OFFCURVE",
"212 837 CURVE SMOOTH",
"960 837 LINE SMOOTH",
"996 837 OFFCURVE",
"1013 857 OFFCURVE",
"1028 968 CURVE SMOOTH",
"1042 1079 OFFCURVE",
"1029 1100 OFFCURVE",
"992 1100 CURVE SMOOTH"
);
}
);
width = 1006;
},
{
layerId = "38D47A70-C265-4203-8B70-C23C50FC2DCC";
paths = (
{
closed = 1;
nodes = (
"865 1415 OFFCURVE",
"848 1403 OFFCURVE",
"840 1376 CURVE SMOOTH",
"442 53 LINE SMOOTH",
"427 4 OFFCURVE",
"461 -26 OFFCURVE",
"496 -26 CURVE SMOOTH",
"521 -26 OFFCURVE",
"537 -14 OFFCURVE",
"545 13 CURVE SMOOTH",
"943 1336 LINE SMOOTH",
"957 1386 OFFCURVE",
"925 1415 OFFCURVE",
"889 1415 CURVE SMOOTH"
);
},
{
closed = 1;
nodes = (
"112 557 LINE SMOOTH",
"75 557 OFFCURVE",
"57 534 OFFCURVE",
"50 473 CURVE SMOOTH",
"42 412 OFFCURVE",
"55 389 OFFCURVE",
"91 389 CURVE SMOOTH",
"839 389 LINE SMOOTH",
"875 389 OFFCURVE",
"893 412 OFFCURVE",
"900 473 CURVE SMOOTH",
"908 534 OFFCURVE",
"896 557 OFFCURVE",
"859 557 CURVE SMOOTH"
);
},
{
closed = 1;
nodes = (
"542 1415 OFFCURVE",
"525 1403 OFFCURVE",
"517 1376 CURVE SMOOTH",
"119 53 LINE SMOOTH",
"105 4 OFFCURVE",
"138 -26 OFFCURVE",
"173 -26 CURVE SMOOTH",
"198 -26 OFFCURVE",
"214 -14 OFFCURVE",
"222 13 CURVE SMOOTH",
"620 1336 LINE SMOOTH",
"635 1386 OFFCURVE",
"602 1415 OFFCURVE",
"566 1415 CURVE SMOOTH"
);
},
{
closed = 1;
nodes = (
"226 1012 LINE SMOOTH",
"190 1012 OFFCURVE",
"171 989 OFFCURVE",
"164 928 CURVE SMOOTH",
"157 867 OFFCURVE",
"169 844 OFFCURVE",
"205 844 CURVE SMOOTH",
"951 844 LINE SMOOTH",
"989 844 OFFCURVE",
"1006 867 OFFCURVE",
"1015 928 CURVE SMOOTH",
"1022 989 OFFCURVE",
"1010 1012 OFFCURVE",
"974 1012 CURVE SMOOTH"
);
}
);
width = 1006;
}
);
unicode = 0023;
},
{
color = (0,243,255,1);
glyphname = dollar;
lastChange = "2026-02-27 13:18:40 +0000";
layers = (
{
background = {
paths = (
{
closed = 1;
nodes = (
"812 1535 OFFCURVE",
"788 1514 OFFCURVE",
"778 1462 CURVE SMOOTH",
"744 1271 LINE",
"606 1269 OFFCURVE",
"483 1233 OFFCURVE",
"398 1163 CURVE SMOOTH",
"314 1094 OFFCURVE",
"273 991 OFFCURVE",
"273 889 CURVE SMOOTH",
"273 782 OFFCURVE",
"325 713 OFFCURVE",
"400 668 CURVE SMOOTH",
"465 630 OFFCURVE",
"545 609 OFFCURVE",
"625 592 CURVE",
"590 392 LINE",
"520 413 OFFCURVE",
"460 452 OFFCURVE",
"421 514 CURVE SMOOTH",
"408 535 OFFCURVE",
"382 547 OFFCURVE",
"330 547 CURVE SMOOTH",
"254 547 OFFCURVE",
"214 525 OFFCURVE",
"205 473 CURVE SMOOTH",
"159 212 LINE SMOOTH",
"150 159 OFFCURVE",
"185 138 OFFCURVE",
"284 138 CURVE SMOOTH",
"384 138 OFFCURVE",
"432 159 OFFCURVE",
"440 212 CURVE SMOOTH",
"442 227 LINE",
"475 205 OFFCURVE",
"510 185 OFFCURVE",
"550 170 CURVE",
"508 -73 LINE SMOOTH",
"499 -125 OFFCURVE",
"515 -146 OFFCURVE",
"603 -146 CURVE SMOOTH",
"690 -146 OFFCURVE",
"716 -125 OFFCURVE",
"726 -73 CURVE SMOOTH",
"763 138 LINE",
"933 144 OFFCURVE",
"1063 188 OFFCURVE",
"1148 270 CURVE SMOOTH",
"1223 344 OFFCURVE",
"1259 447 OFFCURVE",
"1259 544 CURVE SMOOTH",
"1259 651 OFFCURVE",
"1207 716 OFFCURVE",
"1132 760 CURVE SMOOTH",
"1061 799 OFFCURVE",
"973 819 OFFCURVE",
"885 833 CURVE",
"916 1013 LINE",
"983 994 OFFCURVE",
"1038 958 OFFCURVE",
"1083 901 CURVE SMOOTH",
"1095 884 OFFCURVE",
"1122 877 OFFCURVE",
"1163 877 CURVE SMOOTH",
"1239 877 OFFCURVE",
"1274 898 OFFCURVE",
"1284 950 CURVE SMOOTH",
"1327 1197 LINE SMOOTH",
"1336 1250 OFFCURVE",
"1301 1271 OFFCURVE",
"1202 1271 CURVE SMOOTH",
"1102 1271 OFFCURVE",
"1068 1250 OFFCURVE",
"1058 1197 CURVE SMOOTH",
"1054 1180 LINE",
"1024 1201 OFFCURVE",
"991 1219 OFFCURVE",
"955 1233 CURVE",
"996 1462 LINE SMOOTH",
"1005 1514 OFFCURVE",
"988 1535 OFFCURVE",
"900 1535 CURVE SMOOTH"
);
},
{
closed = 1;
nodes = (
"921 545 OFFCURVE",
"953 517 OFFCURVE",
"953 479 CURVE SMOOTH",
"953 461 OFFCURVE",
"943 432 OFFCURVE",
"915 411 CURVE SMOOTH",
"891 392 OFFCURVE",
"854 379 OFFCURVE",
"804 374 CURVE",
"836 558 LINE"
);
},
{
closed = 1;
nodes = (
"673 865 LINE",
"607 877 OFFCURVE",
"577 898 OFFCURVE",
"577 936 CURVE SMOOTH",
"577 958 OFFCURVE",
"589 982 OFFCURVE",
"612 1001 CURVE SMOOTH",
"633 1017 OFFCURVE",
"664 1030 OFFCURVE",
"702 1035 CURVE"
);
}
);
};
layerId = UUID0;
paths = (
{
closed = 1;
nodes = (
"569 1535 OFFCURVE",
"551 1514 OFFCURVE",
"545 1462 CURVE SMOOTH",
"521 1271 LINE",
"304 1265 OFFCURVE",
"191 1105 OFFCURVE",
"191 889 CURVE SMOOTH",
"191 782 OFFCURVE",
"228 713 OFFCURVE",
"280 668 CURVE SMOOTH",
"325 630 OFFCURVE",
"382 609 OFFCURVE",
"438 592 CURVE",
"413 392 LINE",
"364 413 OFFCURVE",
"322 452 OFFCURVE",
"295 514 CURVE SMOOTH",
"286 535 OFFCURVE",
"267 547 OFFCURVE",
"231 547 CURVE SMOOTH",
"178 547 OFFCURVE",
"150 525 OFFCURVE",
"144 473 CURVE SMOOTH",
"111 212 LINE SMOOTH",
"105 159 OFFCURVE",
"130 138 OFFCURVE",
"199 138 CURVE SMOOTH",
"269 138 OFFCURVE",
"302 159 OFFCURVE",
"308 212 CURVE SMOOTH",
"310 227 LINE",
"332 205 OFFCURVE",
"357 185 OFFCURVE",
"385 170 CURVE",
"356 -73 LINE SMOOTH",
"349 -125 OFFCURVE",
"360 -146 OFFCURVE",
"422 -146 CURVE SMOOTH",
"483 -146 OFFCURVE",
"501 -125 OFFCURVE",
"508 -73 CURVE SMOOTH",
"534 138 LINE",
"791 151 OFFCURVE",
"881 346 OFFCURVE",
"881 544 CURVE SMOOTH",
"881 651 OFFCURVE",
"845 716 OFFCURVE",
"792 760 CURVE SMOOTH",
"743 799 OFFCURVE",
"681 819 OFFCURVE",
"619 833 CURVE",
"641 1013 LINE",
"688 994 OFFCURVE",
"727 958 OFFCURVE",
"758 901 CURVE SMOOTH",
"767 884 OFFCURVE",
"785 877 OFFCURVE",
"815 877 CURVE SMOOTH",
"867 877 OFFCURVE",
"892 898 OFFCURVE",
"899 950 CURVE SMOOTH",
"929 1197 LINE SMOOTH",
"935 1250 OFFCURVE",
"910 1271 OFFCURVE",
"841 1271 CURVE SMOOTH",
"771 1271 OFFCURVE",
"748 1250 OFFCURVE",
"741 1197 CURVE SMOOTH",
"738 1180 LINE",
"717 1201 OFFCURVE",
"694 1219 OFFCURVE",
"668 1233 CURVE",
"697 1462 LINE SMOOTH",
"703 1514 OFFCURVE",
"692 1535 OFFCURVE",
"630 1535 CURVE SMOOTH"
);
},
{
closed = 1;
nodes = (
"645 545 OFFCURVE",
"667 517 OFFCURVE",
"667 479 CURVE SMOOTH",
"667 425 OFFCURVE",
"630 380 OFFCURVE",
"563 374 CURVE",
"585 558 LINE"
);
},
{
closed = 1;
nodes = (
"472 865 LINE",
"425 877 OFFCURVE",
"404 898 OFFCURVE",
"404 936 CURVE SMOOTH",
"404 991 OFFCURVE",
"446 1026 OFFCURVE",
"492 1035 CURVE"
);
}
);
width = 1006;
},
{
background = {
paths = (
{
closed = 1;
nodes = (
"843 1535 OFFCURVE",
"813 1513 OFFCURVE",
"804 1459 CURVE SMOOTH",
"770 1271 LINE",
"452 1271 OFFCURVE",
"297 1093 OFFCURVE",
"297 900 CURVE SMOOTH",
"297 783 OFFCURVE",
"374 722 OFFCURVE",
"480 687 CURVE SMOOTH",
"540 667 OFFCURVE",
"600 657 OFFCURVE",
"661 648 CURVE",
"603 317 LINE",
"470 341 OFFCURVE",
"396 406 OFFCURVE",
"371 523 CURVE SMOOTH",
"364 557 OFFCURVE",
"350 571 OFFCURVE",
"316 571 CURVE SMOOTH",
"250 571 OFFCURVE",
"224 549 OFFCURVE",
"214 495 CURVE SMOOTH",
"165 214 LINE SMOOTH",
"156 160 OFFCURVE",
"174 138 OFFCURVE",
"240 138 CURVE SMOOTH",
"305 138 OFFCURVE",
"331 160 OFFCURVE",
"341 214 CURVE SMOOTH",
"352 280 LINE",
"406 214 OFFCURVE",
"479 171 OFFCURVE",
"573 151 CURVE",
"535 -70 LINE SMOOTH",
"525 -124 OFFCURVE",
"545 -146 OFFCURVE",
"603 -146 CURVE SMOOTH",
"660 -146 OFFCURVE",
"689 -124 OFFCURVE",
"699 -70 CURVE SMOOTH",
"735 138 LINE",
"1128 145 OFFCURVE",
"1236 385 OFFCURVE",
"1236 538 CURVE SMOOTH",
"1236 661 OFFCURVE",
"1155 726 OFFCURVE",
"1047 761 CURVE SMOOTH",
"983 781 OFFCURVE",
"918 792 OFFCURVE",
"852 800 CURVE",
"902 1090 LINE",
"1006 1070 OFFCURVE",
"1079 1022 OFFCURVE",
"1112 927 CURVE SMOOTH",
"1119 907 OFFCURVE",
"1135 896 OFFCURVE",
"1163 896 CURVE SMOOTH",
"1229 896 OFFCURVE",
"1255 919 OFFCURVE",
"1264 973 CURVE SMOOTH",
"1304 1195 LINE SMOOTH",
"1313 1249 OFFCURVE",
"1294 1271 OFFCURVE",
"1229 1271 CURVE SMOOTH",
"1163 1271 OFFCURVE",
"1138 1249 OFFCURVE",
"1128 1195 CURVE SMOOTH",
"1119 1142 LINE",
"1073 1191 OFFCURVE",
"1009 1229 OFFCURVE",
"930 1251 CURVE",
"968 1459 LINE SMOOTH",
"977 1513 OFFCURVE",
"957 1535 OFFCURVE",
"900 1535 CURVE SMOOTH"
);
},
{
closed = 1;
nodes = (
"855 624 OFFCURVE",
"888 618 OFFCURVE",
"922 611 CURVE SMOOTH",
"997 593 OFFCURVE",
"1049 564 OFFCURVE",
"1049 507 CURVE SMOOTH",
"1049 435 OFFCURVE",
"988 318 OFFCURVE",
"765 308 CURVE",
"822 628 LINE"
);
},
{
closed = 1;
nodes = (
"692 820 LINE",
"665 824 OFFCURVE",
"638 829 OFFCURVE",
"612 834 CURVE SMOOTH",
"535 851 OFFCURVE",
"484 877 OFFCURVE",
"484 930 CURVE SMOOTH",
"484 1013 OFFCURVE",
"565 1097 OFFCURVE",
"741 1101 CURVE"
);
}
);
};
layerId = "38D47A70-C265-4203-8B70-C23C50FC2DCC";
paths = (
{
closed = 1;
nodes = (
"590 1535 OFFCURVE",
"570 1513 OFFCURVE",
"563 1459 CURVE SMOOTH",
"540 1271 LINE",
"316 1271 OFFCURVE",
"208 1094 OFFCURVE",
"208 913 CURVE SMOOTH",
"208 784 OFFCURVE",
"262 722 OFFCURVE",
"336 687 CURVE SMOOTH",
"378 667 OFFCURVE",
"420 657 OFFCURVE",
"463 648 CURVE",
"422 317 LINE",
"329 341 OFFCURVE",
"277 406 OFFCURVE",
"260 523 CURVE SMOOTH",
"255 557 OFFCURVE",
"245 571 OFFCURVE",
"221 571 CURVE SMOOTH",
"176 571 OFFCURVE",
"157 549 OFFCURVE",
"150 495 CURVE SMOOTH",
"116 214 LINE SMOOTH",
"109 160 OFFCURVE",
"122 138 OFFCURVE",
"169 138 CURVE SMOOTH",
"214 138 OFFCURVE",
"232 160 OFFCURVE",
"239 214 CURVE SMOOTH",
"247 280 LINE",
"284 214 OFFCURVE",
"335 171 OFFCURVE",
"401 151 CURVE",
"374 -70 LINE SMOOTH",
"367 -124 OFFCURVE",
"382 -146 OFFCURVE",
"422 -146 CURVE SMOOTH",
"462 -146 OFFCURVE",
"482 -124 OFFCURVE",
"489 -70 CURVE SMOOTH",
"515 138 LINE",
"791 145 OFFCURVE",
"865 371 OFFCURVE",
"865 515 CURVE SMOOTH",
"865 652 OFFCURVE",
"810 727 OFFCURVE",
"734 761 CURVE SMOOTH",
"688 781 OFFCURVE",
"642 792 OFFCURVE",
"597 800 CURVE",
"632 1090 LINE",
"705 1070 OFFCURVE",
"755 1022 OFFCURVE",
"778 927 CURVE SMOOTH",
"783 907 OFFCURVE",
"795 896 OFFCURVE",
"815 896 CURVE SMOOTH",
"860 896 OFFCURVE",
"878 919 OFFCURVE",
"885 973 CURVE SMOOTH",
"913 1195 LINE SMOOTH",
"919 1249 OFFCURVE",
"906 1271 OFFCURVE",
"860 1271 CURVE SMOOTH",
"815 1271 OFFCURVE",
"796 1249 OFFCURVE",
"790 1195 CURVE SMOOTH",
"783 1142 LINE",
"751 1191 OFFCURVE",
"706 1229 OFFCURVE",
"652 1251 CURVE",
"678 1459 LINE SMOOTH",
"685 1513 OFFCURVE",
"671 1535 OFFCURVE",
"630 1535 CURVE SMOOTH"
);
},
{
closed = 1;
nodes = (
"662 613 OFFCURVE",
"734 595 OFFCURVE",
"734 495 CURVE SMOOTH",
"734 428 OFFCURVE",
"692 317 OFFCURVE",
"536 309 CURVE",
"575 628 LINE"
);
},
{
closed = 1;
nodes = (
"484 820 LINE",
"399 837 OFFCURVE",
"339 854 OFFCURVE",
"339 930 CURVE SMOOTH",
"339 1013 OFFCURVE",
"396 1097 OFFCURVE",
"518 1101 CURVE"
);
}
);
width = 1006;
}
);
unicode = 0024;
},
{
glyphname = percent;
lastChange = "2026-02-27 13:18:40 +0000";
layers = (
{
layerId = UUID0;
paths = (
{
closed = 1;
nodes = (
"67 291 LINE SMOOTH",
"35 255 OFFCURVE",
"32 226 OFFCURVE",
"68 157 CURVE SMOOTH",
"105 88 OFFCURVE",
"125 88 OFFCURVE",
"157 124 CURVE SMOOTH",
"996 1100 LINE SMOOTH",
"1026 1136 OFFCURVE",
"1031 1166 OFFCURVE",
"994 1233 CURVE SMOOTH",
"957 1301 OFFCURVE",
"936 1304 OFFCURVE",
"906 1267 CURVE SMOOTH"
);
},
{
closed = 1;
nodes = (
"187 1415 OFFCURVE",
"90 1258 OFFCURVE",
"90 1063 CURVE SMOOTH",
"90 894 OFFCURVE",
"171 774 OFFCURVE",
"296 774 CURVE SMOOTH",
"447 774 OFFCURVE",
"544 930 OFFCURVE",
"544 1126 CURVE SMOOTH",
"544 1294 OFFCURVE",
"463 1415 OFFCURVE",
"337 1415 CURVE SMOOTH"
);
},
{
closed = 1;
nodes = (
"369 1205 OFFCURVE",
"394 1167 OFFCURVE",
"394 1111 CURVE SMOOTH",
"394 1037 OFFCURVE",
"358 983 OFFCURVE",
"308 983 CURVE SMOOTH",
"266 983 OFFCURVE",
"239 1022 OFFCURVE",
"239 1078 CURVE SMOOTH",
"239 1152 OFFCURVE",
"276 1205 OFFCURVE",
"327 1205 CURVE SMOOTH"
);
},
{
closed = 1;
nodes = (
"614 616 OFFCURVE",
"517 459 OFFCURVE",
"517 263 CURVE SMOOTH",
"517 95 OFFCURVE",
"598 -26 OFFCURVE",
"723 -26 CURVE SMOOTH",
"873 -26 OFFCURVE",
"971 131 OFFCURVE",
"971 327 CURVE SMOOTH",
"971 495 OFFCURVE",
"889 616 OFFCURVE",
"764 616 CURVE SMOOTH"
);
},
{
closed = 1;
nodes = (
"796 406 OFFCURVE",
"822 367 OFFCURVE",
"822 311 CURVE SMOOTH",
"822 238 OFFCURVE",
"785 184 OFFCURVE",
"735 184 CURVE SMOOTH",
"693 184 OFFCURVE",
"666 222 OFFCURVE",
"666 279 CURVE SMOOTH",
"666 352 OFFCURVE",
"703 406 OFFCURVE",
"752 406 CURVE SMOOTH"
);
}
);
width = 1006;
},
{
layerId = "38D47A70-C265-4203-8B70-C23C50FC2DCC";
paths = (
{
closed = 1;
nodes = (
"81 268 LINE SMOOTH",
"49 232 OFFCURVE",
"47 195 OFFCURVE",
"68 157 CURVE SMOOTH",
"89 118 OFFCURVE",
"114 115 OFFCURVE",
"145 151 CURVE SMOOTH",
"982 1122 LINE SMOOTH",
"1012 1159 OFFCURVE",
"1015 1195 OFFCURVE",
"994 1233 CURVE SMOOTH",
"973 1272 OFFCURVE",
"949 1276 OFFCURVE",
"916 1239 CURVE SMOOTH"
);
},
{
closed = 1;
nodes = (
"202 1415 OFFCURVE",
"99 1246 OFFCURVE",
"99 1053 CURVE SMOOTH",
"99 888 OFFCURVE",
"187 774 OFFCURVE",
"300 774 CURVE SMOOTH",
"449 774 OFFCURVE",
"552 942 OFFCURVE",
"552 1135 CURVE SMOOTH",
"552 1300 OFFCURVE",
"465 1415 OFFCURVE",
"353 1415 CURVE SMOOTH"
);
},
{
closed = 1;
nodes = (
"406 1263 OFFCURVE",
"444 1204 OFFCURVE",
"444 1125 CURVE SMOOTH",
"444 1023 OFFCURVE",
"387 926 OFFCURVE",
"309 926 CURVE SMOOTH",
"246 926 OFFCURVE",
"208 984 OFFCURVE",
"208 1064 CURVE SMOOTH",
"208 1166 OFFCURVE",
"264 1263 OFFCURVE",
"343 1263 CURVE SMOOTH"
);
},
{
closed = 1;
nodes = (
"612 616 OFFCURVE",
"509 447 OFFCURVE",
"509 254 CURVE SMOOTH",
"509 89 OFFCURVE",
"597 -26 OFFCURVE",
"709 -26 CURVE SMOOTH",
"859 -26 OFFCURVE",
"962 143 OFFCURVE",
"962 336 CURVE SMOOTH",
"962 501 OFFCURVE",
"874 616 OFFCURVE",
"763 616 CURVE SMOOTH"
);
},
{
closed = 1;
nodes = (
"816 463 OFFCURVE",
"853 405 OFFCURVE",
"853 325 CURVE SMOOTH",
"853 224 OFFCURVE",
"797 126 OFFCURVE",
"719 126 CURVE SMOOTH",
"655 126 OFFCURVE",
"618 185 OFFCURVE",
"618 264 CURVE SMOOTH",
"618 366 OFFCURVE",
"674 463 OFFCURVE",
"752 463 CURVE SMOOTH"
);
}
);
width = 1006;
}
);
unicode = 0025;
},
{
color = (0,243,255,1);
glyphname = ampersand;
lastChange = "2026-02-27 13:18:40 +0000";
layers = (
{
layerId = UUID0;
paths = (
{
closed = 1;
nodes = (
"344 1415 OFFCURVE",
"231 1171 OFFCURVE",
"231 958 CURVE SMOOTH",
"231 882 OFFCURVE",
"246 810 OFFCURVE",
"269 743 CURVE",
"145 639 OFFCURVE",
"74 499 OFFCURVE",
"74 315 CURVE SMOOTH",
"74 118 OFFCURVE",
"174 -26 OFFCURVE",
"329 -26 CURVE SMOOTH",
"432 -26 OFFCURVE",
"521 20 OFFCURVE",
"603 115 CURVE",
"644 39 LINE SMOOTH",
"659 12 OFFCURVE",
"676 0 OFFCURVE",
"699 0 CURVE SMOOTH",
"831 0 LINE SMOOTH",
"867 0 OFFCURVE",
"884 20 OFFCURVE",
"896 119 CURVE SMOOTH",
"908 219 OFFCURVE",
"898 240 OFFCURVE",
"860 240 CURVE SMOOTH",
"789 240 LINE",
"736 335 LINE",
"762 389 OFFCURVE",
"786 448 OFFCURVE",
"811 515 CURVE",
"878 515 LINE SMOOTH",
"914 515 OFFCURVE",
"932 536 OFFCURVE",
"943 635 CURVE SMOOTH",
"956 735 OFFCURVE",
"943 755 OFFCURVE",
"907 755 CURVE SMOOTH",
"727 755 LINE SMOOTH",
"702 755 OFFCURVE",
"688 735 OFFCURVE",
"679 706 CURVE SMOOTH",
"658 650 OFFCURVE",
"638 598 OFFCURVE",
"619 550 CURVE",
"493 779 LINE SMOOTH",
"458 843 OFFCURVE",
"438 903 OFFCURVE",
"438 968 CURVE SMOOTH",
"438 1077 OFFCURVE",
"489 1161 OFFCURVE",
"562 1161 CURVE SMOOTH",
"603 1161 OFFCURVE",
"641 1148 OFFCURVE",
"675 1125 CURVE",
"660 999 LINE SMOOTH",
"653 947 OFFCURVE",
"669 926 OFFCURVE",
"738 926 CURVE SMOOTH",
"809 926 OFFCURVE",
"841 947 OFFCURVE",
"848 999 CURVE SMOOTH",
"875 1224 LINE SMOOTH",
"880 1257 OFFCURVE",
"870 1278 OFFCURVE",
"848 1298 CURVE SMOOTH",
"763 1377 OFFCURVE",
"671 1415 OFFCURVE",
"586 1415 CURVE SMOOTH"
);
},
{
closed = 1;
nodes = (
"492 317 LINE",
"451 267 OFFCURVE",
"408 240 OFFCURVE",
"362 240 CURVE SMOOTH",
"310 240 OFFCURVE",
"279 283 OFFCURVE",
"279 352 CURVE SMOOTH",
"279 432 OFFCURVE",
"308 497 OFFCURVE",
"362 555 CURVE"
);
}
);
width = 1006;
},
{
layerId = "38D47A70-C265-4203-8B70-C23C50FC2DCC";
paths = (
{
closed = 1;
nodes = (
"380 1415 OFFCURVE",
"267 1194 OFFCURVE",
"267 987 CURVE SMOOTH",
"267 896 OFFCURVE",
"289 817 OFFCURVE",
"318 752 CURVE",
"195 647 OFFCURVE",
"105 504 OFFCURVE",
"105 302 CURVE SMOOTH",
"105 123 OFFCURVE",
"190 -26 OFFCURVE",
"345 -26 CURVE SMOOTH",
"445 -26 OFFCURVE",
"537 41 OFFCURVE",
"617 152 CURVE",
"674 39 LINE SMOOTH",
"688 12 OFFCURVE",
"710 0 OFFCURVE",
"734 0 CURVE SMOOTH",
"819 0 LINE SMOOTH",
"857 0 OFFCURVE",
"873 21 OFFCURVE",
"880 80 CURVE SMOOTH",
"887 138 OFFCURVE",
"875 159 OFFCURVE",
"838 159 CURVE SMOOTH",
"769 159 LINE",
"701 294 LINE",
"741 371 OFFCURVE",
"776 459 OFFCURVE",
"807 556 CURVE",
"875 556 LINE SMOOTH",
"913 556 OFFCURVE",
"930 577 OFFCURVE",
"937 635 CURVE SMOOTH",
"944 694 OFFCURVE",
"933 715 OFFCURVE",
"895 715 CURVE SMOOTH",
"763 715 LINE SMOOTH",
"738 715 OFFCURVE",
"724 694 OFFCURVE",
"715 666 CURVE SMOOTH",
"688 583 OFFCURVE",
"660 506 OFFCURVE",
"630 438 CURVE",
"439 822 LINE SMOOTH",
"411 878 OFFCURVE",
"394 932 OFFCURVE",
"394 995 CURVE SMOOTH",
"394 1140 OFFCURVE",
"473 1242 OFFCURVE",
"569 1242 CURVE SMOOTH",
"631 1242 OFFCURVE",
"679 1221 OFFCURVE",
"713 1187 CURVE",
"700 1081 LINE SMOOTH",
"693 1028 OFFCURVE",
"706 1005 OFFCURVE",
"752 1005 CURVE SMOOTH",
"798 1005 OFFCURVE",
"816 1028 OFFCURVE",
"823 1081 CURVE SMOOTH",
"841 1230 LINE",
"845 1260 OFFCURVE",
"843 1280 OFFCURVE",
"832 1293 CURVE SMOOTH",
"770 1365 OFFCURVE",
"687 1415 OFFCURVE",
"583 1415 CURVE SMOOTH"
);
},
{
closed = 1;
nodes = (
"550 287 LINE",
"493 199 OFFCURVE",
"429 147 OFFCURVE",
"359 147 CURVE SMOOTH",
"281 147 OFFCURVE",
"234 219 OFFCURVE",
"234 321 CURVE SMOOTH",
"234 462 OFFCURVE",
"303 556 OFFCURVE",
"382 624 CURVE"
);
}
);
width = 1006;
}
);
unicode = 0026;
},
{
color = 3;
glyphname = quotesingle;
lastChange = "2026-02-27 13:18:40 +0000";
layers = (
{
layerId = UUID0;
paths = (
{
closed = 1;
nodes = (
"534 1485 LINE SMOOTH",
"509 1485 OFFCURVE",
"494 1468 OFFCURVE",
"493 1427 CURVE SMOOTH",
"468 865 LINE SMOOTH",
"466 817 OFFCURVE",
"482 785 OFFCURVE",
"542 785 CURVE SMOOTH",
"600 785 OFFCURVE",
"627 816 OFFCURVE",
"637 865 CURVE SMOOTH",
"751 1427 LINE SMOOTH",
"760 1468 OFFCURVE",
"750 1485 OFFCURVE",
"726 1485 CURVE SMOOTH"
);
}
);
width = 1006;
},
{
layerId = "38D47A70-C265-4203-8B70-C23C50FC2DCC";
paths = (
{
closed = 1;
nodes = (
"562 1485 LINE SMOOTH",
"537 1485 OFFCURVE",
"523 1468 OFFCURVE",
"521 1427 CURVE SMOOTH",
"501 900 LINE SMOOTH",
"500 860 OFFCURVE",
"517 837 OFFCURVE",
"549 837 CURVE SMOOTH",
"582 837 OFFCURVE",
"605 860 OFFCURVE",
"613 900 CURVE SMOOTH",
"722 1427 LINE SMOOTH",
"730 1468 OFFCURVE",
"721 1485 OFFCURVE",
"696 1485 CURVE SMOOTH"
);
}
);
width = 1006;
}
);
unicode = 0027;
},
{
glyphname = parenleft;
lastChange = "2026-02-27 13:18:40 +0000";
layers = (
{
layerId = UUID0;
paths = (
{
closed = 1;
nodes = (
"410 1343 OFFCURVE",
"218 905 OFFCURVE",
"218 422 CURVE SMOOTH",
"218 28 OFFCURVE",
"365 -250 OFFCURVE",
"525 -394 CURVE SMOOTH",
"556 -421 OFFCURVE",
"597 -382 OFFCURVE",
"626 -328 CURVE SMOOTH",
"657 -273 OFFCURVE",
"673 -202 OFFCURVE",
"651 -179 CURVE SMOOTH",
"496 -23 OFFCURVE",
"419 173 OFFCURVE",
"419 428 CURVE SMOOTH",
"419 854 OFFCURVE",
"586 1141 OFFCURVE",
"866 1359 CURVE SMOOTH",
"894 1381 OFFCURVE",
"889 1459 OFFCURVE",
"867 1524 CURVE SMOOTH",
"846 1586 OFFCURVE",
"810 1636 OFFCURVE",
"772 1609 CURVE SMOOTH"
);
}
);
width = 1006;
},
{
layerId = "38D47A70-C265-4203-8B70-C23C50FC2DCC";
paths = (
{
closed = 1;
nodes = (
"465 1396 OFFCURVE",
"249 922 OFFCURVE",
"249 424 CURVE SMOOTH",
"249 32 OFFCURVE",
"386 -259 OFFCURVE",
"525 -394 CURVE SMOOTH",
"545 -414 OFFCURVE",
"570 -397 OFFCURVE",
"589 -369 CURVE SMOOTH",
"609 -337 OFFCURVE",
"619 -291 OFFCURVE",
"604 -275 CURVE SMOOTH",
"482 -145 OFFCURVE",
"370 89 OFFCURVE",
"370 424 CURVE SMOOTH",
"370 870 OFFCURVE",
"542 1249 OFFCURVE",
"820 1455 CURVE SMOOTH",
"840 1470 OFFCURVE",
"840 1520 OFFCURVE",
"829 1561 CURVE SMOOTH",
"818 1599 OFFCURVE",
"796 1627 OFFCURVE",
"770 1609 CURVE SMOOTH"
);
}
);
width = 1006;
}
);
unicode = 0028;
},
{
glyphname = parenright;
lastChange = "2026-02-27 13:18:40 +0000";
layers = (
{
layerId = UUID0;
paths = (
{
closed = 1;
nodes = (
"484 1636 OFFCURVE",
"444 1596 OFFCURVE",
"414 1542 CURVE SMOOTH",
"384 1487 OFFCURVE",
"367 1417 OFFCURVE",
"390 1394 CURVE SMOOTH",
"544 1238 OFFCURVE",
"621 1042 OFFCURVE",
"621 786 CURVE SMOOTH",
"621 360 OFFCURVE",
"455 74 OFFCURVE",
"174 -144 CURVE SMOOTH",
"146 -166 OFFCURVE",
"151 -245 OFFCURVE",
"173 -309 CURVE SMOOTH",
"194 -371 OFFCURVE",
"231 -421 OFFCURVE",
"268 -394 CURVE",
"631 -129 OFFCURVE",
"823 310 OFFCURVE",
"823 792 CURVE SMOOTH",
"823 1187 OFFCURVE",
"675 1465 OFFCURVE",
"515 1609 CURVE SMOOTH"
);
}
);
width = 1006;
},
{
layerId = "38D47A70-C265-4203-8B70-C23C50FC2DCC";
paths = (
{
closed = 1;
nodes = (
"495 1628 OFFCURVE",
"470 1610 OFFCURVE",
"452 1582 CURVE SMOOTH",
"432 1551 OFFCURVE",
"421 1505 OFFCURVE",
"437 1489 CURVE SMOOTH",
"558 1359 OFFCURVE",
"671 1125 OFFCURVE",
"671 790 CURVE",
"671 344 OFFCURVE",
"499 -35 OFFCURVE",
"220 -241 CURVE SMOOTH",
"200 -256 OFFCURVE",
"200 -307 OFFCURVE",
"212 -348 CURVE SMOOTH",
"222 -385 OFFCURVE",
"245 -413 OFFCURVE",
"270 -396 CURVE SMOOTH",
"576 -183 OFFCURVE",
"791 291 OFFCURVE",
"791 790 CURVE SMOOTH",
"791 1182 OFFCURVE",
"654 1472 OFFCURVE",
"515 1608 CURVE SMOOTH"
);
}
);
width = 1006;
}
);
unicode = 0029;
},
{
color = (0,243,255,1);
glyphname = asterisk;
lastChange = "2026-02-27 13:18:40 +0000";
layers = (
{
layerId = UUID0;
paths = (
{
closed = 1;
nodes = (
"537 1415 OFFCURVE",
"501 1345 OFFCURVE",
"504 1258 CURVE SMOOTH",
"514 1018 LINE",
"383 1145 LINE SMOOTH",
"335 1190 OFFCURVE",
"262 1169 OFFCURVE",
"234 1066 CURVE SMOOTH",
"206 960 OFFCURVE",
"239 894 OFFCURVE",
"300 886 CURVE SMOOTH",
"458 865 LINE",
"315 710 LINE SMOOTH",
"261 652 OFFCURVE",
"248 561 OFFCURVE",
"302 497 CURVE SMOOTH",
"357 433 OFFCURVE",
"419 461 OFFCURVE",
"454 545 CURVE SMOOTH",
"545 770 LINE",
"592 538 LINE SMOOTH",
"609 458 OFFCURVE",
"658 427 OFFCURVE",
"727 479 CURVE SMOOTH",
"799 532 OFFCURVE",
"796 628 OFFCURVE",
"757 687 CURVE SMOOTH",
"642 853 LINE",
"816 875 LINE SMOOTH",
"884 884 OFFCURVE",
"930 950 OFFCURVE",
"914 1052 CURVE SMOOTH",
"896 1153 OFFCURVE",
"841 1174 OFFCURVE",
"783 1128 CURVE SMOOTH",
"625 1005 LINE",
"693 1243 LINE SMOOTH",
"717 1329 OFFCURVE",
"687 1415 OFFCURVE",
"612 1415 CURVE SMOOTH"
);
}
);
width = 1006;
},
{
layerId = "38D47A70-C265-4203-8B70-C23C50FC2DCC";
paths = (
{
closed = 1;
nodes = (
"566 1415 OFFCURVE",
"536 1374 OFFCURVE",
"534 1310 CURVE SMOOTH",
"525 985 LINE",
"330 1128 LINE SMOOTH",
"293 1155 OFFCURVE",
"260 1140 OFFCURVE",
"236 1068 CURVE SMOOTH",
"214 998 OFFCURVE",
"228 954 OFFCURVE",
"270 941 CURVE SMOOTH",
"486 878 LINE",
"295 640 LINE SMOOTH",
"259 595 OFFCURVE",
"260 534 OFFCURVE",
"296 490 CURVE SMOOTH",
"332 448 OFFCURVE",
"376 460 OFFCURVE",
"403 516 CURVE SMOOTH",
"547 799 LINE",
"624 522 LINE SMOOTH",
"640 467 OFFCURVE",
"672 440 OFFCURVE",
"720 481 CURVE SMOOTH",
"767 521 OFFCURVE",
"769 569 OFFCURVE",
"744 617 CURVE SMOOTH",
"618 865 LINE",
"850 921 LINE SMOOTH",
"895 933 OFFCURVE",
"919 981 OFFCURVE",
"912 1050 CURVE SMOOTH",
"906 1119 OFFCURVE",
"867 1146 OFFCURVE",
"823 1118 CURVE SMOOTH",
"607 980 LINE",
"678 1310 LINE SMOOTH",
"690 1374 OFFCURVE",
"668 1415 OFFCURVE",
"618 1415 CURVE SMOOTH"
);
}
);
width = 1006;
}
);
unicode = 002A;
},
{
color = (0,243,255,1);
glyphname = plus;
lastChange = "2026-02-27 13:18:40 +0000";
layers = (
{
layerId = UUID0;
paths = (
{
closed = 1;
nodes = (
"515 1201 OFFCURVE",
"499 1180 OFFCURVE",
"492 1127 CURVE SMOOTH",
"453 813 LINE",
"234 813 LINE SMOOTH",
"197 813 OFFCURVE",
"179 792 OFFCURVE",
"165 681 CURVE SMOOTH",
"152 570 OFFCURVE",
"164 550 OFFCURVE",
"201 550 CURVE SMOOTH",
"420 550 LINE",
"382 235 LINE SMOOTH",
"376 183 OFFCURVE",
"387 161 OFFCURVE",
"466 161 CURVE SMOOTH",
"543 161 OFFCURVE",
"559 183 OFFCURVE",
"566 235 CURVE SMOOTH",
"605 550 LINE",
"825 550 LINE SMOOTH",
"861 550 OFFCURVE",
"879 570 OFFCURVE",
"893 681 CURVE SMOOTH",
"907 792 OFFCURVE",
"894 813 OFFCURVE",
"858 813 CURVE SMOOTH",
"638 813 LINE",
"676 1127 LINE SMOOTH",
"682 1180 OFFCURVE",
"671 1201 OFFCURVE",
"593 1201 CURVE SMOOTH"
);
}
);
width = 1006;
},
{
layerId = "38D47A70-C265-4203-8B70-C23C50FC2DCC";
paths = (
{
closed = 1;
nodes = (
"552 1201 OFFCURVE",
"535 1180 OFFCURVE",
"529 1127 CURVE SMOOTH",
"483 761 LINE",
"227 761 LINE SMOOTH",
"190 761 OFFCURVE",
"173 740 OFFCURVE",
"165 681 CURVE SMOOTH",
"158 623 OFFCURVE",
"171 602 OFFCURVE",
"207 602 CURVE SMOOTH",
"463 602 LINE",
"419 235 LINE SMOOTH",
"412 183 OFFCURVE",
"425 161 OFFCURVE",
"466 161 CURVE SMOOTH",
"507 161 OFFCURVE",
"523 183 OFFCURVE",
"530 235 CURVE SMOOTH",
"575 602 LINE",
"832 602 LINE SMOOTH",
"868 602 OFFCURVE",
"886 623 OFFCURVE",
"893 681 CURVE SMOOTH",
"900 740 OFFCURVE",
"888 761 OFFCURVE",
"851 761 CURVE SMOOTH",
"595 761 LINE",
"640 1127 LINE SMOOTH",
"646 1180 OFFCURVE",
"634 1201 OFFCURVE",
"593 1201 CURVE SMOOTH"
);
}
);
width = 1006;
}
);
unicode = 002B;
},
{
glyphname = comma;
lastChange = "2026-02-27 13:18:40 +0000";
layers = (
{
layerId = UUID0;
paths = (
{
closed = 1;
nodes = (
"408 414 LINE SMOOTH",
"385 414 OFFCURVE",
"367 398 OFFCURVE",
"359 367 CURVE SMOOTH",
"206 -267 LINE SMOOTH",
"194 -317 OFFCURVE",
"221 -344 OFFCURVE",
"267 -344 CURVE SMOOTH",
"312 -344 OFFCURVE",
"345 -327 OFFCURVE",
"362 -288 CURVE SMOOTH",
"627 341 LINE SMOOTH",
"646 383 OFFCURVE",
"635 414 OFFCURVE",
"609 414 CURVE SMOOTH"
);
}
);
width = 1006;
},
{
layerId = "38D47A70-C265-4203-8B70-C23C50FC2DCC";
paths = (
{
closed = 1;
nodes = (
"411 344 LINE SMOOTH",
"389 344 OFFCURVE",
"370 328 OFFCURVE",
"363 297 CURVE SMOOTH",
"221 -267 LINE SMOOTH",
"209 -316 OFFCURVE",
"222 -344 OFFCURVE",
"269 -344 CURVE SMOOTH",
"308 -344 OFFCURVE",
"335 -329 OFFCURVE",
"349 -296 CURVE SMOOTH",
"587 270 LINE SMOOTH",
"605 311 OFFCURVE",
"596 344 OFFCURVE",
"569 344 CURVE SMOOTH"
);
}
);
width = 1006;
}
);
unicode = 002C;
},
{
glyphname = hyphen;
lastChange = "2026-02-27 13:18:40 +0000";
layers = (
{
layerId = UUID0;
paths = (
{
closed = 1;
nodes = (
"234 813 LINE SMOOTH",
"197 813 OFFCURVE",
"179 792 OFFCURVE",
"165 681 CURVE SMOOTH",
"152 570 OFFCURVE",
"164 550 OFFCURVE",
"201 550 CURVE SMOOTH",
"825 550 LINE SMOOTH",
"861 550 OFFCURVE",
"879 570 OFFCURVE",
"893 681 CURVE SMOOTH",
"907 792 OFFCURVE",
"894 813 OFFCURVE",
"858 813 CURVE SMOOTH"
);
}
);
width = 1006;
},
{
layerId = "38D47A70-C265-4203-8B70-C23C50FC2DCC";
paths = (
{
closed = 1;
nodes = (
"227 761 LINE SMOOTH",
"190 761 OFFCURVE",
"173 740 OFFCURVE",
"165 681 CURVE SMOOTH",
"158 623 OFFCURVE",
"171 602 OFFCURVE",
"207 602 CURVE SMOOTH",
"832 602 LINE SMOOTH",
"868 602 OFFCURVE",
"886 623 OFFCURVE",
"893 681 CURVE SMOOTH",
"900 740 OFFCURVE",
"888 761 OFFCURVE",
"851 761 CURVE SMOOTH"
);
}
);
width = 1006;
}
);
unicode = 002D;
},
{
glyphname = period;
lastChange = "2026-02-27 13:18:40 +0000";
layers = (
{
layerId = UUID0;
paths = (
{
closed = 1;
nodes = (
"398 433 OFFCURVE",
"362 412 OFFCURVE",
"355 359 CURVE SMOOTH",
"318 62 LINE SMOOTH",
"311 9 OFFCURVE",
"356 -12 OFFCURVE",
"451 -12 CURVE SMOOTH",
"545 -12 OFFCURVE",
"582 9 OFFCURVE",
"589 62 CURVE SMOOTH",
"625 359 LINE SMOOTH",
"632 412 OFFCURVE",
"587 433 OFFCURVE",
"493 433 CURVE SMOOTH"
);
}
);
width = 1006;
},
{
layerId = "38D47A70-C265-4203-8B70-C23C50FC2DCC";
paths = (
{
closed = 1;
nodes = (
"405 351 OFFCURVE",
"376 330 OFFCURVE",
"370 277 CURVE SMOOTH",
"343 62 LINE SMOOTH",
"336 9 OFFCURVE",
"373 -12 OFFCURVE",
"451 -12 CURVE SMOOTH",
"529 -12 OFFCURVE",
"557 9 OFFCURVE",
"564 62 CURVE SMOOTH",
"591 277 LINE SMOOTH",
"597 330 OFFCURVE",
"561 351 OFFCURVE",
"482 351 CURVE SMOOTH"
);
}
);
width = 1006;
}
);
unicode = 002E;
},
{
glyphname = slash;
lastChange = "2026-02-27 13:18:40 +0000";
layers = (
{
layerId = UUID0;
paths = (
{
closed = 1;
nodes = (
"841 1637 OFFCURVE",
"817 1624 OFFCURVE",
"806 1597 CURVE SMOOTH",
"47 -284 LINE SMOOTH",
"14 -365 OFFCURVE",
"96 -421 OFFCURVE",
"164 -421 CURVE SMOOTH",
"200 -421 OFFCURVE",
"224 -410 OFFCURVE",
"234 -383 CURVE SMOOTH",
"994 1499 LINE SMOOTH",
"1028 1582 OFFCURVE",
"947 1637 OFFCURVE",
"878 1637 CURVE SMOOTH"
);
}
);
width = 1006;
},
{
layerId = "38D47A70-C265-4203-8B70-C23C50FC2DCC";
paths = (
{
closed = 1;
nodes = (
"878 1631 OFFCURVE",
"857 1621 OFFCURVE",
"845 1594 CURVE SMOOTH",
"73 -323 LINE SMOOTH",
"54 -369 OFFCURVE",
"81 -415 OFFCURVE",
"132 -415 CURVE SMOOTH",
"163 -415 OFFCURVE",
"185 -405 OFFCURVE",
"195 -378 CURVE SMOOTH",
"968 1539 LINE SMOOTH",
"988 1585 OFFCURVE",
"961 1631 OFFCURVE",
"909 1631 CURVE SMOOTH"
);
}
);
width = 1006;
}
);
unicode = 002F;
},
{
glyphname = zero;
lastChange = "2026-02-27 13:18:40 +0000";
layers = (
{
layerId = UUID0;
paths = (
{
closed = 1;
nodes = (
"270 1415 OFFCURVE",
"128 914 OFFCURVE",
"128 523 CURVE SMOOTH",
"128 198 OFFCURVE",
"246 -26 OFFCURVE",
"455 -26 CURVE SMOOTH",
"792 -26 OFFCURVE",
"935 475 OFFCURVE",
"935 866 CURVE SMOOTH",
"935 1191 OFFCURVE",
"817 1415 OFFCURVE",
"607 1415 CURVE SMOOTH"
);
},
{
closed = 1;
nodes = (
"673 1149 OFFCURVE",
"720 1057 OFFCURVE",
"720 875 CURVE SMOOTH",
"720 620 OFFCURVE",
"648 240 OFFCURVE",
"475 240 CURVE SMOOTH",
"390 240 OFFCURVE",
"343 332 OFFCURVE",
"343 514 CURVE SMOOTH",
"343 769 OFFCURVE",
"414 1149 OFFCURVE",
"587 1149 CURVE SMOOTH"
);
}
);
width = 1006;
},
{
layerId = "38D47A70-C265-4203-8B70-C23C50FC2DCC";
paths = (
{
closed = 1;
nodes = (
"304 1415 OFFCURVE",
"172 874 OFFCURVE",
"172 504 CURVE SMOOTH",
"172 185 OFFCURVE",
"276 -26 OFFCURVE",
"453 -26 CURVE SMOOTH",
"758 -26 OFFCURVE",
"891 515 OFFCURVE",
"891 885 CURVE SMOOTH",
"891 1204 OFFCURVE",
"786 1415 OFFCURVE",
"610 1415 CURVE SMOOTH"
);
},
{
closed = 1;
nodes = (
"701 1242 OFFCURVE",
"763 1116 OFFCURVE",
"763 891 CURVE SMOOTH",
"763 566 OFFCURVE",
"655 147 OFFCURVE",
"463 147 CURVE SMOOTH",
"362 147 OFFCURVE",
"300 272 OFFCURVE",
"300 499 CURVE SMOOTH",
"300 823 OFFCURVE",
"407 1242 OFFCURVE",
"599 1242 CURVE SMOOTH"
);
}
);
width = 1006;
}
);
unicode = 0030;
},
{
glyphname = one;
lastChange = "2026-02-27 13:18:40 +0000";
layers = (
{
layerId = UUID0;
paths = (
{
closed = 1;
nodes = (
"253 1112 LINE SMOOTH",
"215 1085 OFFCURVE",
"207 1043 OFFCURVE",
"233 957 CURVE SMOOTH",
"259 870 OFFCURVE",
"286 848 OFFCURVE",
"321 875 CURVE SMOOTH",
"542 1039 LINE",
"500 1068 LINE",
"392 193 LINE",
"597 193 LINE",
"738 1343 LINE SMOOTH",
"748 1421 OFFCURVE",
"695 1436 OFFCURVE",
"646 1400 CURVE SMOOTH"
);
},
{
closed = 1;
nodes = (
"212 240 LINE SMOOTH",
"176 240 OFFCURVE",
"157 219 OFFCURVE",
"145 119 CURVE SMOOTH",
"132 20 OFFCURVE",
"146 0 OFFCURVE",
"183 0 CURVE SMOOTH",
"783 0 LINE SMOOTH",
"819 0 OFFCURVE",
"836 20 OFFCURVE",
"848 119 CURVE SMOOTH",
"860 219 OFFCURVE",
"848 240 OFFCURVE",
"812 240 CURVE SMOOTH"
);
}
);
width = 1006;
},
{
layerId = "38D47A70-C265-4203-8B70-C23C50FC2DCC";
paths = (
{
closed = 1;
nodes = (
"279 1125 LINE SMOOTH",
"252 1104 OFFCURVE",
"242 1071 OFFCURVE",
"262 1017 CURVE SMOOTH",
"282 963 OFFCURVE",
"307 955 OFFCURVE",
"331 975 CURVE SMOOTH",
"589 1182 LINE",
"558 1215 LINE",
"425 126 LINE",
"548 126 LINE",
"699 1354 LINE SMOOTH",
"707 1417 OFFCURVE",
"667 1432 OFFCURVE",
"631 1404 CURVE SMOOTH"
);
},
{
closed = 1;
nodes = (
"224 159 LINE SMOOTH",
"187 159 OFFCURVE",
"170 138 OFFCURVE",
"163 80 CURVE SMOOTH",
"156 21 OFFCURVE",
"169 0 OFFCURVE",
"205 0 CURVE SMOOTH",
"757 0 LINE SMOOTH",
"793 0 OFFCURVE",
"811 21 OFFCURVE",
"818 80 CURVE SMOOTH",
"825 138 OFFCURVE",
"812 159 OFFCURVE",
"776 159 CURVE SMOOTH"
);
}
);
width = 1006;
}
);
unicode = 0031;
},
{
glyphname = two;
lastChange = "2026-02-27 13:18:40 +0000";
layers = (
{
layerId = UUID0;
paths = (
{
closed = 1;
nodes = (
"509 1415 OFFCURVE",
"411 1389 OFFCURVE",
"302 1312 CURVE SMOOTH",
"277 1294 OFFCURVE",
"261 1270 OFFCURVE",
"257 1237 CURVE SMOOTH",
"221 948 LINE SMOOTH",
"214 895 OFFCURVE",
"242 874 OFFCURVE",
"312 874 CURVE SMOOTH",
"382 874 OFFCURVE",
"403 895 OFFCURVE",
"410 948 CURVE SMOOTH",
"431 1112 LINE",
"475 1141 OFFCURVE",
"527 1161 OFFCURVE",
"578 1161 CURVE SMOOTH",
"648 1161 OFFCURVE",
"685 1109 OFFCURVE",
"685 1028 CURVE SMOOTH",
"685 916 OFFCURVE",
"635 845 OFFCURVE",
"532 724 CURVE SMOOTH",
"122 241 LINE SMOOTH",
"104 221 OFFCURVE",
"95 184 OFFCURVE",
"87 121 CURVE SMOOTH",
"75 21 OFFCURVE",
"87 0 OFFCURVE",
"124 0 CURVE SMOOTH",
"758 0 LINE SMOOTH",
"796 0 OFFCURVE",
"813 22 OFFCURVE",
"820 76 CURVE SMOOTH",
"855 359 LINE SMOOTH",
"861 412 OFFCURVE",
"834 433 OFFCURVE",
"764 433 CURVE SMOOTH",
"695 433 OFFCURVE",
"673 412 OFFCURVE",
"667 359 CURVE SMOOTH",
"653 252 LINE",
"422 252 LINE",
"685 559 LINE SMOOTH",
"822 723 OFFCURVE",
"894 841 OFFCURVE",
"894 1054 CURVE SMOOTH",
"894 1264 OFFCURVE",
"793 1415 OFFCURVE",
"600 1415 CURVE SMOOTH"
);
}
);
width = 1006;
},
{
layerId = "38D47A70-C265-4203-8B70-C23C50FC2DCC";
paths = (
{
closed = 1;
nodes = (
"484 1415 OFFCURVE",
"390 1368 OFFCURVE",
"304 1291 CURVE SMOOTH",
"289 1278 OFFCURVE",
"281 1258 OFFCURVE",
"277 1226 CURVE SMOOTH",
"255 1047 LINE SMOOTH",
"248 994 OFFCURVE",
"261 971 OFFCURVE",
"308 971 CURVE SMOOTH",
"353 971 OFFCURVE",
"371 994 OFFCURVE",
"378 1047 CURVE SMOOTH",
"393 1170 LINE",
"445 1211 OFFCURVE",
"507 1242 OFFCURVE",
"572 1242 CURVE SMOOTH",
"679 1242 OFFCURVE",
"733 1169 OFFCURVE",
"733 1054 CURVE SMOOTH",
"733 916 OFFCURVE",
"673 816 OFFCURVE",
"550 665 CURVE SMOOTH",
"125 143 LINE SMOOTH",
"116 130 OFFCURVE",
"109 110 OFFCURVE",
"105 80 CURVE SMOOTH",
"98 21 OFFCURVE",
"111 0 OFFCURVE",
"147 0 CURVE SMOOTH",
"733 0 LINE SMOOTH",
"769 0 OFFCURVE",
"786 21 OFFCURVE",
"793 80 CURVE SMOOTH",
"824 330 LINE SMOOTH",
"831 384 OFFCURVE",
"818 406 OFFCURVE",
"772 406 CURVE SMOOTH",
"727 406 OFFCURVE",
"708 384 OFFCURVE",
"701 330 CURVE SMOOTH",
"680 159 LINE",
"315 159 LINE",
"640 558 LINE SMOOTH",
"790 742 OFFCURVE",
"863 871 OFFCURVE",
"863 1066 CURVE SMOOTH",
"863 1281 OFFCURVE",
"752 1415 OFFCURVE",
"584 1415 CURVE SMOOTH"
);
}
);
width = 1006;
}
);
unicode = 0032;
},
{
glyphname = three;
lastChange = "2026-02-27 13:18:40 +0000";
layers = (
{
layerId = UUID0;
paths = (
{
closed = 1;
nodes = (
"500 1415 OFFCURVE",
"410 1396 OFFCURVE",
"319 1347 CURVE SMOOTH",
"290 1332 OFFCURVE",
"275 1307 OFFCURVE",
"269 1272 CURVE SMOOTH",
"241 1042 LINE SMOOTH",
"234 989 OFFCURVE",
"262 968 OFFCURVE",
"332 968 CURVE SMOOTH",
"401 968 OFFCURVE",
"422 989 OFFCURVE",
"429 1042 CURVE SMOOTH",
"441 1134 LINE",
"480 1149 OFFCURVE",
"521 1161 OFFCURVE",
"570 1161 CURVE SMOOTH",
"648 1161 OFFCURVE",
"688 1120 OFFCURVE",
"688 1024 CURVE SMOOTH",
"688 928 OFFCURVE",
"646 840 OFFCURVE",
"522 840 CURVE SMOOTH",
"460 840 LINE SMOOTH",
"422 840 OFFCURVE",
"405 813 OFFCURVE",
"392 714 CURVE SMOOTH",
"380 614 OFFCURVE",
"392 589 OFFCURVE",
"428 589 CURVE SMOOTH",
"513 589 LINE SMOOTH",
"592 589 OFFCURVE",
"634 544 OFFCURVE",
"634 458 CURVE SMOOTH",
"634 353 OFFCURVE",
"589 240 OFFCURVE",
"442 240 CURVE SMOOTH",
"362 240 OFFCURVE",
"288 269 OFFCURVE",
"224 316 CURVE SMOOTH",
"201 334 OFFCURVE",
"170 315 OFFCURVE",
"142 224 CURVE SMOOTH",
"114 133 OFFCURVE",
"119 87 OFFCURVE",
"147 64 CURVE SMOOTH",
"222 6 OFFCURVE",
"317 -26 OFFCURVE",
"438 -26 CURVE SMOOTH",
"744 -26 OFFCURVE",
"851 229 OFFCURVE",
"851 459 CURVE SMOOTH",
"851 577 OFFCURVE",
"811 667 OFFCURVE",
"744 716 CURVE",
"848 788 OFFCURVE",
"899 918 OFFCURVE",
"899 1067 CURVE SMOOTH",
"899 1287 OFFCURVE",
"786 1415 OFFCURVE",
"592 1415 CURVE SMOOTH"
);
}
);
width = 1006;
},
{
layerId = "38D47A70-C265-4203-8B70-C23C50FC2DCC";
paths = (
{
closed = 1;
nodes = (
"492 1415 OFFCURVE",
"410 1383 OFFCURVE",
"327 1318 CURVE SMOOTH",
"310 1304 OFFCURVE",
"301 1285 OFFCURVE",
"296 1251 CURVE SMOOTH",
"280 1118 LINE SMOOTH",
"274 1064 OFFCURVE",
"286 1042 OFFCURVE",
"332 1042 CURVE SMOOTH",
"378 1042 OFFCURVE",
"397 1064 OFFCURVE",
"403 1118 CURVE SMOOTH",
"413 1196 LINE",
"460 1226 OFFCURVE",
"515 1242 OFFCURVE",
"580 1242 CURVE SMOOTH",
"685 1242 OFFCURVE",
"741 1178 OFFCURVE",
"741 1073 CURVE SMOOTH",
"741 948 OFFCURVE",
"688 809 OFFCURVE",
"521 809 CURVE SMOOTH",
"476 809 LINE SMOOTH",
"439 809 OFFCURVE",
"422 788 OFFCURVE",
"414 729 CURVE SMOOTH",
"408 671 OFFCURVE",
"419 650 OFFCURVE",
"456 650 CURVE SMOOTH",
"516 650 LINE SMOOTH",
"627 650 OFFCURVE",
"693 585 OFFCURVE",
"693 452 CURVE SMOOTH",
"693 317 OFFCURVE",
"630 147 OFFCURVE",
"451 147 CURVE SMOOTH",
"364 147 OFFCURVE",
"281 194 OFFCURVE",
"220 268 CURVE SMOOTH",
"191 304 OFFCURVE",
"163 273 OFFCURVE",
"144 231 CURVE SMOOTH",
"124 187 OFFCURVE",
"122 151 OFFCURVE",
"146 122 CURVE SMOOTH",
"220 33 OFFCURVE",
"329 -26 OFFCURVE",
"438 -26 CURVE SMOOTH",
"723 -26 OFFCURVE",
"822 252 OFFCURVE",
"822 448 CURVE SMOOTH",
"822 586 OFFCURVE",
"777 682 OFFCURVE",
"703 731 CURVE",
"815 803 OFFCURVE",
"867 929 OFFCURVE",
"867 1085 CURVE SMOOTH",
"867 1280 OFFCURVE",
"761 1415 OFFCURVE",
"592 1415 CURVE SMOOTH"
);
}
);
width = 1006;
}
);
unicode = 0033;
},
{
glyphname = four;
lastChange = "2026-02-27 13:18:40 +0000";
layers = (
{
layerId = UUID0;
paths = (
{
closed = 1;
nodes = (
"681 1415 OFFCURVE",
"641 1394 OFFCURVE",
"607 1346 CURVE SMOOTH",
"138 668 LINE SMOOTH",
"128 651 OFFCURVE",
"116 609 OFFCURVE",
"109 552 CURVE SMOOTH",
"97 453 OFFCURVE",
"109 433 OFFCURVE",
"146 433 CURVE SMOOTH",
"499 433 LINE",
"474 240 LINE",
"335 240 LINE SMOOTH",
"298 240 OFFCURVE",
"280 219 OFFCURVE",
"268 119 CURVE SMOOTH",
"255 20 OFFCURVE",
"269 0 OFFCURVE",
"305 0 CURVE SMOOTH",
"767 0 LINE SMOOTH",
"803 0 OFFCURVE",
"819 20 OFFCURVE",
"832 119 CURVE SMOOTH",
"844 219 OFFCURVE",
"832 240 OFFCURVE",
"796 240 CURVE SMOOTH",
"679 240 LINE",
"703 433 LINE",
"844 433 LINE SMOOTH",
"881 433 OFFCURVE",
"898 453 OFFCURVE",
"910 552 CURVE SMOOTH",
"922 652 OFFCURVE",
"910 673 OFFCURVE",
"873 673 CURVE SMOOTH",
"733 673 LINE",
"811 1310 LINE SMOOTH",
"818 1373 OFFCURVE",
"805 1415 OFFCURVE",
"738 1415 CURVE SMOOTH"
);
},
{
closed = 1;
nodes = (
"535 673 LINE",
"356 673 LINE",
"590 1015 LINE"
);
}
);
width = 1006;
},
{
layerId = "38D47A70-C265-4203-8B70-C23C50FC2DCC";
paths = (
{
closed = 1;
nodes = (
"689 1415 OFFCURVE",
"662 1394 OFFCURVE",
"633 1347 CURVE SMOOTH",
"139 559 LINE SMOOTH",
"132 548 OFFCURVE",
"128 525 OFFCURVE",
"124 501 CURVE SMOOTH",
"117 442 OFFCURVE",
"130 421 OFFCURVE",
"166 421 CURVE SMOOTH",
"558 421 LINE",
"525 159 LINE",
"404 159 LINE SMOOTH",
"367 159 OFFCURVE",
"350 138 OFFCURVE",
"343 80 CURVE SMOOTH",
"336 21 OFFCURVE",
"349 0 OFFCURVE",
"385 0 CURVE SMOOTH",
"737 0 LINE SMOOTH",
"775 0 OFFCURVE",
"791 21 OFFCURVE",
"798 80 CURVE SMOOTH",
"805 138 OFFCURVE",
"793 159 OFFCURVE",
"756 159 CURVE SMOOTH",
"648 159 LINE",
"681 421 LINE",
"813 421 LINE SMOOTH",
"851 421 OFFCURVE",
"867 442 OFFCURVE",
"875 501 CURVE SMOOTH",
"882 559 OFFCURVE",
"870 580 OFFCURVE",
"833 580 CURVE SMOOTH",
"701 580 LINE",
"792 1324 LINE SMOOTH",
"799 1379 OFFCURVE",
"783 1415 OFFCURVE",
"733 1415 CURVE SMOOTH"
);
},
{
closed = 1;
nodes = (
"578 580 LINE",
"302 580 LINE",
"654 1154 LINE"
);
}
);
width = 1006;
}
);
unicode = 0034;
},
{
glyphname = five;
lastChange = "2026-02-27 13:18:40 +0000";
layers = (
{
layerId = UUID0;
paths = (
{
closed = 1;
nodes = (
"370 1389 LINE SMOOTH",
"332 1389 OFFCURVE",
"316 1367 OFFCURVE",
"308 1313 CURVE SMOOTH",
"201 669 LINE SMOOTH",
"192 616 OFFCURVE",
"240 592 OFFCURVE",
"310 592 CURVE SMOOTH",
"332 592 OFFCURVE",
"351 599 OFFCURVE",
"376 612 CURVE SMOOTH",
"420 637 OFFCURVE",
"469 654 OFFCURVE",
"517 654 CURVE SMOOTH",
"597 654 OFFCURVE",
"639 598 OFFCURVE",
"639 489 CURVE SMOOTH",
"639 371 OFFCURVE",
"575 240 OFFCURVE",
"442 240 CURVE SMOOTH",
"365 240 OFFCURVE",
"287 277 OFFCURVE",
"220 330 CURVE SMOOTH",
"197 348 OFFCURVE",
"169 334 OFFCURVE",
"138 238 CURVE SMOOTH",
"109 147 OFFCURVE",
"116 102 OFFCURVE",
"144 78 CURVE SMOOTH",
"225 15 OFFCURVE",
"324 -26 OFFCURVE",
"429 -26 CURVE SMOOTH",
"737 -26 OFFCURVE",
"859 229 OFFCURVE",
"859 529 CURVE SMOOTH",
"859 756 OFFCURVE",
"767 920 OFFCURVE",
"586 920 CURVE SMOOTH",
"531 920 OFFCURVE",
"486 905 OFFCURVE",
"432 877 CURVE",
"475 1138 LINE",
"837 1138 LINE SMOOTH",
"874 1138 OFFCURVE",
"892 1163 OFFCURVE",
"905 1263 CURVE SMOOTH",
"916 1362 OFFCURVE",
"906 1389 OFFCURVE",
"868 1389 CURVE SMOOTH"
);
}
);
width = 1006;
},
{
layerId = "38D47A70-C265-4203-8B70-C23C50FC2DCC";
paths = (
{
closed = 1;
nodes = (
"401 1389 LINE SMOOTH",
"356 1389 OFFCURVE",
"338 1367 OFFCURVE",
"330 1313 CURVE SMOOTH",
"238 701 LINE SMOOTH",
"233 669 OFFCURVE",
"261 652 OFFCURVE",
"297 652 CURVE SMOOTH",
"316 652 OFFCURVE",
"328 655 OFFCURVE",
"343 668 CURVE SMOOTH",
"398 716 OFFCURVE",
"458 747 OFFCURVE",
"532 747 CURVE SMOOTH",
"640 747 OFFCURVE",
"701 655 OFFCURVE",
"701 518 CURVE SMOOTH",
"701 350 OFFCURVE",
"623 147 OFFCURVE",
"442 147 CURVE SMOOTH",
"358 147 OFFCURVE",
"277 194 OFFCURVE",
"218 264 CURVE SMOOTH",
"195 290 OFFCURVE",
"172 284 OFFCURVE",
"146 229 CURVE SMOOTH",
"119 174 OFFCURVE",
"124 139 OFFCURVE",
"149 114 CURVE SMOOTH",
"222 30 OFFCURVE",
"327 -26 OFFCURVE",
"433 -26 CURVE SMOOTH",
"710 -26 OFFCURVE",
"830 284 OFFCURVE",
"830 523 CURVE SMOOTH",
"830 755 OFFCURVE",
"730 920 OFFCURVE",
"556 920 CURVE SMOOTH",
"494 920 OFFCURVE",
"438 902 OFFCURVE",
"382 860 CURVE",
"438 1230 LINE",
"819 1230 LINE SMOOTH",
"857 1230 OFFCURVE",
"873 1251 OFFCURVE",
"881 1310 CURVE SMOOTH",
"888 1368 OFFCURVE",
"875 1389 OFFCURVE",
"839 1389 CURVE SMOOTH"
);
}
);
width = 1006;
}
);
unicode = 0035;
},
{
glyphname = six;
lastChange = "2026-02-27 13:18:40 +0000";
layers = (
{
layerId = UUID0;
paths = (
{
closed = 1;
nodes = (
"376 1410 OFFCURVE",
"145 987 OFFCURVE",
"145 489 CURVE SMOOTH",
"145 198 OFFCURVE",
"243 -26 OFFCURVE",
"484 -26 CURVE SMOOTH",
"730 -26 OFFCURVE",
"879 222 OFFCURVE",
"879 480 CURVE SMOOTH",
"879 708 OFFCURVE",
"774 867 OFFCURVE",
"611 867 CURVE SMOOTH",
"516 867 OFFCURVE",
"444 823 OFFCURVE",
"378 742 CURVE",
"439 997 OFFCURVE",
"575 1122 OFFCURVE",
"875 1132 CURVE SMOOTH",
"900 1133 OFFCURVE",
"919 1178 OFFCURVE",
"919 1283 CURVE SMOOTH",
"919 1375 OFFCURVE",
"906 1416 OFFCURVE",
"875 1415 CURVE"
);
},
{
closed = 1;
nodes = (
"623 619 OFFCURVE",
"669 564 OFFCURVE",
"669 463 CURVE SMOOTH",
"669 345 OFFCURVE",
"604 235 OFFCURVE",
"488 235 CURVE SMOOTH",
"400 235 OFFCURVE",
"353 308 OFFCURVE",
"353 398 CURVE SMOOTH",
"353 515 OFFCURVE",
"425 619 OFFCURVE",
"541 619 CURVE SMOOTH"
);
}
);
width = 1006;
},
{
layerId = "38D47A70-C265-4203-8B70-C23C50FC2DCC";
paths = (
{
closed = 1;
nodes = (
"448 1387 OFFCURVE",
"174 997 OFFCURVE",
"174 412 CURVE SMOOTH",
"174 181 OFFCURVE",
"263 -26 OFFCURVE",
"472 -26 CURVE SMOOTH",
"714 -26 OFFCURVE",
"850 236 OFFCURVE",
"850 483 CURVE SMOOTH",
"850 707 OFFCURVE",
"738 855 OFFCURVE",
"579 855 CURVE SMOOTH",
"484 855 OFFCURVE",
"396 802 OFFCURVE",
"325 702 CURVE",
"393 1005 OFFCURVE",
"566 1221 OFFCURVE",
"870 1243 CURVE",
"892 1244 OFFCURVE",
"909 1267 OFFCURVE",
"909 1336 CURVE SMOOTH",
"909 1401 OFFCURVE",
"891 1416 OFFCURVE",
"866 1415 CURVE"
);
},
{
closed = 1;
nodes = (
"662 682 OFFCURVE",
"720 605 OFFCURVE",
"720 472 CURVE SMOOTH",
"720 321 OFFCURVE",
"645 147 OFFCURVE",
"476 147 CURVE SMOOTH",
"365 147 OFFCURVE",
"301 239 OFFCURVE",
"301 373 CURVE SMOOTH",
"301 569 OFFCURVE",
"425 682 OFFCURVE",
"556 682 CURVE SMOOTH"
);
}
);
width = 1006;
}
);
unicode = 0036;
},
{
color = (31,255,0,1);
glyphname = seven;
lastChange = "2026-02-27 13:18:40 +0000";
layers = (
{
layerId = UUID0;
paths = (
{
closed = 1;
nodes = (
"321 1389 LINE SMOOTH",
"283 1389 OFFCURVE",
"264 1367 OFFCURVE",
"259 1313 CURVE SMOOTH",
"209 913 LINE SMOOTH",
"202 860 OFFCURVE",
"229 839 OFFCURVE",
"300 839 CURVE SMOOTH",
"369 839 OFFCURVE",
"391 860 OFFCURVE",
"398 913 CURVE SMOOTH",
"425 1138 LINE",
"713 1138 LINE",
"290 114 LINE SMOOTH",
"256 32 OFFCURVE",
"335 -26 OFFCURVE",
"404 -26 CURVE SMOOTH",
"446 -26 OFFCURVE",
"479 -9 OFFCURVE",
"494 28 CURVE SMOOTH",
"965 1184 LINE SMOOTH",
"974 1202 OFFCURVE",
"980 1229 OFFCURVE",
"984 1269 CURVE SMOOTH",
"996 1368 OFFCURVE",
"984 1389 OFFCURVE",
"947 1389 CURVE SMOOTH"
);
}
);
width = 1006;
},
{
layerId = "38D47A70-C265-4203-8B70-C23C50FC2DCC";
paths = (
{
closed = 1;
nodes = (
"353 1389 LINE SMOOTH",
"316 1389 OFFCURVE",
"300 1368 OFFCURVE",
"291 1310 CURVE SMOOTH",
"261 1059 LINE SMOOTH",
"254 1005 OFFCURVE",
"267 983 OFFCURVE",
"312 983 CURVE SMOOTH",
"359 983 OFFCURVE",
"377 1005 OFFCURVE",
"384 1059 CURVE SMOOTH",
"405 1230 LINE",
"789 1230 LINE",
"311 66 LINE SMOOTH",
"288 8 OFFCURVE",
"323 -26 OFFCURVE",
"362 -26 CURVE SMOOTH",
"390 -26 OFFCURVE",
"419 -9 OFFCURVE",
"435 28 CURVE SMOOTH",
"936 1263 LINE SMOOTH",
"940 1272 OFFCURVE",
"944 1290 OFFCURVE",
"947 1310 CURVE SMOOTH",
"955 1368 OFFCURVE",
"942 1389 OFFCURVE",
"906 1389 CURVE SMOOTH"
);
}
);
width = 1006;
}
);
unicode = 0037;
},
{
color = (0,243,255,1);
glyphname = eight;
lastChange = "2026-02-27 13:18:40 +0000";
layers = (
{
layerId = UUID0;
paths = (
{
closed = 1;
nodes = (
"367 1415 OFFCURVE",
"239 1190 OFFCURVE",
"239 974 CURVE SMOOTH",
"239 860 OFFCURVE",
"277 781 OFFCURVE",
"341 731 CURVE",
"204 674 OFFCURVE",
"130 531 OFFCURVE",
"130 335 CURVE SMOOTH",
"130 117 OFFCURVE",
"249 -26 OFFCURVE",
"442 -26 CURVE SMOOTH",
"747 -26 OFFCURVE",
"859 222 OFFCURVE",
"859 444 CURVE SMOOTH",
"859 576 OFFCURVE",
"810 666 OFFCURVE",
"731 717 CURVE",
"832 769 OFFCURVE",
"902 886 OFFCURVE",
"902 1065 CURVE SMOOTH",
"902 1253 OFFCURVE",
"804 1415 OFFCURVE",
"620 1415 CURVE SMOOTH"
);
},
{
closed = 1;
nodes = (
"604 606 OFFCURVE",
"645 548 OFFCURVE",
"645 458 CURVE SMOOTH",
"645 348 OFFCURVE",
"595 229 OFFCURVE",
"474 229 CURVE SMOOTH",
"390 229 OFFCURVE",
"349 287 OFFCURVE",
"349 376 CURVE SMOOTH",
"349 487 OFFCURVE",
"400 606 OFFCURVE",
"521 606 CURVE SMOOTH"
);
},
{
closed = 1;
nodes = (
"657 1160 OFFCURVE",
"697 1108 OFFCURVE",
"697 1028 CURVE SMOOTH",
"697 936 OFFCURVE",
"651 833 OFFCURVE",
"548 833 CURVE SMOOTH",
"477 833 OFFCURVE",
"439 884 OFFCURVE",
"439 962 CURVE SMOOTH",
"439 1065 OFFCURVE",
"493 1160 OFFCURVE",
"589 1160 CURVE SMOOTH"
);
}
);
width = 1006;
},
{
layerId = "38D47A70-C265-4203-8B70-C23C50FC2DCC";
paths = (
{
closed = 1;
nodes = (
"387 1415 OFFCURVE",
"268 1169 OFFCURVE",
"268 990 CURVE SMOOTH",
"268 881 OFFCURVE",
"311 795 OFFCURVE",
"370 743 CURVE",
"252 673 OFFCURVE",
"157 536 OFFCURVE",
"157 339 CURVE SMOOTH",
"157 130 OFFCURVE",
"277 -26 OFFCURVE",
"451 -26 CURVE SMOOTH",
"701 -26 OFFCURVE",
"831 235 OFFCURVE",
"831 449 CURVE SMOOTH",
"831 578 OFFCURVE",
"778 678 OFFCURVE",
"702 731 CURVE",
"799 799 OFFCURVE",
"877 913 OFFCURVE",
"877 1080 CURVE SMOOTH",
"877 1267 OFFCURVE",
"769 1415 OFFCURVE",
"612 1415 CURVE SMOOTH"
);
},
{
closed = 1;
nodes = (
"633 648 OFFCURVE",
"701 566 OFFCURVE",
"701 444 CURVE SMOOTH",
"701 296 OFFCURVE",
"612 147 OFFCURVE",
"463 147 CURVE SMOOTH",
"357 147 OFFCURVE",
"288 231 OFFCURVE",
"288 352 CURVE SMOOTH",
"288 496 OFFCURVE",
"374 648 OFFCURVE",
"525 648 CURVE SMOOTH"
);
},
{
closed = 1;
nodes = (
"689 1242 OFFCURVE",
"750 1175 OFFCURVE",
"750 1065 CURVE SMOOTH",
"750 926 OFFCURVE",
"658 811 OFFCURVE",
"545 811 CURVE SMOOTH",
"455 811 OFFCURVE",
"393 887 OFFCURVE",
"393 991 CURVE SMOOTH",
"393 1112 OFFCURVE",
"468 1242 OFFCURVE",
"599 1242 CURVE SMOOTH"
);
}
);
width = 1006;
}
);
unicode = 0038;
},
{
glyphname = nine;
lastChange = "2026-02-27 13:18:40 +0000";
layers = (
{
layerId = UUID0;
paths = (
{
closed = 1;
nodes = (
"331 1415 OFFCURVE",
"183 1167 OFFCURVE",
"183 909 CURVE SMOOTH",
"183 681 OFFCURVE",
"288 522 OFFCURVE",
"452 522 CURVE SMOOTH",
"545 522 OFFCURVE",
"618 566 OFFCURVE",
"693 647 CURVE",
"627 392 OFFCURVE",
"504 279 OFFCURVE",
"212 257 CURVE",
"186 255 OFFCURVE",
"169 212 OFFCURVE",
"169 104 CURVE SMOOTH",
"169 15 OFFCURVE",
"181 -27 OFFCURVE",
"211 -26 CURVE",
"709 -5 OFFCURVE",
"916 414 OFFCURVE",
"916 900 CURVE SMOOTH",
"916 1191 OFFCURVE",
"818 1415 OFFCURVE",
"577 1415 CURVE SMOOTH"
);
},
{
closed = 1;
nodes = (
"662 1154 OFFCURVE",
"708 1081 OFFCURVE",
"708 991 CURVE SMOOTH",
"708 874 OFFCURVE",
"638 770 OFFCURVE",
"521 770 CURVE SMOOTH",
"439 770 OFFCURVE",
"392 825 OFFCURVE",
"392 926 CURVE SMOOTH",
"392 1044 OFFCURVE",
"458 1154 OFFCURVE",
"575 1154 CURVE SMOOTH"
);
}
);
width = 1006;
},
{
layerId = "38D47A70-C265-4203-8B70-C23C50FC2DCC";
paths = (
{
closed = 1;
nodes = (
"348 1415 OFFCURVE",
"212 1153 OFFCURVE",
"212 906 CURVE SMOOTH",
"212 682 OFFCURVE",
"324 534 OFFCURVE",
"482 534 CURVE SMOOTH",
"578 534 OFFCURVE",
"666 587 OFFCURVE",
"736 687 CURVE",
"668 384 OFFCURVE",
"496 169 OFFCURVE",
"192 146 CURVE",
"170 145 OFFCURVE",
"152 122 OFFCURVE",
"152 53 CURVE SMOOTH",
"152 -12 OFFCURVE",
"171 -27 OFFCURVE",
"195 -26 CURVE",
"613 2 OFFCURVE",
"887 392 OFFCURVE",
"887 977 CURVE SMOOTH",
"887 1208 OFFCURVE",
"799 1415 OFFCURVE",
"590 1415 CURVE SMOOTH"
);
},
{
closed = 1;
nodes = (
"696 1242 OFFCURVE",
"761 1150 OFFCURVE",
"761 1016 CURVE SMOOTH",
"761 820 OFFCURVE",
"638 707 OFFCURVE",
"506 707 CURVE SMOOTH",
"399 707 OFFCURVE",
"342 784 OFFCURVE",
"342 918 CURVE SMOOTH",
"342 1068 OFFCURVE",
"417 1242 OFFCURVE",
"585 1242 CURVE SMOOTH"
);
}
);
width = 1006;
}
);
unicode = 0039;
},
{
glyphname = less;
lastChange = "2026-02-27 13:18:40 +0000";
layers = (
{
layerId = UUID0;
paths = (
{
closed = 1;
nodes = (
"177 792 LINE SMOOTH",
"147 772 OFFCURVE",
"132 749 OFFCURVE",
"124 682 CURVE SMOOTH",
"116 616 OFFCURVE",
"125 591 OFFCURVE",
"149 572 CURVE SMOOTH",
"734 98 LINE SMOOTH",
"764 74 OFFCURVE",
"790 87 OFFCURVE",
"829 180 CURVE SMOOTH",
"867 274 OFFCURVE",
"860 312 OFFCURVE",
"829 337 CURVE SMOOTH",
"403 671 LINE",
"933 1018 LINE SMOOTH",
"970 1043 OFFCURVE",
"980 1085 OFFCURVE",
"954 1178 CURVE SMOOTH",
"927 1272 OFFCURVE",
"905 1284 OFFCURVE",
"868 1259 CURVE SMOOTH"
);
}
);
width = 1006;
},
{
layerId = "38D47A70-C265-4203-8B70-C23C50FC2DCC";
paths = (
{
closed = 1;
nodes = (
"177 763 LINE SMOOTH",
"149 744 OFFCURVE",
"133 723 OFFCURVE",
"129 682 CURVE SMOOTH",
"124 641 OFFCURVE",
"133 620 OFFCURVE",
"157 602 CURVE SMOOTH",
"738 156 LINE SMOOTH",
"769 132 OFFCURVE",
"795 143 OFFCURVE",
"819 194 CURVE SMOOTH",
"845 248 OFFCURVE",
"840 282 OFFCURVE",
"810 305 CURVE SMOOTH",
"316 674 LINE",
"908 1046 LINE SMOOTH",
"946 1070 OFFCURVE",
"954 1108 OFFCURVE",
"941 1162 CURVE SMOOTH",
"930 1214 OFFCURVE",
"906 1232 OFFCURVE",
"870 1209 CURVE SMOOTH"
);
}
);
width = 1006;
}
);
unicode = 003C;
},
{
glyphname = equal;
lastChange = "2026-02-27 13:18:40 +0000";
layers = (
{
layerId = UUID0;
paths = (
{
closed = 1;
nodes = (
"201 545 LINE SMOOTH",
"164 545 OFFCURVE",
"146 524 OFFCURVE",
"132 413 CURVE SMOOTH",
"119 302 OFFCURVE",
"131 282 OFFCURVE",
"169 282 CURVE SMOOTH",
"792 282 LINE SMOOTH",
"829 282 OFFCURVE",
"846 302 OFFCURVE",
"860 413 CURVE SMOOTH",
"873 524 OFFCURVE",
"861 545 OFFCURVE",
"825 545 CURVE SMOOTH"
);
},
{
closed = 1;
nodes = (
"267 1081 LINE SMOOTH",
"229 1081 OFFCURVE",
"212 1060 OFFCURVE",
"199 949 CURVE SMOOTH",
"185 838 OFFCURVE",
"198 818 OFFCURVE",
"234 818 CURVE SMOOTH",
"859 818 LINE SMOOTH",
"895 818 OFFCURVE",
"913 838 OFFCURVE",
"927 949 CURVE SMOOTH",
"940 1060 OFFCURVE",
"927 1081 OFFCURVE",
"891 1081 CURVE SMOOTH"
);
}
);
width = 1006;
},
{
layerId = "38D47A70-C265-4203-8B70-C23C50FC2DCC";
paths = (
{
closed = 1;
nodes = (
"198 527 LINE SMOOTH",
"161 527 OFFCURVE",
"144 506 OFFCURVE",
"137 447 CURVE SMOOTH",
"130 389 OFFCURVE",
"142 367 OFFCURVE",
"179 367 CURVE SMOOTH",
"803 367 LINE SMOOTH",
"840 367 OFFCURVE",
"857 389 OFFCURVE",
"865 447 CURVE SMOOTH",
"872 506 OFFCURVE",
"859 527 OFFCURVE",
"823 527 CURVE SMOOTH"
);
},
{
closed = 1;
nodes = (
"255 995 LINE SMOOTH",
"219 995 OFFCURVE",
"201 974 OFFCURVE",
"194 915 CURVE SMOOTH",
"187 857 OFFCURVE",
"199 836 OFFCURVE",
"236 836 CURVE SMOOTH",
"860 836 LINE SMOOTH",
"898 836 OFFCURVE",
"915 857 OFFCURVE",
"922 915 CURVE SMOOTH",
"929 974 OFFCURVE",
"916 995 OFFCURVE",
"880 995 CURVE SMOOTH"
);
}
);
width = 1006;
}
);
unicode = 003D;
},
{
glyphname = greater;
lastChange = "2026-02-27 13:18:40 +0000";
layers = (
{
layerId = UUID0;
paths = (
{
closed = 1;
nodes = (
"294 1291 OFFCURVE",
"269 1278 OFFCURVE",
"231 1184 CURVE SMOOTH",
"192 1091 OFFCURVE",
"198 1052 OFFCURVE",
"229 1028 CURVE",
"657 694 LINE",
"125 346 LINE SMOOTH",
"89 322 OFFCURVE",
"78 280 OFFCURVE",
"105 186 CURVE SMOOTH",
"131 92 OFFCURVE",
"154 81 OFFCURVE",
"190 105 CURVE SMOOTH",
"882 572 LINE SMOOTH",
"910 592 OFFCURVE",
"926 616 OFFCURVE",
"934 682 CURVE SMOOTH",
"942 749 OFFCURVE",
"933 774 OFFCURVE",
"909 792 CURVE SMOOTH",
"324 1266 LINE SMOOTH"
);
}
);
width = 1006;
},
{
layerId = "38D47A70-C265-4203-8B70-C23C50FC2DCC";
paths = (
{
closed = 1;
nodes = (
"289 1232 OFFCURVE",
"263 1222 OFFCURVE",
"239 1170 CURVE SMOOTH",
"214 1116 OFFCURVE",
"218 1083 OFFCURVE",
"249 1059 CURVE SMOOTH",
"742 690 LINE",
"151 318 LINE SMOOTH",
"114 295 OFFCURVE",
"105 256 OFFCURVE",
"117 202 CURVE SMOOTH",
"129 151 OFFCURVE",
"153 132 OFFCURVE",
"190 156 CURVE SMOOTH",
"881 602 LINE SMOOTH",
"909 620 OFFCURVE",
"925 641 OFFCURVE",
"930 682 CURVE SMOOTH",
"935 723 OFFCURVE",
"925 744 OFFCURVE",
"901 763 CURVE SMOOTH",
"319 1209 LINE SMOOTH"
);
}
);
width = 1006;
}
);
unicode = 003E;
},
{
glyphname = question;
lastChange = "2026-02-27 13:18:40 +0000";
layers = (
{
layerId = UUID0;
paths = (
{
closed = 1;
nodes = (
"504 1485 OFFCURVE",
"413 1451 OFFCURVE",
"318 1394 CURVE SMOOTH",
"295 1380 OFFCURVE",
"280 1354 OFFCURVE",
"276 1322 CURVE SMOOTH",
"247 1088 LINE SMOOTH",
"241 1036 OFFCURVE",
"269 1015 OFFCURVE",
"338 1015 CURVE SMOOTH",
"408 1015 OFFCURVE",
"431 1036 OFFCURVE",
"435 1088 CURVE SMOOTH",
"448 1196 LINE",
"489 1218 OFFCURVE",
"534 1231 OFFCURVE",
"578 1231 CURVE SMOOTH",
"654 1231 OFFCURVE",
"690 1170 OFFCURVE",
"690 1084 CURVE SMOOTH",
"690 982 OFFCURVE",
"640 920 OFFCURVE",
"549 896 CURVE SMOOTH",
"456 873 LINE SMOOTH",
"435 867 OFFCURVE",
"426 844 OFFCURVE",
"425 813 CURVE SMOOTH",
"411 570 LINE SMOOTH",
"408 534 OFFCURVE",
"422 514 OFFCURVE",
"486 514 CURVE SMOOTH",
"549 514 OFFCURVE",
"570 534 OFFCURVE",
"576 570 CURVE SMOOTH",
"596 676 LINE",
"818 745 OFFCURVE",
"900 908 OFFCURVE",
"900 1120 CURVE SMOOTH",
"900 1339 OFFCURVE",
"793 1485 OFFCURVE",
"597 1485 CURVE SMOOTH"
);
},
{
closed = 1;
nodes = (
"383 339 OFFCURVE",
"350 318 OFFCURVE",
"343 266 CURVE SMOOTH",
"318 62 LINE SMOOTH",
"311 9 OFFCURVE",
"349 -12 OFFCURVE",
"433 -12 CURVE SMOOTH",
"516 -12 OFFCURVE",
"549 9 OFFCURVE",
"556 62 CURVE SMOOTH",
"580 266 LINE SMOOTH",
"587 318 OFFCURVE",
"550 339 OFFCURVE",
"466 339 CURVE SMOOTH"
);
}
);
width = 1006;
},
{
layerId = "38D47A70-C265-4203-8B70-C23C50FC2DCC";
paths = (
{
closed = 1;
nodes = (
"527 1485 OFFCURVE",
"433 1452 OFFCURVE",
"343 1384 CURVE SMOOTH",
"327 1372 OFFCURVE",
"318 1352 OFFCURVE",
"314 1319 CURVE SMOOTH",
"294 1164 LINE SMOOTH",
"288 1111 OFFCURVE",
"301 1088 OFFCURVE",
"346 1088 CURVE SMOOTH",
"392 1088 OFFCURVE",
"411 1111 OFFCURVE",
"417 1164 CURVE SMOOTH",
"429 1263 LINE",
"484 1294 OFFCURVE",
"545 1312 OFFCURVE",
"612 1312 CURVE SMOOTH",
"702 1312 OFFCURVE",
"748 1251 OFFCURVE",
"748 1159 CURVE SMOOTH",
"748 1015 OFFCURVE",
"679 947 OFFCURVE",
"537 871 CURVE SMOOTH",
"476 838 LINE SMOOTH",
"456 827 OFFCURVE",
"447 809 OFFCURVE",
"444 778 CURVE SMOOTH",
"427 547 LINE SMOOTH",
"425 510 OFFCURVE",
"440 490 OFFCURVE",
"474 490 CURVE SMOOTH",
"509 490 OFFCURVE",
"529 510 OFFCURVE",
"536 547 CURVE SMOOTH",
"565 709 LINE",
"764 815 OFFCURVE",
"878 940 OFFCURVE",
"878 1167 CURVE SMOOTH",
"878 1358 OFFCURVE",
"788 1485 OFFCURVE",
"624 1485 CURVE SMOOTH"
);
},
{
closed = 1;
nodes = (
"384 269 OFFCURVE",
"357 248 OFFCURVE",
"351 195 CURVE SMOOTH",
"335 62 LINE SMOOTH",
"328 9 OFFCURVE",
"358 -12 OFFCURVE",
"425 -12 CURVE SMOOTH",
"490 -12 OFFCURVE",
"516 9 OFFCURVE",
"523 62 CURVE SMOOTH",
"540 195 LINE SMOOTH",
"545 248 OFFCURVE",
"516 269 OFFCURVE",
"449 269 CURVE SMOOTH"
);
}
);
width = 1006;
}
);
unicode = 003F;
},
{
glyphname = at;
lastChange = "2026-02-27 13:18:40 +0000";
layers = (
{
layerId = UUID0;
paths = (
{
closed = 1;
nodes = (
"261 1262 OFFCURVE",
"20 769 OFFCURVE",
"20 334 CURVE SMOOTH",
"20 26 OFFCURVE",
"154 -179 OFFCURVE",
"390 -179 CURVE SMOOTH",
"480 -179 OFFCURVE",
"577 -154 OFFCURVE",
"639 -118 CURVE SMOOTH",
"657 -108 OFFCURVE",
"666 -81 OFFCURVE",
"660 -22 CURVE SMOOTH",
"652 44 OFFCURVE",
"638 56 OFFCURVE",
"619 47 CURVE SMOOTH",
"561 20 OFFCURVE",
"488 0 OFFCURVE",
"401 0 CURVE SMOOTH",
"236 0 OFFCURVE",
"152 136 OFFCURVE",
"152 345 CURVE SMOOTH",
"152 678 OFFCURVE",
"341 1083 OFFCURVE",
"613 1083 CURVE SMOOTH",
"778 1083 OFFCURVE",
"870 946 OFFCURVE",
"870 730 CURVE SMOOTH",
"870 538 OFFCURVE",
"804 325 OFFCURVE",
"717 325 CURVE SMOOTH",
"695 325 OFFCURVE",
"681 348 OFFCURVE",
"681 386 CURVE SMOOTH",
"681 408 OFFCURVE",
"686 438 OFFCURVE",
"695 473 CURVE SMOOTH",
"799 838 LINE SMOOTH",
"805 859 OFFCURVE",
"793 879 OFFCURVE",
"764 891 CURVE SMOOTH",
"730 905 OFFCURVE",
"712 896 OFFCURVE",
"706 882 CURVE SMOOTH",
"668 802 LINE",
"661 879 OFFCURVE",
"635 936 OFFCURVE",
"578 936 CURVE SMOOTH",
"419 936 OFFCURVE",
"253 600 OFFCURVE",
"253 355 CURVE SMOOTH",
"253 218 OFFCURVE",
"307 137 OFFCURVE",
"383 137 CURVE SMOOTH",
"454 137 OFFCURVE",
"515 205 OFFCURVE",
"565 305 CURVE",
"571 211 OFFCURVE",
"612 143 OFFCURVE",
"689 143 CURVE SMOOTH",
"875 143 OFFCURVE",
"996 421 OFFCURVE",
"996 734 CURVE SMOOTH",
"996 1038 OFFCURVE",
"860 1262 OFFCURVE",
"631 1262 CURVE SMOOTH"
);
},
{
closed = 1;
nodes = (
"592 752 OFFCURVE",
"605 726 OFFCURVE",
"605 679 CURVE SMOOTH",
"605 544 OFFCURVE",
"502 329 OFFCURVE",
"444 329 CURVE SMOOTH",
"418 329 OFFCURVE",
"400 356 OFFCURVE",
"400 407 CURVE SMOOTH",
"400 540 OFFCURVE",
"500 752 OFFCURVE",
"563 752 CURVE SMOOTH"
);
}
);
width = 1006;
},
{
layerId = "38D47A70-C265-4203-8B70-C23C50FC2DCC";
paths = (
{
closed = 1;
nodes = (
"283 1262 OFFCURVE",
"32 782 OFFCURVE",
"32 316 CURVE SMOOTH",
"32 11 OFFCURVE",
"163 -179 OFFCURVE",
"390 -179 CURVE SMOOTH",
"480 -179 OFFCURVE",
"569 -154 OFFCURVE",
"631 -118 CURVE SMOOTH",
"648 -108 OFFCURVE",
"654 -82 OFFCURVE",
"648 -41 CURVE SMOOTH",
"644 1 OFFCURVE",
"631 16 OFFCURVE",
"611 8 CURVE SMOOTH",
"554 -16 OFFCURVE",
"475 -35 OFFCURVE",
"397 -35 CURVE SMOOTH",
"222 -35 OFFCURVE",
"132 103 OFFCURVE",
"132 330 CURVE SMOOTH",
"132 692 OFFCURVE",
"334 1118 OFFCURVE",
"617 1118 CURVE SMOOTH",
"788 1118 OFFCURVE",
"886 976 OFFCURVE",
"886 742 CURVE SMOOTH",
"886 565 OFFCURVE",
"829 308 OFFCURVE",
"708 308 CURVE SMOOTH",
"675 308 OFFCURVE",
"658 337 OFFCURVE",
"658 383 CURVE SMOOTH",
"658 410 OFFCURVE",
"664 441 OFFCURVE",
"673 473 CURVE SMOOTH",
"779 826 LINE SMOOTH",
"785 850 OFFCURVE",
"775 868 OFFCURVE",
"754 880 CURVE SMOOTH",
"730 894 OFFCURVE",
"712 891 OFFCURVE",
"705 875 CURVE SMOOTH",
"671 802 LINE",
"659 871 OFFCURVE",
"632 919 OFFCURVE",
"580 919 CURVE SMOOTH",
"421 919 OFFCURVE",
"254 576 OFFCURVE",
"254 355 CURVE SMOOTH",
"254 226 OFFCURVE",
"309 154 OFFCURVE",
"378 154 CURVE SMOOTH",
"448 154 OFFCURVE",
"507 215 OFFCURVE",
"566 312 CURVE",
"580 215 OFFCURVE",
"624 160 OFFCURVE",
"694 160 CURVE SMOOTH",
"874 160 OFFCURVE",
"984 455 OFFCURVE",
"984 750 CURVE SMOOTH",
"984 1052 OFFCURVE",
"852 1262 OFFCURVE",
"631 1262 CURVE SMOOTH"
);
},
{
closed = 1;
nodes = (
"591 770 OFFCURVE",
"609 742 OFFCURVE",
"609 690 CURVE SMOOTH",
"609 578 OFFCURVE",
"514 311 OFFCURVE",
"410 311 CURVE SMOOTH",
"384 311 OFFCURVE",
"367 332 OFFCURVE",
"367 383 CURVE SMOOTH",
"367 536 OFFCURVE",
"486 770 OFFCURVE",
"558 770 CURVE SMOOTH"
);
}
);
width = 1006;
}
);
unicode = 0040;
},
{
glyphname = A;
lastChange = "2026-02-27 13:18:40 +0000";
layers = (
{
layerId = UUID0;
paths = (
{
closed = 1;
nodes = (
"296 1389 LINE SMOOTH",
"260 1389 OFFCURVE",
"242 1369 OFFCURVE",
"231 1270 CURVE SMOOTH",
"218 1170 OFFCURVE",
"231 1149 OFFCURVE",
"267 1149 CURVE SMOOTH",
"400 1149 LINE",
"81 240 LINE",
"15 240 LINE SMOOTH",
"-21 240 OFFCURVE",
"-39 220 OFFCURVE",
"-50 121 CURVE SMOOTH",
"-62 21 OFFCURVE",
"-50 0 OFFCURVE",
"-14 0 CURVE SMOOTH",
"317 0 LINE SMOOTH",
"353 0 OFFCURVE",
"371 21 OFFCURVE",
"384 121 CURVE SMOOTH",
"396 220 OFFCURVE",
"384 240 OFFCURVE",
"346 240 CURVE SMOOTH",
"289 240 LINE",
"346 410 LINE",
"645 410 LINE",
"661 240 LINE",
"587 240 LINE SMOOTH",
"550 240 OFFCURVE",
"534 220 OFFCURVE",
"521 121 CURVE SMOOTH",
"509 21 OFFCURVE",
"521 0 OFFCURVE",
"558 0 CURVE SMOOTH",
"906 0 LINE SMOOTH",
"942 0 OFFCURVE",
"960 21 OFFCURVE",
"971 121 CURVE SMOOTH",
"984 220 OFFCURVE",
"971 240 OFFCURVE",
"935 240 CURVE SMOOTH",
"860 240 LINE",
"755 1313 LINE SMOOTH",
"749 1367 OFFCURVE",
"726 1389 OFFCURVE",
"681 1389 CURVE SMOOTH"
);
},
{
closed = 1;
nodes = (
"627 650 LINE",
"424 650 LINE",
"586 1149 LINE",
"591 1149 LINE"
);
}
);
width = 1006;
},
{
layerId = "38D47A70-C265-4203-8B70-C23C50FC2DCC";
paths = (
{
closed = 1;
nodes = (
"337 1389 LINE SMOOTH",
"301 1389 OFFCURVE",
"283 1368 OFFCURVE",
"276 1310 CURVE SMOOTH",
"269 1251 OFFCURVE",
"281 1230 OFFCURVE",
"318 1230 CURVE SMOOTH",
"468 1230 LINE",
"64 159 LINE",
"21 159 LINE SMOOTH",
"-15 159 OFFCURVE",
"-33 138 OFFCURVE",
"-40 80 CURVE SMOOTH",
"-47 21 OFFCURVE",
"-34 0 OFFCURVE",
"2 0 CURVE SMOOTH",
"276 0 LINE SMOOTH",
"312 0 OFFCURVE",
"330 21 OFFCURVE",
"337 80 CURVE SMOOTH",
"344 138 OFFCURVE",
"332 159 OFFCURVE",
"295 159 CURVE SMOOTH",
"200 159 LINE",
"302 438 LINE",
"700 438 LINE",
"733 159 LINE",
"618 159 LINE SMOOTH",
"580 159 OFFCURVE",
"564 138 OFFCURVE",
"556 80 CURVE SMOOTH",
"550 21 OFFCURVE",
"562 0 OFFCURVE",
"599 0 CURVE SMOOTH",
"889 0 LINE SMOOTH",
"926 0 OFFCURVE",
"943 21 OFFCURVE",
"949 80 CURVE SMOOTH",
"957 138 OFFCURVE",
"944 159 OFFCURVE",
"908 159 CURVE SMOOTH",
"855 159 LINE",
"709 1313 LINE SMOOTH",
"702 1367 OFFCURVE",
"679 1389 OFFCURVE",
"635 1389 CURVE SMOOTH"
);
},
{
closed = 1;
nodes = (
"681 597 LINE",
"360 597 LINE",
"592 1230 LINE",
"607 1230 LINE"
);
}
);
width = 1006;
}
);
unicode = 0041;
},
{
glyphname = B;
lastChange = "2026-02-27 13:18:40 +0000";
layers = (
{
layerId = UUID0;
paths = (
{
closed = 1;
nodes = (
"222 1389 LINE SMOOTH",
"186 1389 OFFCURVE",
"169 1368 OFFCURVE",
"157 1269 CURVE SMOOTH",
"144 1169 OFFCURVE",
"157 1149 OFFCURVE",
"193 1149 CURVE SMOOTH",
"281 1149 LINE",
"169 240 LINE",
"81 240 LINE SMOOTH",
"44 240 OFFCURVE",
"26 219 OFFCURVE",
"14 119 CURVE SMOOTH",
"1 20 OFFCURVE",
"15 0 OFFCURVE",
"51 0 CURVE SMOOTH",
"524 0 LINE SMOOTH",
"803 0 OFFCURVE",
"927 198 OFFCURVE",
"927 449 CURVE SMOOTH",
"927 598 OFFCURVE",
"870 692 OFFCURVE",
"778 731 CURVE",
"882 795 OFFCURVE",
"941 909 OFFCURVE",
"941 1057 CURVE SMOOTH",
"941 1257 OFFCURVE",
"843 1389 OFFCURVE",
"633 1389 CURVE SMOOTH"
);
},
{
closed = 1;
nodes = (
"668 584 OFFCURVE",
"714 542 OFFCURVE",
"714 440 CURVE SMOOTH",
"714 341 OFFCURVE",
"668 252 OFFCURVE",
"532 252 CURVE SMOOTH",
"376 252 LINE",
"415 584 LINE",
"572 584 LINE SMOOTH"
);
},
{
closed = 1;
nodes = (
"689 1138 OFFCURVE",
"730 1104 OFFCURVE",
"730 1012 CURVE SMOOTH",
"730 913 OFFCURVE",
"685 836 OFFCURVE",
"564 836 CURVE SMOOTH",
"447 836 LINE",
"484 1138 LINE",
"600 1138 LINE SMOOTH"
);
}
);
width = 1006;
},
{
layerId = "38D47A70-C265-4203-8B70-C23C50FC2DCC";
paths = (
{
closed = 1;
nodes = (
"231 1389 LINE SMOOTH",
"194 1389 OFFCURVE",
"177 1368 OFFCURVE",
"170 1310 CURVE SMOOTH",
"163 1251 OFFCURVE",
"174 1230 OFFCURVE",
"212 1230 CURVE SMOOTH",
"311 1230 LINE",
"179 159 LINE",
"78 159 LINE SMOOTH",
"42 159 OFFCURVE",
"25 138 OFFCURVE",
"18 80 CURVE SMOOTH",
"11 21 OFFCURVE",
"23 0 OFFCURVE",
"60 0 CURVE SMOOTH",
"532 0 LINE SMOOTH",
"763 0 OFFCURVE",
"889 197 OFFCURVE",
"889 445 CURVE SMOOTH",
"889 591 OFFCURVE",
"836 690 OFFCURVE",
"747 735 CURVE",
"834 802 OFFCURVE",
"896 910 OFFCURVE",
"896 1063 CURVE SMOOTH",
"896 1259 OFFCURVE",
"807 1389 OFFCURVE",
"633 1389 CURVE SMOOTH"
);
},
{
closed = 1;
nodes = (
"702 638 OFFCURVE",
"761 576 OFFCURVE",
"761 442 CURVE SMOOTH",
"761 269 OFFCURVE",
"673 159 OFFCURVE",
"518 159 CURVE SMOOTH",
"302 159 LINE",
"362 638 LINE",
"583 638 LINE SMOOTH"
);
},
{
closed = 1;
nodes = (
"717 1230 OFFCURVE",
"771 1171 OFFCURVE",
"771 1050 CURVE SMOOTH",
"771 903 OFFCURVE",
"694 797 OFFCURVE",
"550 797 CURVE SMOOTH",
"382 797 LINE",
"434 1230 LINE",
"612 1230 LINE SMOOTH"
);
}
);
width = 1006;
}
);
unicode = 0042;
},
{
glyphname = C;
lastChange = "2026-02-27 13:18:40 +0000";
layers = (
{
layerId = UUID0;
paths = (
{
closed = 1;
nodes = (
"872 1415 OFFCURVE",
"840 1394 OFFCURVE",
"832 1341 CURVE SMOOTH",
"822 1262 LINE",
"791 1352 OFFCURVE",
"722 1415 OFFCURVE",
"620 1415 CURVE SMOOTH",
"280 1415 OFFCURVE",
"105 958 OFFCURVE",
"105 551 CURVE SMOOTH",
"105 200 OFFCURVE",
"256 -26 OFFCURVE",
"492 -26 CURVE SMOOTH",
"607 -26 OFFCURVE",
"733 18 OFFCURVE",
"857 98 CURVE SMOOTH",
"894 123 OFFCURVE",
"906 170 OFFCURVE",
"886 263 CURVE SMOOTH",
"868 353 OFFCURVE",
"840 377 OFFCURVE",
"804 353 CURVE SMOOTH",
"701 284 OFFCURVE",
"617 240 OFFCURVE",
"516 240 CURVE SMOOTH",
"390 240 OFFCURVE",
"323 353 OFFCURVE",
"323 556 CURVE SMOOTH",
"323 775 OFFCURVE",
"390 1149 OFFCURVE",
"620 1149 CURVE SMOOTH",
"734 1149 OFFCURVE",
"779 1043 OFFCURVE",
"761 892 CURVE SMOOTH",
"754 839 OFFCURVE",
"770 818 OFFCURVE",
"848 818 CURVE SMOOTH",
"926 818 OFFCURVE",
"958 839 OFFCURVE",
"965 892 CURVE SMOOTH",
"1020 1341 LINE SMOOTH",
"1028 1394 OFFCURVE",
"1011 1415 OFFCURVE",
"941 1415 CURVE SMOOTH"
);
}
);
width = 1006;
},
{
layerId = "38D47A70-C265-4203-8B70-C23C50FC2DCC";
paths = (
{
closed = 1;
nodes = (
"889 1415 OFFCURVE",
"871 1393 OFFCURVE",
"865 1339 CURVE SMOOTH",
"855 1264 LINE",
"813 1356 OFFCURVE",
"740 1415 OFFCURVE",
"632 1415 CURVE SMOOTH",
"317 1415 OFFCURVE",
"115 983 OFFCURVE",
"115 530 CURVE SMOOTH",
"115 194 OFFCURVE",
"250 -26 OFFCURVE",
"472 -26 CURVE SMOOTH",
"597 -26 OFFCURVE",
"722 26 OFFCURVE",
"838 124 CURVE SMOOTH",
"871 152 OFFCURVE",
"875 188 OFFCURVE",
"857 242 CURVE SMOOTH",
"837 297 OFFCURVE",
"807 307 OFFCURVE",
"783 283 CURVE SMOOTH",
"694 199 OFFCURVE",
"589 147 OFFCURVE",
"480 147 CURVE SMOOTH",
"331 147 OFFCURVE",
"245 294 OFFCURVE",
"245 540 CURVE SMOOTH",
"245 884 OFFCURVE",
"386 1242 OFFCURVE",
"624 1242 CURVE SMOOTH",
"782 1242 OFFCURVE",
"836 1106 OFFCURVE",
"817 953 CURVE SMOOTH",
"810 899 OFFCURVE",
"824 877 OFFCURVE",
"870 877 CURVE SMOOTH",
"915 877 OFFCURVE",
"933 899 OFFCURVE",
"940 953 CURVE SMOOTH",
"988 1339 LINE SMOOTH",
"994 1393 OFFCURVE",
"982 1415 OFFCURVE",
"935 1415 CURVE SMOOTH"
);
}
);
width = 1006;
}
);
unicode = 0043;
},
{
glyphname = D;
lastChange = "2026-02-27 13:18:40 +0000";
layers = (
{
layerId = UUID0;
paths = (
{
closed = 1;
nodes = (
"214 1389 LINE SMOOTH",
"178 1389 OFFCURVE",
"160 1368 OFFCURVE",
"149 1269 CURVE SMOOTH",
"136 1169 OFFCURVE",
"149 1149 OFFCURVE",
"185 1149 CURVE SMOOTH",
"264 1149 LINE",
"152 240 LINE",
"73 240 LINE SMOOTH",
"36 240 OFFCURVE",
"18 219 OFFCURVE",
"6 119 CURVE SMOOTH",
"-7 20 OFFCURVE",
"7 0 OFFCURVE",
"43 0 CURVE SMOOTH",
"446 0 LINE SMOOTH",
"885 0 OFFCURVE",
"982 537 OFFCURVE",
"982 840 CURVE SMOOTH",
"982 1184 OFFCURVE",
"832 1389 OFFCURVE",
"584 1389 CURVE SMOOTH"
);
},
{
closed = 1;
nodes = (
"693 1138 OFFCURVE",
"763 1033 OFFCURVE",
"763 833 CURVE SMOOTH",
"763 578 OFFCURVE",
"685 252 OFFCURVE",
"444 252 CURVE SMOOTH",
"359 252 LINE",
"468 1138 LINE",
"554 1138 LINE SMOOTH"
);
}
);
width = 1006;
},
{
layerId = "38D47A70-C265-4203-8B70-C23C50FC2DCC";
paths = (
{
closed = 1;
nodes = (
"231 1389 LINE SMOOTH",
"194 1389 OFFCURVE",
"177 1368 OFFCURVE",
"170 1310 CURVE SMOOTH",
"163 1251 OFFCURVE",
"174 1230 OFFCURVE",
"212 1230 CURVE SMOOTH",
"303 1230 LINE",
"171 159 LINE",
"78 159 LINE SMOOTH",
"42 159 OFFCURVE",
"25 138 OFFCURVE",
"18 80 CURVE SMOOTH",
"11 21 OFFCURVE",
"23 0 OFFCURVE",
"60 0 CURVE SMOOTH",
"458 0 LINE SMOOTH",
"840 0 OFFCURVE",
"971 523 OFFCURVE",
"971 847 CURVE SMOOTH",
"971 1183 OFFCURVE",
"829 1389 OFFCURVE",
"605 1389 CURVE SMOOTH"
);
},
{
closed = 1;
nodes = (
"743 1230 OFFCURVE",
"843 1095 OFFCURVE",
"843 841 CURVE SMOOTH",
"843 570 OFFCURVE",
"741 159 OFFCURVE",
"446 159 CURVE SMOOTH",
"294 159 LINE",
"426 1230 LINE",
"578 1230 LINE SMOOTH"
);
}
);
width = 1006;
}
);
unicode = 0044;
},
{
glyphname = E;
lastChange = "2026-02-27 13:18:40 +0000";
layers = (
{
layerId = UUID0;
paths = (
{
closed = 1;
nodes = (
"214 1389 LINE SMOOTH",
"178 1389 OFFCURVE",
"160 1368 OFFCURVE",
"149 1269 CURVE SMOOTH",
"136 1169 OFFCURVE",
"149 1149 OFFCURVE",
"185 1149 CURVE SMOOTH",
"264 1149 LINE",
"152 240 LINE",
"73 240 LINE SMOOTH",
"36 240 OFFCURVE",
"18 219 OFFCURVE",
"6 119 CURVE SMOOTH",
"-7 20 OFFCURVE",
"7 0 OFFCURVE",
"43 0 CURVE SMOOTH",
"807 0 LINE SMOOTH",
"845 0 OFFCURVE",
"863 22 OFFCURVE",
"870 76 CURVE SMOOTH",
"920 488 LINE SMOOTH",
"927 541 OFFCURVE",
"909 562 OFFCURVE",
"836 562 CURVE SMOOTH",
"762 562 OFFCURVE",
"730 541 OFFCURVE",
"723 488 CURVE SMOOTH",
"694 252 LINE",
"358 252 LINE",
"400 590 LINE",
"599 590 LINE SMOOTH",
"637 590 OFFCURVE",
"654 616 OFFCURVE",
"667 715 CURVE SMOOTH",
"679 815 OFFCURVE",
"668 841 OFFCURVE",
"631 841 CURVE SMOOTH",
"431 841 LINE",
"468 1138 LINE",
"796 1138 LINE",
"774 960 LINE SMOOTH",
"767 907 OFFCURVE",
"783 886 OFFCURVE",
"853 886 CURVE SMOOTH",
"922 886 OFFCURVE",
"955 907 OFFCURVE",
"962 960 CURVE SMOOTH",
"1005 1313 LINE SMOOTH",
"1012 1367 OFFCURVE",
"999 1389 OFFCURVE",
"962 1389 CURVE SMOOTH"
);
},
{
closed = 1;
nodes = (
"523 838 OFFCURVE",
"499 816 OFFCURVE",
"492 762 CURVE SMOOTH",
"480 671 LINE SMOOTH",
"474 617 OFFCURVE",
"494 595 OFFCURVE",
"557 595 CURVE SMOOTH",
"620 595 OFFCURVE",
"646 617 OFFCURVE",
"652 671 CURVE SMOOTH",
"664 762 LINE SMOOTH",
"671 816 OFFCURVE",
"650 838 OFFCURVE",
"586 838 CURVE SMOOTH"
);
}
);
width = 1006;
},
{
layerId = "38D47A70-C265-4203-8B70-C23C50FC2DCC";
paths = (
{
closed = 1;
nodes = (
"231 1389 LINE SMOOTH",
"194 1389 OFFCURVE",
"177 1368 OFFCURVE",
"170 1310 CURVE SMOOTH",
"163 1251 OFFCURVE",
"174 1230 OFFCURVE",
"212 1230 CURVE SMOOTH",
"295 1230 LINE",
"163 159 LINE",
"78 159 LINE SMOOTH",
"42 159 OFFCURVE",
"25 138 OFFCURVE",
"18 80 CURVE SMOOTH",
"11 21 OFFCURVE",
"23 0 OFFCURVE",
"60 0 CURVE SMOOTH",
"792 0 LINE SMOOTH",
"829 0 OFFCURVE",
"846 21 OFFCURVE",
"853 80 CURVE SMOOTH",
"896 427 LINE SMOOTH",
"902 481 OFFCURVE",
"889 503 OFFCURVE",
"844 503 CURVE SMOOTH",
"798 503 OFFCURVE",
"779 481 OFFCURVE",
"774 427 CURVE SMOOTH",
"740 159 LINE",
"286 159 LINE",
"344 637 LINE",
"591 637 LINE SMOOTH",
"628 637 OFFCURVE",
"646 658 OFFCURVE",
"653 716 CURVE SMOOTH",
"660 775 OFFCURVE",
"648 796 OFFCURVE",
"611 796 CURVE SMOOTH",
"364 796 LINE",
"418 1230 LINE",
"857 1230 LINE",
"829 1012 LINE SMOOTH",
"823 958 OFFCURVE",
"836 936 OFFCURVE",
"881 936 CURVE SMOOTH",
"927 936 OFFCURVE",
"946 958 OFFCURVE",
"951 1012 CURVE SMOOTH",
"989 1310 LINE SMOOTH",
"996 1368 OFFCURVE",
"984 1389 OFFCURVE",
"947 1389 CURVE SMOOTH"
);
},
{
closed = 1;
nodes = (
"607 978 OFFCURVE",
"589 956 OFFCURVE",
"582 902 CURVE SMOOTH",
"536 530 LINE SMOOTH",
"529 476 OFFCURVE",
"542 454 OFFCURVE",
"589 454 CURVE SMOOTH",
"634 454 OFFCURVE",
"652 476 OFFCURVE",
"659 530 CURVE SMOOTH",
"705 902 LINE SMOOTH",
"712 956 OFFCURVE",
"699 978 OFFCURVE",
"653 978 CURVE SMOOTH"
);
}
);
width = 1006;
}
);
unicode = 0045;
},
{
glyphname = F;
lastChange = "2026-02-27 13:18:40 +0000";
layers = (
{
layerId = UUID0;
paths = (
{
closed = 1;
nodes = (
"214 1389 LINE SMOOTH",
"178 1389 OFFCURVE",
"160 1368 OFFCURVE",
"149 1269 CURVE SMOOTH",
"136 1169 OFFCURVE",
"149 1149 OFFCURVE",
"185 1149 CURVE SMOOTH",
"289 1149 LINE",
"177 240 LINE",
"73 240 LINE SMOOTH",
"36 240 OFFCURVE",
"18 219 OFFCURVE",
"6 119 CURVE SMOOTH",
"-7 20 OFFCURVE",
"7 0 OFFCURVE",
"43 0 CURVE SMOOTH",
"530 0 LINE SMOOTH",
"566 0 OFFCURVE",
"583 20 OFFCURVE",
"596 119 CURVE SMOOTH",
"607 219 OFFCURVE",
"597 240 OFFCURVE",
"559 240 CURVE SMOOTH",
"382 240 LINE",
"417 529 LINE",
"666 529 LINE SMOOTH",
"703 529 OFFCURVE",
"721 555 OFFCURVE",
"734 654 CURVE SMOOTH",
"745 754 OFFCURVE",
"734 781 OFFCURVE",
"697 781 CURVE SMOOTH",
"448 781 LINE",
"493 1138 LINE",
"812 1138 LINE",
"790 960 LINE SMOOTH",
"783 907 OFFCURVE",
"799 886 OFFCURVE",
"870 886 CURVE SMOOTH",
"939 886 OFFCURVE",
"971 907 OFFCURVE",
"978 960 CURVE SMOOTH",
"1022 1313 LINE SMOOTH",
"1029 1367 OFFCURVE",
"1016 1389 OFFCURVE",
"978 1389 CURVE SMOOTH"
);
},
{
closed = 1;
nodes = (
"590 777 OFFCURVE",
"564 755 OFFCURVE",
"558 701 CURVE SMOOTH",
"547 610 LINE SMOOTH",
"540 556 OFFCURVE",
"561 534 OFFCURVE",
"624 534 CURVE SMOOTH",
"687 534 OFFCURVE",
"712 556 OFFCURVE",
"719 610 CURVE SMOOTH",
"730 701 LINE SMOOTH",
"736 755 OFFCURVE",
"716 777 OFFCURVE",
"653 777 CURVE SMOOTH"
);
}
);
width = 1006;
},
{
layerId = "38D47A70-C265-4203-8B70-C23C50FC2DCC";
paths = (
{
closed = 1;
nodes = (
"231 1389 LINE SMOOTH",
"194 1389 OFFCURVE",
"177 1368 OFFCURVE",
"170 1310 CURVE SMOOTH",
"163 1251 OFFCURVE",
"174 1230 OFFCURVE",
"212 1230 CURVE SMOOTH",
"319 1230 LINE",
"187 159 LINE",
"78 159 LINE SMOOTH",
"42 159 OFFCURVE",
"25 138 OFFCURVE",
"18 80 CURVE SMOOTH",
"11 21 OFFCURVE",
"23 0 OFFCURVE",
"60 0 CURVE SMOOTH",
"481 0 LINE SMOOTH",
"517 0 OFFCURVE",
"535 21 OFFCURVE",
"542 80 CURVE SMOOTH",
"549 138 OFFCURVE",
"537 159 OFFCURVE",
"500 159 CURVE SMOOTH",
"310 159 LINE",
"366 613 LINE",
"613 613 LINE SMOOTH",
"651 613 OFFCURVE",
"668 634 OFFCURVE",
"675 693 CURVE SMOOTH",
"682 751 OFFCURVE",
"671 772 OFFCURVE",
"633 772 CURVE SMOOTH",
"386 772 LINE",
"442 1230 LINE",
"881 1230 LINE",
"852 1001 LINE SMOOTH",
"845 947 OFFCURVE",
"859 925 OFFCURVE",
"905 925 CURVE SMOOTH",
"950 925 OFFCURVE",
"968 947 OFFCURVE",
"975 1001 CURVE SMOOTH",
"1013 1310 LINE SMOOTH",
"1020 1368 OFFCURVE",
"1009 1389 OFFCURVE",
"971 1389 CURVE SMOOTH"
);
},
{
closed = 1;
nodes = (
"630 955 OFFCURVE",
"611 933 OFFCURVE",
"604 879 CURVE SMOOTH",
"558 507 LINE SMOOTH",
"551 453 OFFCURVE",
"564 431 OFFCURVE",
"611 431 CURVE SMOOTH",
"657 431 OFFCURVE",
"674 453 OFFCURVE",
"681 507 CURVE SMOOTH",
"727 879 LINE SMOOTH",
"734 933 OFFCURVE",
"721 955 OFFCURVE",
"675 955 CURVE SMOOTH"
);
}
);
width = 1006;
}
);
unicode = 0046;
},
{
glyphname = G;
lastChange = "2026-02-27 13:18:40 +0000";
layers = (
{
layerId = UUID0;
paths = (
{
closed = 1;
nodes = (
"847 1415 OFFCURVE",
"815 1394 OFFCURVE",
"807 1341 CURVE SMOOTH",
"799 1271 LINE",
"767 1356 OFFCURVE",
"697 1415 OFFCURVE",
"596 1415 CURVE SMOOTH",
"255 1415 OFFCURVE",
"81 958 OFFCURVE",
"81 551 CURVE SMOOTH",
"81 200 OFFCURVE",
"232 -26 OFFCURVE",
"467 -26 CURVE SMOOTH",
"595 -26 OFFCURVE",
"712 6 OFFCURVE",
"818 75 CURVE SMOOTH",
"839 88 OFFCURVE",
"853 118 OFFCURVE",
"858 156 CURVE SMOOTH",
"896 470 LINE",
"922 470 LINE SMOOTH",
"958 470 OFFCURVE",
"976 490 OFFCURVE",
"988 590 CURVE SMOOTH",
"1001 689 OFFCURVE",
"989 710 OFFCURVE",
"951 710 CURVE SMOOTH",
"564 710 LINE SMOOTH",
"527 710 OFFCURVE",
"509 689 OFFCURVE",
"496 590 CURVE SMOOTH",
"484 490 OFFCURVE",
"496 470 OFFCURVE",
"534 470 CURVE SMOOTH",
"692 470 LINE",
"668 275 LINE",
"611 252 OFFCURVE",
"551 240 OFFCURVE",
"492 240 CURVE SMOOTH",
"365 240 OFFCURVE",
"298 353 OFFCURVE",
"298 556 CURVE SMOOTH",
"298 775 OFFCURVE",
"365 1149 OFFCURVE",
"596 1149 CURVE SMOOTH",
"714 1149 OFFCURVE",
"758 1070 OFFCURVE",
"742 939 CURVE SMOOTH",
"735 886 OFFCURVE",
"751 865 OFFCURVE",
"829 865 CURVE SMOOTH",
"907 865 OFFCURVE",
"940 886 OFFCURVE",
"947 939 CURVE SMOOTH",
"996 1341 LINE SMOOTH",
"1003 1394 OFFCURVE",
"987 1415 OFFCURVE",
"916 1415 CURVE SMOOTH"
);
}
);
width = 1006;
},
{
layerId = "38D47A70-C265-4203-8B70-C23C50FC2DCC";
paths = (
{
closed = 1;
nodes = (
"880 1415 OFFCURVE",
"861 1393 OFFCURVE",
"854 1339 CURVE SMOOTH",
"847 1276 LINE",
"804 1360 OFFCURVE",
"731 1415 OFFCURVE",
"624 1415 CURVE SMOOTH",
"310 1415 OFFCURVE",
"99 989 OFFCURVE",
"99 538 CURVE SMOOTH",
"99 198 OFFCURVE",
"240 -26 OFFCURVE",
"463 -26 CURVE SMOOTH",
"586 -26 OFFCURVE",
"702 7 OFFCURVE",
"802 76 CURVE SMOOTH",
"822 90 OFFCURVE",
"836 119 OFFCURVE",
"840 157 CURVE SMOOTH",
"881 480 LINE",
"907 480 LINE SMOOTH",
"943 480 OFFCURVE",
"961 501 OFFCURVE",
"968 559 CURVE SMOOTH",
"976 618 OFFCURVE",
"963 639 OFFCURVE",
"927 639 CURVE SMOOTH",
"575 639 LINE SMOOTH",
"538 639 OFFCURVE",
"521 618 OFFCURVE",
"514 559 CURVE SMOOTH",
"507 501 OFFCURVE",
"518 480 OFFCURVE",
"556 480 CURVE SMOOTH",
"758 480 LINE",
"726 214 LINE",
"648 167 OFFCURVE",
"564 147 OFFCURVE",
"472 147 CURVE SMOOTH",
"318 147 OFFCURVE",
"228 296 OFFCURVE",
"228 544 CURVE SMOOTH",
"228 871 OFFCURVE",
"365 1242 OFFCURVE",
"616 1242 CURVE SMOOTH",
"762 1242 OFFCURVE",
"830 1140 OFFCURVE",
"812 999 CURVE SMOOTH",
"806 946 OFFCURVE",
"819 923 OFFCURVE",
"865 923 CURVE SMOOTH",
"910 923 OFFCURVE",
"929 946 OFFCURVE",
"935 999 CURVE SMOOTH",
"977 1339 LINE SMOOTH",
"984 1393 OFFCURVE",
"971 1415 OFFCURVE",
"926 1415 CURVE SMOOTH"
);
}
);
width = 1006;
}
);
unicode = 0047;
},
{
glyphname = H;
lastChange = "2026-02-27 13:18:40 +0000";
layers = (
{
layerId = UUID0;
paths = (
{
closed = 1;
nodes = (
"721 1389 LINE SMOOTH",
"685 1389 OFFCURVE",
"667 1368 OFFCURVE",
"654 1269 CURVE SMOOTH",
"642 1169 OFFCURVE",
"654 1149 OFFCURVE",
"692 1149 CURVE SMOOTH",
"747 1149 LINE",
"708 841 LINE",
"390 841 LINE",
"428 1149 LINE",
"483 1149 LINE SMOOTH",
"521 1149 OFFCURVE",
"537 1169 OFFCURVE",
"550 1269 CURVE SMOOTH",
"562 1368 OFFCURVE",
"550 1389 OFFCURVE",
"513 1389 CURVE SMOOTH",
"206 1389 LINE SMOOTH",
"170 1389 OFFCURVE",
"152 1368 OFFCURVE",
"140 1269 CURVE SMOOTH",
"128 1169 OFFCURVE",
"140 1149 OFFCURVE",
"177 1149 CURVE SMOOTH",
"224 1149 LINE",
"111 240 LINE",
"64 240 LINE SMOOTH",
"28 240 OFFCURVE",
"9 219 OFFCURVE",
"-2 119 CURVE SMOOTH",
"-15 20 OFFCURVE",
"-1 0 OFFCURVE",
"35 0 CURVE SMOOTH",
"342 0 LINE SMOOTH",
"378 0 OFFCURVE",
"394 20 OFFCURVE",
"407 119 CURVE SMOOTH",
"419 219 OFFCURVE",
"408 240 OFFCURVE",
"371 240 CURVE SMOOTH",
"316 240 LINE",
"359 590 LINE",
"676 590 LINE",
"634 240 LINE",
"579 240 LINE SMOOTH",
"542 240 OFFCURVE",
"524 219 OFFCURVE",
"513 119 CURVE SMOOTH",
"500 20 OFFCURVE",
"513 0 OFFCURVE",
"550 0 CURVE SMOOTH",
"857 0 LINE SMOOTH",
"893 0 OFFCURVE",
"909 20 OFFCURVE",
"922 119 CURVE SMOOTH",
"934 219 OFFCURVE",
"922 240 OFFCURVE",
"886 240 CURVE SMOOTH",
"839 240 LINE",
"951 1149 LINE",
"998 1149 LINE SMOOTH",
"1035 1149 OFFCURVE",
"1052 1169 OFFCURVE",
"1064 1269 CURVE SMOOTH",
"1077 1368 OFFCURVE",
"1064 1389 OFFCURVE",
"1028 1389 CURVE SMOOTH"
);
}
);
width = 1006;
},
{
layerId = "38D47A70-C265-4203-8B70-C23C50FC2DCC";
paths = (
{
closed = 1;
nodes = (
"745 1389 LINE SMOOTH",
"709 1389 OFFCURVE",
"692 1368 OFFCURVE",
"685 1310 CURVE SMOOTH",
"676 1251 OFFCURVE",
"689 1230 OFFCURVE",
"726 1230 CURVE SMOOTH",
"802 1230 LINE",
"747 796 LINE",
"339 796 LINE",
"393 1230 LINE",
"468 1230 LINE SMOOTH",
"506 1230 OFFCURVE",
"523 1251 OFFCURVE",
"530 1310 CURVE SMOOTH",
"537 1368 OFFCURVE",
"525 1389 OFFCURVE",
"488 1389 CURVE SMOOTH",
"231 1389 LINE SMOOTH",
"194 1389 OFFCURVE",
"177 1368 OFFCURVE",
"170 1310 CURVE SMOOTH",
"163 1251 OFFCURVE",
"174 1230 OFFCURVE",
"212 1230 CURVE SMOOTH",
"270 1230 LINE",
"138 159 LINE",
"78 159 LINE SMOOTH",
"42 159 OFFCURVE",
"25 138 OFFCURVE",
"18 80 CURVE SMOOTH",
"11 21 OFFCURVE",
"23 0 OFFCURVE",
"60 0 CURVE SMOOTH",
"317 0 LINE SMOOTH",
"353 0 OFFCURVE",
"371 21 OFFCURVE",
"378 80 CURVE SMOOTH",
"385 138 OFFCURVE",
"373 159 OFFCURVE",
"336 159 CURVE SMOOTH",
"261 159 LINE",
"319 637 LINE",
"728 637 LINE",
"668 159 LINE",
"593 159 LINE SMOOTH",
"556 159 OFFCURVE",
"540 138 OFFCURVE",
"531 80 CURVE SMOOTH",
"525 21 OFFCURVE",
"537 0 OFFCURVE",
"575 0 CURVE SMOOTH",
"832 0 LINE SMOOTH",
"868 0 OFFCURVE",
"886 21 OFFCURVE",
"892 80 CURVE SMOOTH",
"900 138 OFFCURVE",
"887 159 OFFCURVE",
"851 159 CURVE SMOOTH",
"791 159 LINE",
"925 1230 LINE",
"983 1230 LINE SMOOTH",
"1020 1230 OFFCURVE",
"1037 1251 OFFCURVE",
"1045 1310 CURVE SMOOTH",
"1052 1368 OFFCURVE",
"1039 1389 OFFCURVE",
"1003 1389 CURVE SMOOTH"
);
}
);
width = 1006;
}
);
unicode = 0048;
},
{
glyphname = I;
lastChange = "2026-02-27 13:18:40 +0000";
layers = (
{
layerId = UUID0;
paths = (
{
closed = 1;
nodes = (
"304 1389 LINE SMOOTH",
"268 1389 OFFCURVE",
"250 1368 OFFCURVE",
"239 1269 CURVE SMOOTH",
"226 1169 OFFCURVE",
"239 1149 OFFCURVE",
"275 1149 CURVE SMOOTH",
"484 1149 LINE",
"373 240 LINE",
"179 240 LINE SMOOTH",
"143 240 OFFCURVE",
"124 219 OFFCURVE",
"112 119 CURVE SMOOTH",
"99 20 OFFCURVE",
"114 0 OFFCURVE",
"150 0 CURVE SMOOTH",
"758 0 LINE SMOOTH",
"795 0 OFFCURVE",
"811 20 OFFCURVE",
"824 119 CURVE SMOOTH",
"836 219 OFFCURVE",
"824 240 OFFCURVE",
"788 240 CURVE SMOOTH",
"578 240 LINE",
"689 1149 LINE",
"884 1149 LINE SMOOTH",
"920 1149 OFFCURVE",
"937 1169 OFFCURVE",
"949 1269 CURVE SMOOTH",
"962 1368 OFFCURVE",
"949 1389 OFFCURVE",
"913 1389 CURVE SMOOTH"
);
}
);
width = 1006;
},
{
layerId = "38D47A70-C265-4203-8B70-C23C50FC2DCC";
paths = (
{
closed = 1;
nodes = (
"337 1389 LINE SMOOTH",
"301 1389 OFFCURVE",
"283 1368 OFFCURVE",
"276 1310 CURVE SMOOTH",
"269 1251 OFFCURVE",
"281 1230 OFFCURVE",
"318 1230 CURVE SMOOTH",
"536 1230 LINE",
"403 159 LINE",
"185 159 LINE SMOOTH",
"149 159 OFFCURVE",
"131 138 OFFCURVE",
"124 80 CURVE SMOOTH",
"117 21 OFFCURVE",
"130 0 OFFCURVE",
"166 0 CURVE SMOOTH",
"742 0 LINE SMOOTH",
"778 0 OFFCURVE",
"796 21 OFFCURVE",
"802 80 CURVE SMOOTH",
"810 138 OFFCURVE",
"797 159 OFFCURVE",
"761 159 CURVE SMOOTH",
"525 159 LINE",
"659 1230 LINE",
"860 1230 LINE SMOOTH",
"898 1230 OFFCURVE",
"914 1251 OFFCURVE",
"922 1310 CURVE SMOOTH",
"929 1368 OFFCURVE",
"916 1389 OFFCURVE",
"880 1389 CURVE SMOOTH"
);
}
);
width = 1006;
}
);
unicode = 0049;
},
{
glyphname = J;
lastChange = "2026-02-27 13:18:40 +0000";
layers = (
{
layerId = UUID0;
paths = (
{
closed = 1;
nodes = (
"411 1389 LINE SMOOTH",
"374 1389 OFFCURVE",
"357 1368 OFFCURVE",
"345 1269 CURVE SMOOTH",
"332 1169 OFFCURVE",
"345 1149 OFFCURVE",
"382 1149 CURVE SMOOTH",
"640 1149 LINE",
"554 448 LINE SMOOTH",
"536 304 OFFCURVE",
"482 240 OFFCURVE",
"394 240 CURVE SMOOTH",
"343 240 OFFCURVE",
"298 255 OFFCURVE",
"263 286 CURVE",
"300 584 LINE SMOOTH",
"307 637 OFFCURVE",
"291 658 OFFCURVE",
"213 658 CURVE SMOOTH",
"136 658 OFFCURVE",
"102 637 OFFCURVE",
"95 584 CURVE SMOOTH",
"50 217 LINE SMOOTH",
"47 190 OFFCURVE",
"48 171 OFFCURVE",
"56 158 CURVE SMOOTH",
"126 43 OFFCURVE",
"241 -26 OFFCURVE",
"369 -26 CURVE SMOOTH",
"596 -26 OFFCURVE",
"717 111 OFFCURVE",
"755 413 CURVE SMOOTH",
"845 1149 LINE",
"990 1149 LINE SMOOTH",
"1026 1149 OFFCURVE",
"1044 1169 OFFCURVE",
"1056 1269 CURVE SMOOTH",
"1068 1368 OFFCURVE",
"1056 1389 OFFCURVE",
"1019 1389 CURVE SMOOTH"
);
}
);
width = 1006;
},
{
layerId = "38D47A70-C265-4203-8B70-C23C50FC2DCC";
paths = (
{
closed = 1;
nodes = (
"444 1389 LINE SMOOTH",
"407 1389 OFFCURVE",
"390 1368 OFFCURVE",
"383 1310 CURVE SMOOTH",
"376 1251 OFFCURVE",
"387 1230 OFFCURVE",
"425 1230 CURVE SMOOTH",
"703 1230 LINE",
"605 425 LINE SMOOTH",
"582 240 OFFCURVE",
"511 147 OFFCURVE",
"366 147 CURVE SMOOTH",
"287 147 OFFCURVE",
"226 178 OFFCURVE",
"188 235 CURVE",
"226 544 LINE SMOOTH",
"234 598 OFFCURVE",
"220 620 OFFCURVE",
"174 620 CURVE SMOOTH",
"129 620 OFFCURVE",
"111 598 OFFCURVE",
"103 544 CURVE SMOOTH",
"63 218 LINE SMOOTH",
"60 191 OFFCURVE",
"62 172 OFFCURVE",
"69 158 CURVE SMOOTH",
"123 54 OFFCURVE",
"227 -26 OFFCURVE",
"357 -26 CURVE SMOOTH",
"570 -26 OFFCURVE",
"689 115 OFFCURVE",
"722 390 CURVE SMOOTH",
"826 1230 LINE",
"991 1230 LINE SMOOTH",
"1029 1230 OFFCURVE",
"1045 1251 OFFCURVE",
"1053 1310 CURVE SMOOTH",
"1060 1368 OFFCURVE",
"1047 1389 OFFCURVE",
"1011 1389 CURVE SMOOTH"
);
}
);
width = 1006;
}
);
unicode = 004A;
},
{
glyphname = K;
lastChange = "2026-02-27 13:18:40 +0000";
layers = (
{
layerId = UUID0;
paths = (
{
closed = 1;
nodes = (
"721 1389 LINE SMOOTH",
"685 1389 OFFCURVE",
"667 1368 OFFCURVE",
"654 1269 CURVE SMOOTH",
"642 1169 OFFCURVE",
"654 1149 OFFCURVE",
"692 1149 CURVE SMOOTH",
"727 1149 LINE",
"425 786 LINE",
"469 1149 LINE",
"508 1149 LINE SMOOTH",
"545 1149 OFFCURVE",
"562 1169 OFFCURVE",
"575 1269 CURVE SMOOTH",
"586 1368 OFFCURVE",
"575 1389 OFFCURVE",
"537 1389 CURVE SMOOTH",
"206 1389 LINE SMOOTH",
"170 1389 OFFCURVE",
"152 1368 OFFCURVE",
"140 1269 CURVE SMOOTH",
"128 1169 OFFCURVE",
"140 1149 OFFCURVE",
"177 1149 CURVE SMOOTH",
"264 1149 LINE",
"152 240 LINE",
"64 240 LINE SMOOTH",
"28 240 OFFCURVE",
"9 219 OFFCURVE",
"-2 119 CURVE SMOOTH",
"-15 20 OFFCURVE",
"-1 0 OFFCURVE",
"35 0 CURVE SMOOTH",
"422 0 LINE SMOOTH",
"459 0 OFFCURVE",
"475 20 OFFCURVE",
"488 119 CURVE SMOOTH",
"500 219 OFFCURVE",
"488 240 OFFCURVE",
"452 240 CURVE SMOOTH",
"357 240 LINE",
"382 434 LINE",
"439 504 LINE SMOOTH",
"462 532 OFFCURVE",
"486 544 OFFCURVE",
"509 544 CURVE SMOOTH",
"547 544 OFFCURVE",
"576 507 OFFCURVE",
"597 447 CURVE SMOOTH",
"621 372 OFFCURVE",
"635 259 OFFCURVE",
"660 166 CURVE SMOOTH",
"681 76 OFFCURVE",
"719 0 OFFCURVE",
"791 0 CURVE SMOOTH",
"898 0 LINE SMOOTH",
"934 0 OFFCURVE",
"950 20 OFFCURVE",
"963 119 CURVE SMOOTH",
"975 219 OFFCURVE",
"963 240 OFFCURVE",
"927 240 CURVE SMOOTH",
"914 240 LINE SMOOTH",
"879 240 OFFCURVE",
"858 276 OFFCURVE",
"843 330 CURVE SMOOTH",
"818 414 OFFCURVE",
"804 530 OFFCURVE",
"769 626 CURVE SMOOTH",
"742 700 OFFCURVE",
"709 745 OFFCURVE",
"647 750 CURVE",
"983 1149 LINE",
"1010 1149 LINE SMOOTH",
"1047 1149 OFFCURVE",
"1064 1169 OFFCURVE",
"1077 1269 CURVE SMOOTH",
"1088 1368 OFFCURVE",
"1077 1389 OFFCURVE",
"1039 1389 CURVE SMOOTH"
);
}
);
width = 1006;
},
{
layerId = "38D47A70-C265-4203-8B70-C23C50FC2DCC";
paths = (
{
closed = 1;
nodes = (
"745 1389 LINE SMOOTH",
"709 1389 OFFCURVE",
"692 1368 OFFCURVE",
"685 1310 CURVE SMOOTH",
"676 1251 OFFCURVE",
"689 1230 OFFCURVE",
"726 1230 CURVE SMOOTH",
"777 1230 LINE",
"366 743 LINE",
"426 1230 LINE",
"501 1230 LINE SMOOTH",
"538 1230 OFFCURVE",
"556 1251 OFFCURVE",
"563 1310 CURVE SMOOTH",
"570 1368 OFFCURVE",
"558 1389 OFFCURVE",
"521 1389 CURVE SMOOTH",
"231 1389 LINE SMOOTH",
"194 1389 OFFCURVE",
"177 1368 OFFCURVE",
"170 1310 CURVE SMOOTH",
"163 1251 OFFCURVE",
"174 1230 OFFCURVE",
"212 1230 CURVE SMOOTH",
"303 1230 LINE",
"171 159 LINE",
"78 159 LINE SMOOTH",
"42 159 OFFCURVE",
"25 138 OFFCURVE",
"18 80 CURVE SMOOTH",
"11 21 OFFCURVE",
"23 0 OFFCURVE",
"60 0 CURVE SMOOTH",
"407 0 LINE SMOOTH",
"444 0 OFFCURVE",
"461 21 OFFCURVE",
"468 80 CURVE SMOOTH",
"475 138 OFFCURVE",
"463 159 OFFCURVE",
"426 159 CURVE SMOOTH",
"294 159 LINE",
"337 510 LINE",
"365 544 LINE SMOOTH",
"405 591 OFFCURVE",
"453 613 OFFCURVE",
"499 613 CURVE SMOOTH",
"551 613 OFFCURVE",
"590 585 OFFCURVE",
"610 531 CURVE SMOOTH",
"645 434 OFFCURVE",
"652 287 OFFCURVE",
"680 163 CURVE SMOOTH",
"708 43 OFFCURVE",
"752 0 OFFCURVE",
"802 0 CURVE SMOOTH",
"865 0 LINE SMOOTH",
"901 0 OFFCURVE",
"919 21 OFFCURVE",
"925 80 CURVE SMOOTH",
"933 138 OFFCURVE",
"920 159 OFFCURVE",
"884 159 CURVE SMOOTH",
"857 159 LINE SMOOTH",
"825 159 OFFCURVE",
"806 192 OFFCURVE",
"793 243 CURVE SMOOTH",
"767 348 OFFCURVE",
"761 525 OFFCURVE",
"712 640 CURVE SMOOTH",
"673 733 OFFCURVE",
"618 763 OFFCURVE",
"543 756 CURVE",
"949 1230 LINE",
"991 1230 LINE SMOOTH",
"1029 1230 OFFCURVE",
"1045 1251 OFFCURVE",
"1053 1310 CURVE SMOOTH",
"1060 1368 OFFCURVE",
"1047 1389 OFFCURVE",
"1011 1389 CURVE SMOOTH"
);
}
);
width = 1006;
}
);
unicode = 004B;
},
{
glyphname = L;
lastChange = "2026-02-27 13:18:40 +0000";
layers = (
{
layerId = UUID0;
paths = (
{
closed = 1;
nodes = (
"214 1389 LINE SMOOTH",
"178 1389 OFFCURVE",
"160 1368 OFFCURVE",
"149 1269 CURVE SMOOTH",
"136 1169 OFFCURVE",
"149 1149 OFFCURVE",
"185 1149 CURVE SMOOTH",
"304 1149 LINE",
"193 240 LINE",
"73 240 LINE SMOOTH",
"36 240 OFFCURVE",
"18 219 OFFCURVE",
"6 119 CURVE SMOOTH",
"-7 20 OFFCURVE",
"7 0 OFFCURVE",
"43 0 CURVE SMOOTH",
"807 0 LINE SMOOTH",
"845 0 OFFCURVE",
"863 22 OFFCURVE",
"870 76 CURVE SMOOTH",
"935 617 LINE SMOOTH",
"942 669 OFFCURVE",
"927 690 OFFCURVE",
"848 690 CURVE SMOOTH",
"771 690 OFFCURVE",
"737 669 OFFCURVE",
"730 617 CURVE SMOOTH",
"686 252 LINE",
"398 252 LINE",
"509 1149 LINE",
"688 1149 LINE SMOOTH",
"726 1149 OFFCURVE",
"742 1169 OFFCURVE",
"755 1269 CURVE SMOOTH",
"767 1368 OFFCURVE",
"755 1389 OFFCURVE",
"717 1389 CURVE SMOOTH"
);
}
);
width = 1006;
},
{
layerId = "38D47A70-C265-4203-8B70-C23C50FC2DCC";
paths = (
{
closed = 1;
nodes = (
"231 1389 LINE SMOOTH",
"194 1389 OFFCURVE",
"177 1368 OFFCURVE",
"170 1310 CURVE SMOOTH",
"163 1251 OFFCURVE",
"174 1230 OFFCURVE",
"212 1230 CURVE SMOOTH",
"344 1230 LINE",
"212 159 LINE",
"78 159 LINE SMOOTH",
"42 159 OFFCURVE",
"25 138 OFFCURVE",
"18 80 CURVE SMOOTH",
"11 21 OFFCURVE",
"23 0 OFFCURVE",
"60 0 CURVE SMOOTH",
"792 0 LINE SMOOTH",
"829 0 OFFCURVE",
"846 21 OFFCURVE",
"853 80 CURVE SMOOTH",
"910 544 LINE SMOOTH",
"918 598 OFFCURVE",
"905 620 OFFCURVE",
"859 620 CURVE SMOOTH",
"812 620 OFFCURVE",
"795 598 OFFCURVE",
"788 544 CURVE SMOOTH",
"740 159 LINE",
"335 159 LINE",
"467 1230 LINE",
"665 1230 LINE SMOOTH",
"702 1230 OFFCURVE",
"720 1251 OFFCURVE",
"727 1310 CURVE SMOOTH",
"734 1368 OFFCURVE",
"722 1389 OFFCURVE",
"685 1389 CURVE SMOOTH"
);
}
);
width = 1006;
}
);
unicode = 004C;
},
{
glyphname = M;
lastChange = "2026-02-27 13:18:40 +0000";
layers = (
{
layerId = UUID0;
paths = (
{
closed = 1;
nodes = (
"802 1389 LINE SMOOTH",
"779 1389 OFFCURVE",
"763 1381 OFFCURVE",
"752 1353 CURVE SMOOTH",
"534 778 LINE",
"454 1353 LINE SMOOTH",
"449 1381 OFFCURVE",
"437 1389 OFFCURVE",
"414 1389 CURVE SMOOTH",
"190 1389 LINE SMOOTH",
"153 1389 OFFCURVE",
"136 1368 OFFCURVE",
"124 1269 CURVE SMOOTH",
"111 1169 OFFCURVE",
"124 1149 OFFCURVE",
"160 1149 CURVE SMOOTH",
"205 1149 LINE",
"81 240 LINE",
"32 240 LINE SMOOTH",
"-5 240 OFFCURVE",
"-23 219 OFFCURVE",
"-35 119 CURVE SMOOTH",
"-48 20 OFFCURVE",
"-34 0 OFFCURVE",
"2 0 CURVE SMOOTH",
"309 0 LINE SMOOTH",
"345 0 OFFCURVE",
"362 20 OFFCURVE",
"374 119 CURVE SMOOTH",
"386 219 OFFCURVE",
"376 240 OFFCURVE",
"338 240 CURVE SMOOTH",
"262 240 LINE",
"352 929 LINE",
"418 455 LINE SMOOTH",
"425 401 OFFCURVE",
"447 380 OFFCURVE",
"493 380 CURVE SMOOTH",
"540 380 OFFCURVE",
"564 401 OFFCURVE",
"585 455 CURVE SMOOTH",
"768 933 LINE",
"687 240 LINE",
"612 240 LINE SMOOTH",
"575 240 OFFCURVE",
"557 219 OFFCURVE",
"545 119 CURVE SMOOTH",
"532 20 OFFCURVE",
"545 0 OFFCURVE",
"583 0 CURVE SMOOTH",
"889 0 LINE SMOOTH",
"926 0 OFFCURVE",
"942 20 OFFCURVE",
"955 119 CURVE SMOOTH",
"967 219 OFFCURVE",
"955 240 OFFCURVE",
"919 240 CURVE SMOOTH",
"870 240 LINE",
"970 1149 LINE",
"1015 1149 LINE SMOOTH",
"1051 1149 OFFCURVE",
"1068 1169 OFFCURVE",
"1080 1269 CURVE SMOOTH",
"1093 1368 OFFCURVE",
"1080 1389 OFFCURVE",
"1044 1389 CURVE SMOOTH"
);
}
);
width = 1006;
},
{
layerId = "38D47A70-C265-4203-8B70-C23C50FC2DCC";
paths = (
{
closed = 1;
nodes = (
"841 1389 LINE SMOOTH",
"816 1389 OFFCURVE",
"798 1377 OFFCURVE",
"788 1351 CURVE SMOOTH",
"520 638 LINE",
"425 1351 LINE SMOOTH",
"422 1377 OFFCURVE",
"408 1389 OFFCURVE",
"383 1389 CURVE SMOOTH",
"214 1389 LINE SMOOTH",
"178 1389 OFFCURVE",
"160 1368 OFFCURVE",
"153 1310 CURVE SMOOTH",
"146 1251 OFFCURVE",
"158 1230 OFFCURVE",
"195 1230 CURVE SMOOTH",
"235 1230 LINE",
"82 159 LINE",
"37 159 LINE SMOOTH",
"1 159 OFFCURVE",
"-16 138 OFFCURVE",
"-23 80 CURVE SMOOTH",
"-30 21 OFFCURVE",
"-18 0 OFFCURVE",
"19 0 CURVE SMOOTH",
"276 0 LINE SMOOTH",
"312 0 OFFCURVE",
"330 21 OFFCURVE",
"337 80 CURVE SMOOTH",
"344 138 OFFCURVE",
"332 159 OFFCURVE",
"295 159 CURVE SMOOTH",
"204 159 LINE",
"341 1118 LINE",
"425 451 LINE SMOOTH",
"433 396 OFFCURVE",
"453 374 OFFCURVE",
"492 374 CURVE SMOOTH",
"530 374 OFFCURVE",
"556 396 OFFCURVE",
"576 451 CURVE SMOOTH",
"826 1118 LINE",
"726 159 LINE",
"634 159 LINE SMOOTH",
"597 159 OFFCURVE",
"580 138 OFFCURVE",
"572 80 CURVE SMOOTH",
"566 21 OFFCURVE",
"578 0 OFFCURVE",
"616 0 CURVE SMOOTH",
"873 0 LINE SMOOTH",
"909 0 OFFCURVE",
"927 21 OFFCURVE",
"933 80 CURVE SMOOTH",
"941 138 OFFCURVE",
"928 159 OFFCURVE",
"892 159 CURVE SMOOTH",
"847 159 LINE",
"958 1230 LINE",
"999 1230 LINE SMOOTH",
"1037 1230 OFFCURVE",
"1053 1251 OFFCURVE",
"1061 1310 CURVE SMOOTH",
"1068 1368 OFFCURVE",
"1056 1389 OFFCURVE",
"1019 1389 CURVE SMOOTH"
);
}
);
width = 1006;
}
);
unicode = 004D;
},
{
glyphname = N;
lastChange = "2026-02-27 13:18:40 +0000";
layers = (
{
layerId = UUID0;
paths = (
{
closed = 1;
nodes = (
"736 1389 LINE SMOOTH",
"700 1389 OFFCURVE",
"682 1368 OFFCURVE",
"671 1269 CURVE SMOOTH",
"658 1169 OFFCURVE",
"671 1149 OFFCURVE",
"707 1149 CURVE SMOOTH",
"783 1149 LINE",
"706 530 LINE",
"702 530 LINE",
"465 1358 LINE SMOOTH",
"458 1381 OFFCURVE",
"444 1389 OFFCURVE",
"422 1389 CURVE SMOOTH",
"206 1389 LINE SMOOTH",
"170 1389 OFFCURVE",
"152 1368 OFFCURVE",
"140 1269 CURVE SMOOTH",
"128 1169 OFFCURVE",
"140 1149 OFFCURVE",
"177 1149 CURVE SMOOTH",
"232 1149 LINE",
"119 240 LINE",
"64 240 LINE SMOOTH",
"28 240 OFFCURVE",
"9 219 OFFCURVE",
"-2 119 CURVE SMOOTH",
"-15 20 OFFCURVE",
"-1 0 OFFCURVE",
"35 0 CURVE SMOOTH",
"366 0 LINE SMOOTH",
"403 0 OFFCURVE",
"419 20 OFFCURVE",
"432 119 CURVE SMOOTH",
"444 219 OFFCURVE",
"433 240 OFFCURVE",
"396 240 CURVE SMOOTH",
"304 240 LINE",
"390 932 LINE",
"393 932 LINE",
"652 36 LINE SMOOTH",
"662 -4 OFFCURVE",
"679 -26 OFFCURVE",
"733 -26 CURVE SMOOTH",
"802 -26 OFFCURVE",
"826 2 OFFCURVE",
"832 51 CURVE SMOOTH",
"968 1149 LINE",
"1015 1149 LINE SMOOTH",
"1051 1149 OFFCURVE",
"1068 1169 OFFCURVE",
"1080 1269 CURVE SMOOTH",
"1093 1368 OFFCURVE",
"1080 1389 OFFCURVE",
"1044 1389 CURVE SMOOTH"
);
}
);
width = 1006;
},
{
layerId = "38D47A70-C265-4203-8B70-C23C50FC2DCC";
paths = (
{
closed = 1;
nodes = (
"745 1389 LINE SMOOTH",
"709 1389 OFFCURVE",
"692 1368 OFFCURVE",
"685 1310 CURVE SMOOTH",
"676 1251 OFFCURVE",
"689 1230 OFFCURVE",
"726 1230 CURVE SMOOTH",
"825 1230 LINE",
"716 349 LINE",
"713 349 LINE",
"449 1356 LINE SMOOTH",
"444 1379 OFFCURVE",
"431 1389 OFFCURVE",
"406 1389 CURVE SMOOTH",
"222 1389 LINE SMOOTH",
"186 1389 OFFCURVE",
"169 1368 OFFCURVE",
"161 1310 CURVE SMOOTH",
"154 1251 OFFCURVE",
"166 1230 OFFCURVE",
"204 1230 CURVE SMOOTH",
"267 1230 LINE",
"133 159 LINE",
"78 159 LINE SMOOTH",
"42 159 OFFCURVE",
"25 138 OFFCURVE",
"18 80 CURVE SMOOTH",
"11 21 OFFCURVE",
"23 0 OFFCURVE",
"60 0 CURVE SMOOTH",
"350 0 LINE SMOOTH",
"386 0 OFFCURVE",
"404 21 OFFCURVE",
"411 80 CURVE SMOOTH",
"418 138 OFFCURVE",
"406 159 OFFCURVE",
"369 159 CURVE SMOOTH",
"253 159 LINE",
"374 1139 LINE",
"378 1139 LINE",
"667 39 LINE SMOOTH",
"678 -2 OFFCURVE",
"697 -26 OFFCURVE",
"728 -26 CURVE SMOOTH",
"771 -26 OFFCURVE",
"793 2 OFFCURVE",
"798 43 CURVE SMOOTH",
"944 1230 LINE",
"991 1230 LINE SMOOTH",
"1029 1230 OFFCURVE",
"1045 1251 OFFCURVE",
"1053 1310 CURVE SMOOTH",
"1060 1368 OFFCURVE",
"1047 1389 OFFCURVE",
"1011 1389 CURVE SMOOTH"
);
}
);
width = 1006;
}
);
unicode = 004E;
},
{
glyphname = O;
lastChange = "2026-02-27 13:18:40 +0000";
layers = (
{
layerId = UUID0;
paths = (
{
closed = 1;
nodes = (
"431 1415 OFFCURVE",
"287 1311 OFFCURVE",
"193 1119 CURVE SMOOTH",
"114 957 OFFCURVE",
"73 736 OFFCURVE",
"73 551 CURVE SMOOTH",
"73 200 OFFCURVE",
"224 -26 OFFCURVE",
"459 -26 CURVE SMOOTH",
"632 -26 OFFCURVE",
"776 78 OFFCURVE",
"870 270 CURVE SMOOTH",
"949 432 OFFCURVE",
"990 653 OFFCURVE",
"990 838 CURVE SMOOTH",
"990 1189 OFFCURVE",
"839 1415 OFFCURVE",
"604 1415 CURVE SMOOTH"
);
},
{
closed = 1;
nodes = (
"712 1149 OFFCURVE",
"774 1039 OFFCURVE",
"774 843 CURVE SMOOTH",
"774 697 OFFCURVE",
"743 514 OFFCURVE",
"685 396 CURVE SMOOTH",
"633 295 OFFCURVE",
"564 240 OFFCURVE",
"475 240 CURVE SMOOTH",
"351 240 OFFCURVE",
"289 350 OFFCURVE",
"289 547 CURVE SMOOTH",
"289 692 OFFCURVE",
"319 875 OFFCURVE",
"378 994 CURVE SMOOTH",
"429 1094 OFFCURVE",
"499 1149 OFFCURVE",
"587 1149 CURVE SMOOTH"
);
}
);
width = 1006;
},
{
layerId = "38D47A70-C265-4203-8B70-C23C50FC2DCC";
paths = (
{
closed = 1;
nodes = (
"438 1415 OFFCURVE",
"307 1297 OFFCURVE",
"220 1125 CURVE SMOOTH",
"136 957 OFFCURVE",
"91 744 OFFCURVE",
"91 537 CURVE SMOOTH",
"91 198 OFFCURVE",
"232 -26 OFFCURVE",
"455 -26 CURVE SMOOTH",
"625 -26 OFFCURVE",
"756 92 OFFCURVE",
"843 264 CURVE SMOOTH",
"927 432 OFFCURVE",
"971 645 OFFCURVE",
"971 852 CURVE SMOOTH",
"971 1191 OFFCURVE",
"831 1415 OFFCURVE",
"607 1415 CURVE SMOOTH"
);
},
{
closed = 1;
nodes = (
"752 1242 OFFCURVE",
"843 1092 OFFCURVE",
"843 845 CURVE SMOOTH",
"843 679 OFFCURVE",
"807 499 OFFCURVE",
"738 362 CURVE SMOOTH",
"675 235 OFFCURVE",
"583 147 OFFCURVE",
"463 147 CURVE SMOOTH",
"310 147 OFFCURVE",
"220 297 OFFCURVE",
"220 544 CURVE SMOOTH",
"220 710 OFFCURVE",
"255 891 OFFCURVE",
"324 1028 CURVE SMOOTH",
"387 1154 OFFCURVE",
"480 1242 OFFCURVE",
"599 1242 CURVE SMOOTH"
);
}
);
width = 1006;
}
);
unicode = 004F;
},
{
glyphname = P;
lastChange = "2026-02-27 13:18:40 +0000";
layers = (
{
layerId = UUID0;
paths = (
{
closed = 1;
nodes = (
"214 1389 LINE SMOOTH",
"178 1389 OFFCURVE",
"160 1368 OFFCURVE",
"149 1269 CURVE SMOOTH",
"136 1169 OFFCURVE",
"149 1149 OFFCURVE",
"185 1149 CURVE SMOOTH",
"305 1149 LINE",
"193 240 LINE",
"73 240 LINE SMOOTH",
"36 240 OFFCURVE",
"18 219 OFFCURVE",
"6 119 CURVE SMOOTH",
"-7 20 OFFCURVE",
"7 0 OFFCURVE",
"43 0 CURVE SMOOTH",
"547 0 LINE SMOOTH",
"583 0 OFFCURVE",
"599 20 OFFCURVE",
"612 119 CURVE SMOOTH",
"624 219 OFFCURVE",
"613 240 OFFCURVE",
"576 240 CURVE SMOOTH",
"398 240 LINE",
"424 447 LINE",
"555 447 LINE SMOOTH",
"713 447 OFFCURVE",
"826 503 OFFCURVE",
"898 619 CURVE SMOOTH",
"963 724 OFFCURVE",
"990 875 OFFCURVE",
"990 1003 CURVE SMOOTH",
"990 1242 OFFCURVE",
"877 1389 OFFCURVE",
"654 1389 CURVE SMOOTH"
);
},
{
closed = 1;
nodes = (
"720 1138 OFFCURVE",
"779 1085 OFFCURVE",
"779 970 CURVE SMOOTH",
"779 906 OFFCURVE",
"763 833 OFFCURVE",
"734 786 CURVE SMOOTH",
"695 727 OFFCURVE",
"634 699 OFFCURVE",
"552 699 CURVE SMOOTH",
"455 699 LINE",
"509 1138 LINE",
"606 1138 LINE SMOOTH"
);
}
);
width = 1006;
},
{
layerId = "38D47A70-C265-4203-8B70-C23C50FC2DCC";
paths = (
{
closed = 1;
nodes = (
"231 1389 LINE SMOOTH",
"194 1389 OFFCURVE",
"177 1368 OFFCURVE",
"170 1310 CURVE SMOOTH",
"163 1251 OFFCURVE",
"174 1230 OFFCURVE",
"212 1230 CURVE SMOOTH",
"344 1230 LINE",
"212 159 LINE",
"78 159 LINE SMOOTH",
"42 159 OFFCURVE",
"25 138 OFFCURVE",
"18 80 CURVE SMOOTH",
"11 21 OFFCURVE",
"23 0 OFFCURVE",
"60 0 CURVE SMOOTH",
"513 0 LINE SMOOTH",
"549 0 OFFCURVE",
"566 21 OFFCURVE",
"572 80 CURVE SMOOTH",
"580 138 OFFCURVE",
"568 159 OFFCURVE",
"531 159 CURVE SMOOTH",
"335 159 LINE",
"378 507 LINE",
"578 507 LINE SMOOTH",
"724 507 OFFCURVE",
"825 578 OFFCURVE",
"888 681 CURVE SMOOTH",
"948 779 OFFCURVE",
"974 905 OFFCURVE",
"974 1024 CURVE SMOOTH",
"974 1241 OFFCURVE",
"866 1389 OFFCURVE",
"671 1389 CURVE SMOOTH"
);
},
{
closed = 1;
nodes = (
"777 1230 OFFCURVE",
"845 1147 OFFCURVE",
"845 1008 CURVE SMOOTH",
"845 928 OFFCURVE",
"827 847 OFFCURVE",
"789 784 CURVE SMOOTH",
"745 714 OFFCURVE",
"676 666 OFFCURVE",
"572 666 CURVE SMOOTH",
"398 666 LINE",
"467 1230 LINE",
"642 1230 LINE SMOOTH"
);
}
);
width = 1006;
}
);
unicode = 0050;
},
{
glyphname = Q;
lastChange = "2026-02-27 13:18:40 +0000";
layers = (
{
layerId = UUID0;
paths = (
{
closed = 1;
nodes = (
"453 1415 OFFCURVE",
"318 1333 OFFCURVE",
"224 1182 CURVE SMOOTH",
"126 1028 OFFCURVE",
"80 811 OFFCURVE",
"80 619 CURVE SMOOTH",
"80 380 OFFCURVE",
"156 193 OFFCURVE",
"284 115 CURVE",
"94 -119 LINE SMOOTH",
"67 -152 OFFCURVE",
"70 -211 OFFCURVE",
"87 -259 CURVE SMOOTH",
"104 -309 OFFCURVE",
"135 -346 OFFCURVE",
"160 -332 CURVE SMOOTH",
"235 -291 OFFCURVE",
"298 -277 OFFCURVE",
"355 -277 CURVE SMOOTH",
"465 -277 OFFCURVE",
"548 -329 OFFCURVE",
"640 -329 CURVE SMOOTH",
"699 -329 OFFCURVE",
"761 -308 OFFCURVE",
"834 -239 CURVE SMOOTH",
"875 -201 OFFCURVE",
"877 -131 OFFCURVE",
"859 -77 CURVE SMOOTH",
"843 -22 OFFCURVE",
"807 16 OFFCURVE",
"774 -7 CURVE SMOOTH",
"722 -43 OFFCURVE",
"681 -54 OFFCURVE",
"644 -54 CURVE SMOOTH",
"580 -54 OFFCURVE",
"529 -20 OFFCURVE",
"455 -20 CURVE SMOOTH",
"418 -20 OFFCURVE",
"376 -28 OFFCURVE",
"324 -54 CURVE",
"425 70 LINE",
"433 69 OFFCURVE",
"448 68 OFFCURVE",
"462 68 CURVE SMOOTH",
"621 68 OFFCURVE",
"755 150 OFFCURVE",
"851 301 CURVE SMOOTH",
"948 455 OFFCURVE",
"995 672 OFFCURVE",
"995 864 CURVE SMOOTH",
"995 1197 OFFCURVE",
"847 1415 OFFCURVE",
"612 1415 CURVE SMOOTH"
);
},
{
closed = 1;
nodes = (
"714 1149 OFFCURVE",
"777 1044 OFFCURVE",
"777 864 CURVE SMOOTH",
"777 728 OFFCURVE",
"747 564 OFFCURVE",
"687 462 CURVE SMOOTH",
"638 379 OFFCURVE",
"570 334 OFFCURVE",
"487 334 CURVE SMOOTH",
"359 334 OFFCURVE",
"296 438 OFFCURVE",
"296 619 CURVE SMOOTH",
"296 755 OFFCURVE",
"328 919 OFFCURVE",
"387 1020 CURVE SMOOTH",
"437 1104 OFFCURVE",
"504 1149 OFFCURVE",
"587 1149 CURVE SMOOTH"
);
}
);
width = 1006;
},
{
layerId = "38D47A70-C265-4203-8B70-C23C50FC2DCC";
paths = (
{
closed = 1;
nodes = (
"454 1415 OFFCURVE",
"335 1325 OFFCURVE",
"250 1190 CURVE SMOOTH",
"146 1024 OFFCURVE",
"95 791 OFFCURVE",
"95 576 CURVE SMOOTH",
"95 335 OFFCURVE",
"170 157 OFFCURVE",
"296 78 CURVE",
"116 -166 LINE SMOOTH",
"97 -191 OFFCURVE",
"104 -234 OFFCURVE",
"124 -273 CURVE SMOOTH",
"143 -309 OFFCURVE",
"165 -327 OFFCURVE",
"187 -315 CURVE",
"264 -272 OFFCURVE",
"327 -257 OFFCURVE",
"378 -257 CURVE SMOOTH",
"472 -257 OFFCURVE",
"536 -303 OFFCURVE",
"611 -303 CURVE SMOOTH",
"664 -303 OFFCURVE",
"721 -282 OFFCURVE",
"797 -209 CURVE SMOOTH",
"825 -184 OFFCURVE",
"822 -135 OFFCURVE",
"807 -98 CURVE SMOOTH",
"793 -63 OFFCURVE",
"769 -37 OFFCURVE",
"749 -56 CURVE SMOOTH",
"693 -108 OFFCURVE",
"648 -123 OFFCURVE",
"607 -123 CURVE SMOOTH",
"545 -123 OFFCURVE",
"492 -85 OFFCURVE",
"417 -85 CURVE SMOOTH",
"382 -85 OFFCURVE",
"343 -94 OFFCURVE",
"295 -117 CURVE",
"417 35 LINE",
"431 34 OFFCURVE",
"446 33 OFFCURVE",
"461 33 CURVE SMOOTH",
"616 33 OFFCURVE",
"734 123 OFFCURVE",
"818 257 CURVE SMOOTH",
"922 424 OFFCURVE",
"974 658 OFFCURVE",
"974 873 CURVE SMOOTH",
"974 1203 OFFCURVE",
"832 1415 OFFCURVE",
"607 1415 CURVE SMOOTH"
);
},
{
closed = 1;
nodes = (
"752 1242 OFFCURVE",
"845 1102 OFFCURVE",
"845 863 CURVE SMOOTH",
"845 695 OFFCURVE",
"807 510 OFFCURVE",
"730 380 CURVE SMOOTH",
"668 276 OFFCURVE",
"583 206 OFFCURVE",
"472 206 CURVE SMOOTH",
"316 206 OFFCURVE",
"224 344 OFFCURVE",
"224 585 CURVE SMOOTH",
"224 752 OFFCURVE",
"262 937 OFFCURVE",
"339 1067 CURVE SMOOTH",
"400 1171 OFFCURVE",
"488 1242 OFFCURVE",
"599 1242 CURVE SMOOTH"
);
}
);
width = 1006;
}
);
unicode = 0051;
},
{
glyphname = R;
lastChange = "2026-02-27 13:18:40 +0000";
layers = (
{
layerId = UUID0;
paths = (
{
closed = 1;
nodes = (
"214 1389 LINE SMOOTH",
"178 1389 OFFCURVE",
"160 1368 OFFCURVE",
"149 1269 CURVE SMOOTH",
"136 1169 OFFCURVE",
"149 1149 OFFCURVE",
"185 1149 CURVE SMOOTH",
"273 1149 LINE",
"160 240 LINE",
"73 240 LINE SMOOTH",
"36 240 OFFCURVE",
"18 219 OFFCURVE",
"6 119 CURVE SMOOTH",
"-7 20 OFFCURVE",
"7 0 OFFCURVE",
"43 0 CURVE SMOOTH",
"415 0 LINE SMOOTH",
"452 0 OFFCURVE",
"468 20 OFFCURVE",
"481 119 CURVE SMOOTH",
"493 219 OFFCURVE",
"482 240 OFFCURVE",
"445 240 CURVE SMOOTH",
"365 240 LINE",
"403 540 LINE",
"455 540 LINE SMOOTH",
"513 540 OFFCURVE",
"549 511 OFFCURVE",
"575 445 CURVE SMOOTH",
"609 353 OFFCURVE",
"618 252 OFFCURVE",
"644 163 CURVE SMOOTH",
"675 50 OFFCURVE",
"714 0 OFFCURVE",
"802 0 CURVE SMOOTH",
"873 0 LINE SMOOTH",
"909 0 OFFCURVE",
"927 20 OFFCURVE",
"939 119 CURVE SMOOTH",
"951 219 OFFCURVE",
"939 240 OFFCURVE",
"902 240 CURVE SMOOTH",
"886 240 LINE SMOOTH",
"857 240 OFFCURVE",
"840 270 OFFCURVE",
"826 317 CURVE SMOOTH",
"806 387 OFFCURVE",
"791 468 OFFCURVE",
"761 543 CURVE SMOOTH",
"745 579 OFFCURVE",
"724 609 OFFCURVE",
"699 624 CURVE",
"887 686 OFFCURVE",
"955 843 OFFCURVE",
"955 1039 CURVE SMOOTH",
"955 1260 OFFCURVE",
"840 1389 OFFCURVE",
"638 1389 CURVE SMOOTH"
);
},
{
closed = 1;
nodes = (
"697 1138 OFFCURVE",
"743 1093 OFFCURVE",
"743 1003 CURVE SMOOTH",
"743 951 OFFCURVE",
"729 895 OFFCURVE",
"706 859 CURVE SMOOTH",
"675 813 OFFCURVE",
"626 791 OFFCURVE",
"556 791 CURVE SMOOTH",
"433 791 LINE",
"476 1138 LINE",
"598 1138 LINE SMOOTH"
);
}
);
width = 1006;
},
{
layerId = "38D47A70-C265-4203-8B70-C23C50FC2DCC";
paths = (
{
closed = 1;
nodes = (
"231 1389 LINE SMOOTH",
"194 1389 OFFCURVE",
"177 1368 OFFCURVE",
"170 1310 CURVE SMOOTH",
"163 1251 OFFCURVE",
"174 1230 OFFCURVE",
"212 1230 CURVE SMOOTH",
"311 1230 LINE",
"179 159 LINE",
"78 159 LINE SMOOTH",
"42 159 OFFCURVE",
"25 138 OFFCURVE",
"18 80 CURVE SMOOTH",
"11 21 OFFCURVE",
"23 0 OFFCURVE",
"60 0 CURVE SMOOTH",
"390 0 LINE SMOOTH",
"426 0 OFFCURVE",
"444 21 OFFCURVE",
"449 80 CURVE SMOOTH",
"458 138 OFFCURVE",
"445 159 OFFCURVE",
"408 159 CURVE SMOOTH",
"302 159 LINE",
"357 603 LINE",
"468 603 LINE SMOOTH",
"535 603 OFFCURVE",
"576 569 OFFCURVE",
"600 503 CURVE SMOOTH",
"638 404 OFFCURVE",
"650 298 OFFCURVE",
"681 163 CURVE SMOOTH",
"709 43 OFFCURVE",
"745 0 OFFCURVE",
"810 0 CURVE SMOOTH",
"861 0 LINE SMOOTH",
"898 0 OFFCURVE",
"915 21 OFFCURVE",
"922 80 CURVE SMOOTH",
"930 138 OFFCURVE",
"918 159 OFFCURVE",
"881 159 CURVE SMOOTH",
"858 159 LINE SMOOTH",
"826 159 OFFCURVE",
"809 192 OFFCURVE",
"795 243 CURVE SMOOTH",
"769 342 OFFCURVE",
"758 447 OFFCURVE",
"716 554 CURVE SMOOTH",
"701 592 OFFCURVE",
"679 624 OFFCURVE",
"652 642 CURVE",
"807 687 OFFCURVE",
"925 830 OFFCURVE",
"925 1060 CURVE SMOOTH",
"925 1255 OFFCURVE",
"823 1389 OFFCURVE",
"638 1389 CURVE SMOOTH"
);
},
{
closed = 1;
nodes = (
"729 1230 OFFCURVE",
"796 1163 OFFCURVE",
"796 1043 CURVE SMOOTH",
"796 984 OFFCURVE",
"785 920 OFFCURVE",
"752 866 CURVE SMOOTH",
"716 806 OFFCURVE",
"652 762 OFFCURVE",
"542 762 CURVE SMOOTH",
"376 762 LINE",
"434 1230 LINE",
"609 1230 LINE SMOOTH"
);
}
);
width = 1006;
}
);
unicode = 0052;
},
{
glyphname = S;
lastChange = "2026-02-27 13:18:40 +0000";
layers = (
{
layerId = UUID0;
paths = (
{
closed = 1;
nodes = (
"798 1415 OFFCURVE",
"775 1394 OFFCURVE",
"767 1341 CURVE SMOOTH",
"761 1292 LINE",
"715 1367 OFFCURVE",
"638 1415 OFFCURVE",
"550 1415 CURVE SMOOTH",
"328 1415 OFFCURVE",
"185 1195 OFFCURVE",
"185 928 CURVE SMOOTH",
"185 825 OFFCURVE",
"212 756 OFFCURVE",
"255 707 CURVE SMOOTH",
"348 602 OFFCURVE",
"507 590 OFFCURVE",
"597 531 CURVE SMOOTH",
"638 504 OFFCURVE",
"665 469 OFFCURVE",
"665 411 CURVE SMOOTH",
"665 330 OFFCURVE",
"625 224 OFFCURVE",
"496 224 CURVE SMOOTH",
"385 224 OFFCURVE",
"316 308 OFFCURVE",
"277 466 CURVE SMOOTH",
"269 500 OFFCURVE",
"250 513 OFFCURVE",
"212 513 CURVE SMOOTH",
"158 513 OFFCURVE",
"133 492 OFFCURVE",
"128 439 CURVE SMOOTH",
"78 48 LINE SMOOTH",
"73 -5 OFFCURVE",
"97 -26 OFFCURVE",
"166 -26 CURVE SMOOTH",
"236 -26 OFFCURVE",
"261 -5 OFFCURVE",
"267 48 CURVE SMOOTH",
"273 98 LINE",
"327 21 OFFCURVE",
"407 -26 OFFCURVE",
"499 -26 CURVE SMOOTH",
"783 -26 OFFCURVE",
"886 227 OFFCURVE",
"886 483 CURVE SMOOTH",
"886 611 OFFCURVE",
"848 693 OFFCURVE",
"796 748 CURVE SMOOTH",
"697 851 OFFCURVE",
"542 860 OFFCURVE",
"460 907 CURVE SMOOTH",
"425 927 OFFCURVE",
"404 951 OFFCURVE",
"404 994 CURVE SMOOTH",
"404 1066 OFFCURVE",
"451 1166 OFFCURVE",
"551 1166 CURVE SMOOTH",
"660 1166 OFFCURVE",
"733 1097 OFFCURVE",
"769 984 CURVE SMOOTH",
"777 960 OFFCURVE",
"793 947 OFFCURVE",
"831 947 CURVE SMOOTH",
"884 947 OFFCURVE",
"908 968 OFFCURVE",
"915 1020 CURVE SMOOTH",
"955 1341 LINE SMOOTH",
"962 1394 OFFCURVE",
"937 1415 OFFCURVE",
"867 1415 CURVE SMOOTH"
);
}
);
width = 1006;
},
{
layerId = "38D47A70-C265-4203-8B70-C23C50FC2DCC";
paths = (
{
closed = 1;
nodes = (
"844 1415 OFFCURVE",
"825 1393 OFFCURVE",
"818 1339 CURVE SMOOTH",
"809 1262 LINE",
"758 1349 OFFCURVE",
"669 1415 OFFCURVE",
"569 1415 CURVE SMOOTH",
"308 1415 OFFCURVE",
"204 1161 OFFCURVE",
"204 961 CURVE SMOOTH",
"204 831 OFFCURVE",
"255 761 OFFCURVE",
"325 715 CURVE SMOOTH",
"428 650 OFFCURVE",
"572 638 OFFCURVE",
"660 576 CURVE SMOOTH",
"705 543 OFFCURVE",
"735 497 OFFCURVE",
"735 422 CURVE SMOOTH",
"735 279 OFFCURVE",
"652 147 OFFCURVE",
"487 147 CURVE SMOOTH",
"343 147 OFFCURVE",
"255 248 OFFCURVE",
"234 428 CURVE SMOOTH",
"229 461 OFFCURVE",
"215 477 OFFCURVE",
"192 477 CURVE SMOOTH",
"146 477 OFFCURVE",
"128 455 OFFCURVE",
"122 401 CURVE SMOOTH",
"78 50 LINE SMOOTH",
"71 -4 OFFCURVE",
"84 -26 OFFCURVE",
"130 -26 CURVE SMOOTH",
"177 -26 OFFCURVE",
"194 -4 OFFCURVE",
"201 50 CURVE SMOOTH",
"213 147 LINE",
"268 37 OFFCURVE",
"359 -26 OFFCURVE",
"472 -26 CURVE SMOOTH",
"769 -26 OFFCURVE",
"866 242 OFFCURVE",
"866 459 CURVE SMOOTH",
"866 596 OFFCURVE",
"819 674 OFFCURVE",
"752 726 CURVE SMOOTH",
"652 804 OFFCURVE",
"506 817 OFFCURVE",
"415 866 CURVE SMOOTH",
"367 893 OFFCURVE",
"335 929 OFFCURVE",
"335 994 CURVE SMOOTH",
"335 1105 OFFCURVE",
"400 1242 OFFCURVE",
"554 1242 CURVE SMOOTH",
"673 1242 OFFCURVE",
"763 1168 OFFCURVE",
"799 1024 CURVE SMOOTH",
"804 1003 OFFCURVE",
"818 994 OFFCURVE",
"837 994 CURVE SMOOTH",
"884 994 OFFCURVE",
"902 1016 OFFCURVE",
"908 1070 CURVE SMOOTH",
"941 1339 LINE SMOOTH",
"948 1393 OFFCURVE",
"935 1415 OFFCURVE",
"889 1415 CURVE SMOOTH"
);
}
);
width = 1006;
}
);
unicode = 0053;
},
{
glyphname = T;
lastChange = "2026-02-27 13:18:40 +0000";
layers = (
{
layerId = UUID0;
paths = (
{
closed = 1;
nodes = (
"247 1389 LINE SMOOTH",
"209 1389 OFFCURVE",
"191 1367 OFFCURVE",
"185 1313 CURVE SMOOTH",
"124 819 LINE SMOOTH",
"117 767 OFFCURVE",
"133 745 OFFCURVE",
"195 745 CURVE SMOOTH",
"256 745 OFFCURVE",
"289 767 OFFCURVE",
"296 819 CURVE SMOOTH",
"335 1138 LINE",
"483 1138 LINE",
"373 240 LINE",
"204 240 LINE SMOOTH",
"167 240 OFFCURVE",
"149 219 OFFCURVE",
"137 119 CURVE SMOOTH",
"124 20 OFFCURVE",
"138 0 OFFCURVE",
"174 0 CURVE SMOOTH",
"734 0 LINE SMOOTH",
"770 0 OFFCURVE",
"786 20 OFFCURVE",
"799 119 CURVE SMOOTH",
"811 219 OFFCURVE",
"799 240 OFFCURVE",
"763 240 CURVE SMOOTH",
"578 240 LINE",
"688 1138 LINE",
"837 1138 LINE",
"797 819 LINE SMOOTH",
"791 767 OFFCURVE",
"807 745 OFFCURVE",
"868 745 CURVE SMOOTH",
"930 745 OFFCURVE",
"963 767 OFFCURVE",
"969 819 CURVE SMOOTH",
"1030 1313 LINE SMOOTH",
"1037 1367 OFFCURVE",
"1024 1389 OFFCURVE",
"987 1389 CURVE SMOOTH"
);
}
);
width = 1006;
},
{
layerId = "38D47A70-C265-4203-8B70-C23C50FC2DCC";
paths = (
{
closed = 1;
nodes = (
"266 1389 LINE SMOOTH",
"228 1389 OFFCURVE",
"212 1368 OFFCURVE",
"204 1310 CURVE SMOOTH",
"149 868 LINE SMOOTH",
"143 815 OFFCURVE",
"156 792 OFFCURVE",
"201 792 CURVE SMOOTH",
"247 792 OFFCURVE",
"266 815 OFFCURVE",
"272 868 CURVE SMOOTH",
"317 1230 LINE",
"536 1230 LINE",
"403 159 LINE",
"218 159 LINE SMOOTH",
"181 159 OFFCURVE",
"164 138 OFFCURVE",
"157 80 CURVE SMOOTH",
"150 21 OFFCURVE",
"163 0 OFFCURVE",
"199 0 CURVE SMOOTH",
"709 0 LINE SMOOTH",
"745 0 OFFCURVE",
"763 21 OFFCURVE",
"769 80 CURVE SMOOTH",
"777 138 OFFCURVE",
"764 159 OFFCURVE",
"728 159 CURVE SMOOTH",
"525 159 LINE",
"659 1230 LINE",
"878 1230 LINE",
"832 868 LINE SMOOTH",
"826 815 OFFCURVE",
"839 792 OFFCURVE",
"885 792 CURVE SMOOTH",
"930 792 OFFCURVE",
"949 815 OFFCURVE",
"955 868 CURVE SMOOTH",
"1010 1310 LINE SMOOTH",
"1017 1368 OFFCURVE",
"1005 1389 OFFCURVE",
"968 1389 CURVE SMOOTH"
);
}
);
width = 1006;
}
);
unicode = 0054;
},
{
glyphname = U;
lastChange = "2026-02-27 13:18:40 +0000";
layers = (
{
layerId = UUID0;
paths = (
{
closed = 1;
nodes = (
"721 1389 LINE SMOOTH",
"685 1389 OFFCURVE",
"667 1368 OFFCURVE",
"654 1269 CURVE SMOOTH",
"642 1169 OFFCURVE",
"654 1149 OFFCURVE",
"692 1149 CURVE SMOOTH",
"755 1149 LINE",
"675 507 LINE SMOOTH",
"652 319 OFFCURVE",
"572 240 OFFCURVE",
"475 240 CURVE SMOOTH",
"392 240 OFFCURVE",
"336 298 OFFCURVE",
"336 433 CURVE SMOOTH",
"336 455 OFFCURVE",
"337 480 OFFCURVE",
"341 507 CURVE SMOOTH",
"420 1149 LINE",
"483 1149 LINE SMOOTH",
"521 1149 OFFCURVE",
"537 1169 OFFCURVE",
"550 1269 CURVE SMOOTH",
"562 1368 OFFCURVE",
"550 1389 OFFCURVE",
"513 1389 CURVE SMOOTH",
"206 1389 LINE SMOOTH",
"170 1389 OFFCURVE",
"152 1368 OFFCURVE",
"140 1269 CURVE SMOOTH",
"128 1169 OFFCURVE",
"140 1149 OFFCURVE",
"177 1149 CURVE SMOOTH",
"215 1149 LINE",
"136 507 LINE SMOOTH",
"131 468 OFFCURVE",
"129 431 OFFCURVE",
"129 396 CURVE SMOOTH",
"129 133 OFFCURVE",
"256 -26 OFFCURVE",
"459 -26 CURVE SMOOTH",
"688 -26 OFFCURVE",
"834 144 OFFCURVE",
"875 472 CURVE SMOOTH",
"960 1149 LINE",
"998 1149 LINE SMOOTH",
"1035 1149 OFFCURVE",
"1052 1169 OFFCURVE",
"1064 1269 CURVE SMOOTH",
"1077 1368 OFFCURVE",
"1064 1389 OFFCURVE",
"1028 1389 CURVE SMOOTH"
);
}
);
width = 1006;
},
{
layerId = "38D47A70-C265-4203-8B70-C23C50FC2DCC";
paths = (
{
closed = 1;
nodes = (
"745 1389 LINE SMOOTH",
"709 1389 OFFCURVE",
"692 1368 OFFCURVE",
"685 1310 CURVE SMOOTH",
"676 1251 OFFCURVE",
"689 1230 OFFCURVE",
"726 1230 CURVE SMOOTH",
"818 1230 LINE",
"726 483 LINE SMOOTH",
"695 240 OFFCURVE",
"613 147 OFFCURVE",
"463 147 CURVE SMOOTH",
"339 147 OFFCURVE",
"277 212 OFFCURVE",
"277 376 CURVE SMOOTH",
"277 407 OFFCURVE",
"280 444 OFFCURVE",
"284 483 CURVE SMOOTH",
"377 1230 LINE",
"468 1230 LINE SMOOTH",
"506 1230 OFFCURVE",
"523 1251 OFFCURVE",
"530 1310 CURVE SMOOTH",
"537 1368 OFFCURVE",
"525 1389 OFFCURVE",
"488 1389 CURVE SMOOTH",
"222 1389 LINE SMOOTH",
"186 1389 OFFCURVE",
"169 1368 OFFCURVE",
"161 1310 CURVE SMOOTH",
"154 1251 OFFCURVE",
"166 1230 OFFCURVE",
"204 1230 CURVE SMOOTH",
"254 1230 LINE",
"160 472 LINE SMOOTH",
"156 428 OFFCURVE",
"152 387 OFFCURVE",
"152 350 CURVE SMOOTH",
"152 98 OFFCURVE",
"269 -26 OFFCURVE",
"455 -26 CURVE SMOOTH",
"668 -26 OFFCURVE",
"803 115 OFFCURVE",
"844 448 CURVE SMOOTH",
"941 1230 LINE",
"991 1230 LINE SMOOTH",
"1029 1230 OFFCURVE",
"1045 1251 OFFCURVE",
"1053 1310 CURVE SMOOTH",
"1060 1368 OFFCURVE",
"1047 1389 OFFCURVE",
"1011 1389 CURVE SMOOTH"
);
}
);
width = 1006;
}
);
unicode = 0055;
},
{
glyphname = V;
lastChange = "2026-02-27 13:18:40 +0000";
layers = (
{
layerId = UUID0;
paths = (
{
closed = 1;
nodes = (
"738 1389 LINE SMOOTH",
"702 1389 OFFCURVE",
"685 1368 OFFCURVE",
"673 1269 CURVE SMOOTH",
"660 1169 OFFCURVE",
"673 1149 OFFCURVE",
"709 1149 CURVE SMOOTH",
"768 1149 LINE",
"492 432 LINE",
"404 1149 LINE",
"476 1149 LINE SMOOTH",
"514 1149 OFFCURVE",
"531 1169 OFFCURVE",
"543 1269 CURVE SMOOTH",
"556 1368 OFFCURVE",
"543 1389 OFFCURVE",
"507 1389 CURVE SMOOTH",
"157 1389 LINE SMOOTH",
"121 1389 OFFCURVE",
"103 1368 OFFCURVE",
"91 1269 CURVE SMOOTH",
"78 1169 OFFCURVE",
"91 1149 OFFCURVE",
"128 1149 CURVE SMOOTH",
"191 1149 LINE",
"342 50 LINE SMOOTH",
"349 -4 OFFCURVE",
"372 -26 OFFCURVE",
"440 -26 CURVE SMOOTH",
"508 -26 OFFCURVE",
"537 -5 OFFCURVE",
"558 50 CURVE SMOOTH",
"991 1149 LINE",
"1047 1149 LINE SMOOTH",
"1084 1149 OFFCURVE",
"1101 1169 OFFCURVE",
"1113 1269 CURVE SMOOTH",
"1126 1368 OFFCURVE",
"1113 1389 OFFCURVE",
"1077 1389 CURVE SMOOTH"
);
}
);
width = 1006;
},
{
layerId = "38D47A70-C265-4203-8B70-C23C50FC2DCC";
paths = (
{
closed = 1;
nodes = (
"786 1389 LINE SMOOTH",
"750 1389 OFFCURVE",
"733 1368 OFFCURVE",
"726 1310 CURVE SMOOTH",
"717 1251 OFFCURVE",
"730 1230 OFFCURVE",
"767 1230 CURVE SMOOTH",
"846 1230 LINE",
"466 195 LINE",
"343 1230 LINE",
"460 1230 LINE SMOOTH",
"497 1230 OFFCURVE",
"515 1251 OFFCURVE",
"522 1310 CURVE SMOOTH",
"529 1368 OFFCURVE",
"517 1389 OFFCURVE",
"480 1389 CURVE SMOOTH",
"173 1389 LINE SMOOTH",
"137 1389 OFFCURVE",
"119 1368 OFFCURVE",
"112 1310 CURVE SMOOTH",
"105 1251 OFFCURVE",
"117 1230 OFFCURVE",
"154 1230 CURVE SMOOTH",
"219 1230 LINE",
"365 50 LINE SMOOTH",
"371 -4 OFFCURVE",
"396 -26 OFFCURVE",
"442 -26 CURVE SMOOTH",
"489 -26 OFFCURVE",
"520 -5 OFFCURVE",
"540 50 CURVE SMOOTH",
"980 1230 LINE",
"1040 1230 LINE SMOOTH",
"1078 1230 OFFCURVE",
"1094 1251 OFFCURVE",
"1102 1310 CURVE SMOOTH",
"1109 1368 OFFCURVE",
"1097 1389 OFFCURVE",
"1060 1389 CURVE SMOOTH"
);
}
);
width = 1006;
}
);
unicode = 0056;
},
{
glyphname = W;
lastChange = "2026-02-27 13:18:40 +0000";
layers = (
{
layerId = UUID0;
paths = (
{
closed = 1;
nodes = (
"770 1389 LINE SMOOTH",
"734 1389 OFFCURVE",
"716 1368 OFFCURVE",
"703 1269 CURVE SMOOTH",
"692 1169 OFFCURVE",
"703 1149 OFFCURVE",
"741 1149 CURVE SMOOTH",
"826 1149 LINE",
"695 477 LINE",
"638 975 LINE SMOOTH",
"635 1005 OFFCURVE",
"619 1022 OFFCURVE",
"562 1022 CURVE SMOOTH",
"507 1022 OFFCURVE",
"490 997 OFFCURVE",
"479 967 CURVE SMOOTH",
"300 477 LINE",
"337 1149 LINE",
"434 1149 LINE SMOOTH",
"472 1149 OFFCURVE",
"488 1169 OFFCURVE",
"501 1269 CURVE SMOOTH",
"513 1368 OFFCURVE",
"501 1389 OFFCURVE",
"463 1389 CURVE SMOOTH",
"149 1389 LINE SMOOTH",
"112 1389 OFFCURVE",
"95 1368 OFFCURVE",
"83 1269 CURVE SMOOTH",
"70 1169 OFFCURVE",
"83 1149 OFFCURVE",
"119 1149 CURVE SMOOTH",
"160 1149 LINE",
"104 50 LINE SMOOTH",
"102 -6 OFFCURVE",
"118 -26 OFFCURVE",
"193 -26 CURVE SMOOTH",
"267 -26 OFFCURVE",
"296 -4 OFFCURVE",
"316 50 CURVE SMOOTH",
"516 602 LINE",
"579 50 LINE SMOOTH",
"586 -2 OFFCURVE",
"607 -26 OFFCURVE",
"682 -26 CURVE SMOOTH",
"757 -26 OFFCURVE",
"779 -7 OFFCURVE",
"791 50 CURVE SMOOTH",
"1010 1149 LINE",
"1056 1149 LINE SMOOTH",
"1092 1149 OFFCURVE",
"1109 1169 OFFCURVE",
"1121 1269 CURVE SMOOTH",
"1134 1368 OFFCURVE",
"1121 1389 OFFCURVE",
"1085 1389 CURVE SMOOTH"
);
}
);
width = 1006;
},
{
layerId = "38D47A70-C265-4203-8B70-C23C50FC2DCC";
paths = (
{
closed = 1;
nodes = (
"811 1389 LINE SMOOTH",
"775 1389 OFFCURVE",
"757 1368 OFFCURVE",
"750 1310 CURVE SMOOTH",
"742 1251 OFFCURVE",
"755 1230 OFFCURVE",
"791 1230 CURVE SMOOTH",
"893 1230 LINE",
"692 289 LINE",
"623 989 LINE SMOOTH",
"619 1019 OFFCURVE",
"605 1036 OFFCURVE",
"570 1036 CURVE SMOOTH",
"534 1036 OFFCURVE",
"514 1011 OFFCURVE",
"503 981 CURVE SMOOTH",
"267 297 LINE",
"300 1230 LINE",
"419 1230 LINE SMOOTH",
"456 1230 OFFCURVE",
"474 1251 OFFCURVE",
"481 1310 CURVE SMOOTH",
"488 1368 OFFCURVE",
"476 1389 OFFCURVE",
"439 1389 CURVE SMOOTH",
"157 1389 LINE SMOOTH",
"121 1389 OFFCURVE",
"103 1368 OFFCURVE",
"96 1310 CURVE SMOOTH",
"89 1251 OFFCURVE",
"101 1230 OFFCURVE",
"138 1230 CURVE SMOOTH",
"181 1230 LINE",
"144 50 LINE SMOOTH",
"143 -6 OFFCURVE",
"163 -26 OFFCURVE",
"204 -26 CURVE SMOOTH",
"246 -26 OFFCURVE",
"280 -4 OFFCURVE",
"298 50 CURVE SMOOTH",
"536 730 LINE",
"603 50 LINE SMOOTH",
"607 -4 OFFCURVE",
"635 -26 OFFCURVE",
"678 -26 CURVE SMOOTH",
"720 -26 OFFCURVE",
"744 -7 OFFCURVE",
"757 50 CURVE SMOOTH",
"1016 1230 LINE",
"1057 1230 LINE SMOOTH",
"1094 1230 OFFCURVE",
"1111 1251 OFFCURVE",
"1119 1310 CURVE SMOOTH",
"1126 1368 OFFCURVE",
"1113 1389 OFFCURVE",
"1077 1389 CURVE SMOOTH"
);
}
);
width = 1006;
}
);
unicode = 0057;
},
{
glyphname = X;
lastChange = "2026-02-27 13:18:40 +0000";
layers = (
{
layerId = UUID0;
paths = (
{
closed = 1;
nodes = (
"775 1267 LINE",
"490 800 LINE",
"422 761 LINE",
"28 125 LINE",
"269 125 LINE",
"583 635 LINE",
"653 678 LINE",
"1017 1267 LINE"
);
},
{
closed = 1;
nodes = (
"48 240 LINE SMOOTH",
"12 240 OFFCURVE",
"-7 219 OFFCURVE",
"-19 119 CURVE SMOOTH",
"-32 20 OFFCURVE",
"-18 0 OFFCURVE",
"19 0 CURVE SMOOTH",
"341 0 LINE SMOOTH",
"377 0 OFFCURVE",
"393 20 OFFCURVE",
"406 119 CURVE SMOOTH",
"418 219 OFFCURVE",
"406 240 OFFCURVE",
"370 240 CURVE SMOOTH"
);
},
{
closed = 1;
nodes = (
"578 240 LINE SMOOTH",
"541 240 OFFCURVE",
"523 219 OFFCURVE",
"510 119 CURVE SMOOTH",
"499 20 OFFCURVE",
"511 0 OFFCURVE",
"548 0 CURVE SMOOTH",
"873 0 LINE SMOOTH",
"909 0 OFFCURVE",
"926 20 OFFCURVE",
"939 119 CURVE SMOOTH",
"950 219 OFFCURVE",
"939 240 OFFCURVE",
"902 240 CURVE SMOOTH"
);
},
{
closed = 1;
nodes = (
"199 1267 LINE",
"425 675 LINE",
"466 638 LINE",
"657 125 LINE",
"888 125 LINE",
"648 744 LINE",
"605 777 LINE",
"426 1267 LINE"
);
},
{
closed = 1;
nodes = (
"214 1389 LINE SMOOTH",
"178 1389 OFFCURVE",
"160 1368 OFFCURVE",
"149 1269 CURVE SMOOTH",
"136 1169 OFFCURVE",
"149 1149 OFFCURVE",
"185 1149 CURVE SMOOTH",
"503 1149 LINE SMOOTH",
"540 1149 OFFCURVE",
"557 1169 OFFCURVE",
"570 1269 CURVE SMOOTH",
"582 1368 OFFCURVE",
"570 1389 OFFCURVE",
"532 1389 CURVE SMOOTH"
);
},
{
closed = 1;
nodes = (
"716 1389 LINE SMOOTH",
"679 1389 OFFCURVE",
"662 1368 OFFCURVE",
"650 1269 CURVE SMOOTH",
"638 1169 OFFCURVE",
"650 1149 OFFCURVE",
"687 1149 CURVE SMOOTH",
"990 1149 LINE SMOOTH",
"1026 1149 OFFCURVE",
"1044 1169 OFFCURVE",
"1056 1269 CURVE SMOOTH",
"1068 1368 OFFCURVE",
"1056 1389 OFFCURVE",
"1019 1389 CURVE SMOOTH"
);
}
);
width = 1006;
},
{
layerId = "38D47A70-C265-4203-8B70-C23C50FC2DCC";
paths = (
{
closed = 1;
nodes = (
"788 1244 LINE",
"540 840 LINE",
"521 827 LINE",
"89 145 LINE",
"247 145 LINE",
"550 631 LINE",
"564 634 LINE",
"946 1244 LINE"
);
},
{
closed = 1;
nodes = (
"54 159 LINE SMOOTH",
"18 159 OFFCURVE",
"0 138 OFFCURVE",
"-7 80 CURVE SMOOTH",
"-14 21 OFFCURVE",
"-1 0 OFFCURVE",
"35 0 CURVE SMOOTH",
"309 0 LINE SMOOTH",
"345 0 OFFCURVE",
"363 21 OFFCURVE",
"370 80 CURVE SMOOTH",
"377 138 OFFCURVE",
"365 159 OFFCURVE",
"328 159 CURVE SMOOTH"
);
},
{
closed = 1;
nodes = (
"593 159 LINE SMOOTH",
"556 159 OFFCURVE",
"540 138 OFFCURVE",
"531 80 CURVE SMOOTH",
"525 21 OFFCURVE",
"537 0 OFFCURVE",
"575 0 CURVE SMOOTH",
"857 0 LINE SMOOTH",
"893 0 OFFCURVE",
"910 21 OFFCURVE",
"916 80 CURVE SMOOTH",
"925 138 OFFCURVE",
"912 159 OFFCURVE",
"875 159 CURVE SMOOTH"
);
},
{
closed = 1;
nodes = (
"268 1246 LINE",
"490 658 LINE",
"513 618 LINE",
"685 143 LINE",
"827 143 LINE",
"590 774 LINE",
"576 789 LINE",
"410 1246 LINE"
);
},
{
closed = 1;
nodes = (
"231 1389 LINE SMOOTH",
"194 1389 OFFCURVE",
"177 1368 OFFCURVE",
"170 1310 CURVE SMOOTH",
"163 1251 OFFCURVE",
"174 1230 OFFCURVE",
"212 1230 CURVE SMOOTH",
"484 1230 LINE SMOOTH",
"522 1230 OFFCURVE",
"540 1251 OFFCURVE",
"547 1310 CURVE SMOOTH",
"554 1368 OFFCURVE",
"542 1389 OFFCURVE",
"504 1389 CURVE SMOOTH"
);
},
{
closed = 1;
nodes = (
"745 1389 LINE SMOOTH",
"709 1389 OFFCURVE",
"692 1368 OFFCURVE",
"685 1310 CURVE SMOOTH",
"676 1251 OFFCURVE",
"689 1230 OFFCURVE",
"726 1230 CURVE SMOOTH",
"983 1230 LINE SMOOTH",
"1020 1230 OFFCURVE",
"1037 1251 OFFCURVE",
"1045 1310 CURVE SMOOTH",
"1052 1368 OFFCURVE",
"1039 1389 OFFCURVE",
"1003 1389 CURVE SMOOTH"
);
}
);
width = 1006;
}
);
unicode = 0058;
},
{
glyphname = Y;
lastChange = "2026-02-27 13:18:40 +0000";
layers = (
{
layerId = UUID0;
paths = (
{
closed = 1;
nodes = (
"721 1389 LINE SMOOTH",
"685 1389 OFFCURVE",
"667 1368 OFFCURVE",
"654 1269 CURVE SMOOTH",
"642 1169 OFFCURVE",
"654 1149 OFFCURVE",
"692 1149 CURVE SMOOTH",
"734 1149 LINE",
"538 807 LINE",
"428 1149 LINE",
"483 1149 LINE SMOOTH",
"521 1149 OFFCURVE",
"537 1169 OFFCURVE",
"550 1269 CURVE SMOOTH",
"562 1368 OFFCURVE",
"550 1389 OFFCURVE",
"513 1389 CURVE SMOOTH",
"198 1389 LINE SMOOTH",
"161 1389 OFFCURVE",
"144 1368 OFFCURVE",
"132 1269 CURVE SMOOTH",
"119 1169 OFFCURVE",
"132 1149 OFFCURVE",
"169 1149 CURVE SMOOTH",
"209 1149 LINE",
"411 547 LINE",
"373 240 LINE",
"220 240 LINE SMOOTH",
"184 240 OFFCURVE",
"165 219 OFFCURVE",
"153 119 CURVE SMOOTH",
"140 20 OFFCURVE",
"154 0 OFFCURVE",
"191 0 CURVE SMOOTH",
"717 0 LINE SMOOTH",
"754 0 OFFCURVE",
"770 20 OFFCURVE",
"783 119 CURVE SMOOTH",
"795 219 OFFCURVE",
"783 240 OFFCURVE",
"747 240 CURVE SMOOTH",
"578 240 LINE",
"614 538 LINE",
"969 1149 LINE",
"1006 1149 LINE SMOOTH",
"1043 1149 OFFCURVE",
"1060 1169 OFFCURVE",
"1072 1269 CURVE SMOOTH",
"1085 1368 OFFCURVE",
"1072 1389 OFFCURVE",
"1036 1389 CURVE SMOOTH"
);
}
);
width = 1006;
},
{
layerId = "38D47A70-C265-4203-8B70-C23C50FC2DCC";
paths = (
{
closed = 1;
nodes = (
"770 1389 LINE SMOOTH",
"734 1389 OFFCURVE",
"716 1368 OFFCURVE",
"709 1310 CURVE SMOOTH",
"701 1251 OFFCURVE",
"714 1230 OFFCURVE",
"750 1230 CURVE SMOOTH",
"800 1230 LINE",
"535 751 LINE",
"390 1230 LINE",
"468 1230 LINE SMOOTH",
"506 1230 OFFCURVE",
"523 1251 OFFCURVE",
"530 1310 CURVE SMOOTH",
"537 1368 OFFCURVE",
"525 1389 OFFCURVE",
"488 1389 CURVE SMOOTH",
"214 1389 LINE SMOOTH",
"178 1389 OFFCURVE",
"160 1368 OFFCURVE",
"153 1310 CURVE SMOOTH",
"146 1251 OFFCURVE",
"158 1230 OFFCURVE",
"195 1230 CURVE SMOOTH",
"255 1230 LINE",
"455 584 LINE",
"403 159 LINE",
"226 159 LINE SMOOTH",
"190 159 OFFCURVE",
"172 138 OFFCURVE",
"165 80 CURVE SMOOTH",
"158 21 OFFCURVE",
"171 0 OFFCURVE",
"207 0 CURVE SMOOTH",
"701 0 LINE SMOOTH",
"737 0 OFFCURVE",
"755 21 OFFCURVE",
"761 80 CURVE SMOOTH",
"769 138 OFFCURVE",
"756 159 OFFCURVE",
"720 159 CURVE SMOOTH",
"525 159 LINE",
"577 569 LINE",
"947 1230 LINE",
"999 1230 LINE SMOOTH",
"1037 1230 OFFCURVE",
"1053 1251 OFFCURVE",
"1061 1310 CURVE SMOOTH",
"1068 1368 OFFCURVE",
"1056 1389 OFFCURVE",
"1019 1389 CURVE SMOOTH"
);
}
);
width = 1006;
}
);
unicode = 0059;
},
{
glyphname = Z;
lastChange = "2026-02-27 13:18:40 +0000";
layers = (
{
layerId = UUID0;
paths = (
{
closed = 1;
nodes = (
"296 1389 LINE SMOOTH",
"259 1389 OFFCURVE",
"240 1367 OFFCURVE",
"234 1313 CURVE SMOOTH",
"183 901 LINE SMOOTH",
"177 848 OFFCURVE",
"193 827 OFFCURVE",
"262 827 CURVE SMOOTH",
"332 827 OFFCURVE",
"365 848 OFFCURVE",
"371 901 CURVE SMOOTH",
"400 1138 LINE",
"666 1138 LINE",
"108 228 LINE SMOOTH",
"95 206 OFFCURVE",
"84 172 OFFCURVE",
"78 119 CURVE SMOOTH",
"66 20 OFFCURVE",
"78 0 OFFCURVE",
"116 0 CURVE SMOOTH",
"783 0 LINE SMOOTH",
"820 0 OFFCURVE",
"838 22 OFFCURVE",
"845 76 CURVE SMOOTH",
"899 511 LINE SMOOTH",
"905 564 OFFCURVE",
"889 585 OFFCURVE",
"819 585 CURVE SMOOTH",
"750 585 OFFCURVE",
"716 564 OFFCURVE",
"710 511 CURVE SMOOTH",
"678 252 LINE",
"385 252 LINE",
"943 1161 LINE SMOOTH",
"957 1185 OFFCURVE",
"969 1218 OFFCURVE",
"976 1269 CURVE SMOOTH",
"988 1368 OFFCURVE",
"976 1389 OFFCURVE",
"939 1389 CURVE SMOOTH"
);
}
);
width = 1006;
},
{
layerId = "38D47A70-C265-4203-8B70-C23C50FC2DCC";
paths = (
{
closed = 1;
nodes = (
"311 1389 LINE SMOOTH",
"275 1389 OFFCURVE",
"257 1368 OFFCURVE",
"250 1310 CURVE SMOOTH",
"204 939 LINE SMOOTH",
"198 885 OFFCURVE",
"209 863 OFFCURVE",
"255 863 CURVE SMOOTH",
"302 863 OFFCURVE",
"321 885 OFFCURVE",
"327 939 CURVE SMOOTH",
"363 1230 LINE",
"767 1230 LINE",
"115 130 LINE SMOOTH",
"106 116 OFFCURVE",
"99 101 OFFCURVE",
"97 80 CURVE SMOOTH",
"90 21 OFFCURVE",
"103 0 OFFCURVE",
"139 0 CURVE SMOOTH",
"767 0 LINE SMOOTH",
"804 0 OFFCURVE",
"820 21 OFFCURVE",
"827 80 CURVE SMOOTH",
"877 474 LINE SMOOTH",
"884 528 OFFCURVE",
"870 550 OFFCURVE",
"824 550 CURVE SMOOTH",
"778 550 OFFCURVE",
"761 528 OFFCURVE",
"754 474 CURVE SMOOTH",
"714 159 LINE",
"287 159 LINE",
"942 1264 LINE SMOOTH",
"949 1276 OFFCURVE",
"954 1291 OFFCURVE",
"956 1310 CURVE SMOOTH",
"963 1368 OFFCURVE",
"951 1389 OFFCURVE",
"914 1389 CURVE SMOOTH"
);
}
);
width = 1006;
}
);
unicode = 005A;
},
{
glyphname = bracketleft;
lastChange = "2026-02-27 13:18:40 +0000";
layers = (
{
layerId = UUID0;
paths = (
{
closed = 1;
nodes = (
"431 1606 LINE SMOOTH",
"393 1606 OFFCURVE",
"376 1585 OFFCURVE",
"370 1532 CURVE SMOOTH",
"140 -316 LINE SMOOTH",
"135 -369 OFFCURVE",
"146 -390 OFFCURVE",
"184 -390 CURVE SMOOTH",
"602 -390 LINE SMOOTH",
"638 -390 OFFCURVE",
"657 -366 OFFCURVE",
"669 -257 CURVE SMOOTH",
"681 -149 OFFCURVE",
"671 -126 OFFCURVE",
"634 -126 CURVE SMOOTH",
"370 -126 LINE",
"550 1342 LINE",
"816 1342 LINE SMOOTH",
"852 1342 OFFCURVE",
"871 1374 OFFCURVE",
"884 1473 CURVE SMOOTH",
"895 1582 OFFCURVE",
"885 1606 OFFCURVE",
"848 1606 CURVE SMOOTH"
);
}
);
width = 1006;
},
{
layerId = "38D47A70-C265-4203-8B70-C23C50FC2DCC";
paths = (
{
closed = 1;
nodes = (
"463 1606 LINE SMOOTH",
"426 1606 OFFCURVE",
"408 1585 OFFCURVE",
"401 1526 CURVE SMOOTH",
"174 -310 LINE SMOOTH",
"167 -369 OFFCURVE",
"179 -390 OFFCURVE",
"217 -390 CURVE SMOOTH",
"556 -390 LINE SMOOTH",
"592 -390 OFFCURVE",
"611 -366 OFFCURVE",
"618 -305 CURVE SMOOTH",
"625 -245 OFFCURVE",
"613 -221 OFFCURVE",
"577 -221 CURVE SMOOTH",
"309 -221 LINE",
"513 1437 LINE",
"781 1437 LINE SMOOTH",
"818 1437 OFFCURVE",
"836 1461 OFFCURVE",
"843 1521 CURVE SMOOTH",
"851 1582 OFFCURVE",
"839 1606 OFFCURVE",
"802 1606 CURVE SMOOTH"
);
}
);
width = 1006;
}
);
unicode = 005B;
},
{
glyphname = backslash;
lastChange = "2026-02-27 13:18:40 +0000";
layers = (
{
layerId = UUID0;
paths = (
{
closed = 1;
nodes = (
"309 1637 OFFCURVE",
"255 1597 OFFCURVE",
"266 1535 CURVE SMOOTH",
"591 -371 LINE SMOOTH",
"597 -405 OFFCURVE",
"616 -421 OFFCURVE",
"647 -421 CURVE SMOOTH",
"731 -421 OFFCURVE",
"785 -382 OFFCURVE",
"775 -319 CURVE SMOOTH",
"449 1587 LINE SMOOTH",
"444 1621 OFFCURVE",
"425 1637 OFFCURVE",
"393 1637 CURVE SMOOTH"
);
}
);
width = 1006;
},
{
layerId = "38D47A70-C265-4203-8B70-C23C50FC2DCC";
paths = (
{
closed = 1;
nodes = (
"337 1631 OFFCURVE",
"296 1602 OFFCURVE",
"304 1556 CURVE SMOOTH",
"613 -378 LINE SMOOTH",
"618 -403 OFFCURVE",
"638 -415 OFFCURVE",
"667 -415 CURVE SMOOTH",
"703 -415 OFFCURVE",
"744 -386 OFFCURVE",
"736 -341 CURVE SMOOTH",
"427 1594 LINE SMOOTH",
"422 1619 OFFCURVE",
"401 1631 OFFCURVE",
"373 1631 CURVE SMOOTH"
);
}
);
width = 1006;
}
);
unicode = 005C;
},
{
glyphname = bracketright;
lastChange = "2026-02-27 13:18:40 +0000";
layers = (
{
layerId = UUID0;
paths = (
{
closed = 1;
nodes = (
"440 1606 LINE SMOOTH",
"403 1606 OFFCURVE",
"384 1582 OFFCURVE",
"372 1473 CURVE SMOOTH",
"359 1365 OFFCURVE",
"370 1342 OFFCURVE",
"407 1342 CURVE SMOOTH",
"672 1342 LINE",
"490 -126 LINE",
"226 -126 LINE SMOOTH",
"190 -126 OFFCURVE",
"170 -158 OFFCURVE",
"158 -257 CURVE SMOOTH",
"145 -366 OFFCURVE",
"157 -390 OFFCURVE",
"193 -390 CURVE SMOOTH",
"611 -390 LINE SMOOTH",
"648 -390 OFFCURVE",
"665 -369 OFFCURVE",
"672 -316 CURVE SMOOTH",
"900 1532 LINE SMOOTH",
"907 1585 OFFCURVE",
"894 1606 OFFCURVE",
"858 1606 CURVE SMOOTH"
);
}
);
width = 1006;
},
{
layerId = "38D47A70-C265-4203-8B70-C23C50FC2DCC";
paths = (
{
closed = 1;
nodes = (
"486 1606 LINE SMOOTH",
"449 1606 OFFCURVE",
"431 1582 OFFCURVE",
"424 1521 CURVE SMOOTH",
"417 1461 OFFCURVE",
"427 1437 OFFCURVE",
"465 1437 CURVE SMOOTH",
"733 1437 LINE",
"529 -221 LINE",
"261 -221 LINE SMOOTH",
"224 -221 OFFCURVE",
"206 -245 OFFCURVE",
"198 -305 CURVE SMOOTH",
"191 -366 OFFCURVE",
"202 -390 OFFCURVE",
"239 -390 CURVE SMOOTH",
"578 -390 LINE SMOOTH",
"616 -390 OFFCURVE",
"632 -369 OFFCURVE",
"640 -310 CURVE SMOOTH",
"867 1526 LINE SMOOTH",
"874 1585 OFFCURVE",
"861 1606 OFFCURVE",
"825 1606 CURVE SMOOTH"
);
}
);
width = 1006;
}
);
unicode = 005D;
},
{
glyphname = asciicircum;
lastChange = "2026-02-27 13:18:40 +0000";
layers = (
{
layerId = UUID0;
paths = (
{
closed = 1;
nodes = (
"572 1415 OFFCURVE",
"548 1400 OFFCURVE",
"534 1372 CURVE SMOOTH",
"186 658 LINE SMOOTH",
"163 609 OFFCURVE",
"208 569 OFFCURVE",
"261 554 CURVE SMOOTH",
"308 541 OFFCURVE",
"359 547 OFFCURVE",
"374 582 CURVE SMOOTH",
"582 1038 LINE",
"681 582 LINE SMOOTH",
"689 543 OFFCURVE",
"744 540 OFFCURVE",
"792 558 CURVE SMOOTH",
"838 576 OFFCURVE",
"878 613 OFFCURVE",
"867 658 CURVE SMOOTH",
"695 1372 LINE SMOOTH",
"688 1400 OFFCURVE",
"668 1415 OFFCURVE",
"620 1415 CURVE SMOOTH"
);
}
);
width = 1006;
},
{
layerId = "38D47A70-C265-4203-8B70-C23C50FC2DCC";
paths = (
{
closed = 1;
nodes = (
"589 1415 OFFCURVE",
"572 1400 OFFCURVE",
"558 1372 CURVE SMOOTH",
"221 680 LINE SMOOTH",
"201 638 OFFCURVE",
"224 606 OFFCURVE",
"255 593 CURVE SMOOTH",
"283 582 OFFCURVE",
"321 586 OFFCURVE",
"335 617 CURVE SMOOTH",
"597 1178 LINE",
"722 617 LINE SMOOTH",
"730 585 OFFCURVE",
"765 582 OFFCURVE",
"796 597 CURVE SMOOTH",
"824 611 OFFCURVE",
"847 641 OFFCURVE",
"837 680 CURVE SMOOTH",
"671 1372 LINE SMOOTH",
"662 1400 OFFCURVE",
"652 1415 OFFCURVE",
"620 1415 CURVE SMOOTH"
);
}
);
width = 1006;
}
);
unicode = 005E;
},
{
glyphname = underscore;
lastChange = "2026-02-27 13:18:40 +0000";
layers = (
{
background = {
paths = (
{
closed = 1;
nodes = (
"308 1395 LINE SMOOTH",
"255 1395 OFFCURVE",
"228 1372 OFFCURVE",
"211 1263 CURVE SMOOTH",
"193 1154 OFFCURVE",
"208 1132 OFFCURVE",
"261 1132 CURVE SMOOTH",
"639 1132 LINE",
"380 -337 LINE",
"2 -337 LINE SMOOTH",
"-50 -337 OFFCURVE",
"-78 -369 OFFCURVE",
"-95 -468 CURVE SMOOTH",
"-112 -577 OFFCURVE",
"-97 -600 OFFCURVE",
"-44 -600 CURVE SMOOTH",
"552 -600 LINE SMOOTH",
"605 -600 OFFCURVE",
"630 -579 OFFCURVE",
"639 -527 CURVE SMOOTH",
"965 1321 LINE SMOOTH",
"975 1374 OFFCURVE",
"957 1395 OFFCURVE",
"905 1395 CURVE SMOOTH"
);
},
{
closed = 1;
nodes = (
"-29 -337 LINE SMOOTH",
"-59 -337 OFFCURVE",
"-71 -358 OFFCURVE",
"-91 -469 CURVE SMOOTH",
"-111 -580 OFFCURVE",
"-105 -600 OFFCURVE",
"-76 -600 CURVE SMOOTH",
"1372 -600 LINE SMOOTH",
"1401 -600 OFFCURVE",
"1414 -580 OFFCURVE",
"1434 -469 CURVE SMOOTH",
"1453 -358 OFFCURVE",
"1448 -337 OFFCURVE",
"1418 -337 CURVE SMOOTH"
);
},
{
closed = 1;
nodes = (
"1092 1395 LINE SMOOTH",
"1039 1395 OFFCURVE",
"1015 1374 OFFCURVE",
"1005 1321 CURVE SMOOTH",
"679 -527 LINE SMOOTH",
"669 -579 OFFCURVE",
"687 -600 OFFCURVE",
"740 -600 CURVE SMOOTH",
"1336 -600 LINE SMOOTH",
"1389 -600 OFFCURVE",
"1416 -577 OFFCURVE",
"1434 -468 CURVE SMOOTH",
"1451 -359 OFFCURVE",
"1436 -337 OFFCURVE",
"1383 -337 CURVE SMOOTH",
"1005 -337 LINE",
"1264 1132 LINE",
"1642 1132 LINE SMOOTH",
"1695 1132 OFFCURVE",
"1721 1163 OFFCURVE",
"1739 1263 CURVE SMOOTH",
"1758 1372 OFFCURVE",
"1741 1395 OFFCURVE",
"1689 1395 CURVE SMOOTH"
);
}
);
};
layerId = UUID0;
paths = (
{
closed = 1;
nodes = (
"9 -337 LINE SMOOTH",
"-37 -337 OFFCURVE",
"-50 -356 OFFCURVE",
"-64 -469 CURVE SMOOTH",
"-78 -585 OFFCURVE",
"-69 -600 OFFCURVE",
"-20 -600 CURVE SMOOTH",
"933 -600 LINE SMOOTH",
"975 -600 OFFCURVE",
"990 -579 OFFCURVE",
"1004 -469 CURVE SMOOTH",
"1017 -357 OFFCURVE",
"1005 -337 OFFCURVE",
"964 -337 CURVE SMOOTH"
);
}
);
width = 1006;
},
{
background = {
paths = (
{
closed = 1;
nodes = (
"339 1496 LINE SMOOTH",
"287 1496 OFFCURVE",
"261 1472 OFFCURVE",
"250 1411 CURVE SMOOTH",
"240 1353 OFFCURVE",
"256 1329 OFFCURVE",
"309 1329 CURVE SMOOTH",
"685 1329 LINE",
"398 -300 LINE",
"22 -300 LINE SMOOTH",
"-30 -300 OFFCURVE",
"-54 -322 OFFCURVE",
"-64 -383 CURVE SMOOTH",
"-75 -441 OFFCURVE",
"-60 -465 OFFCURVE",
"-8 -465 CURVE SMOOTH",
"468 -465 LINE SMOOTH",
"520 -465 OFFCURVE",
"545 -444 OFFCURVE",
"555 -387 CURVE SMOOTH",
"873 1416 LINE SMOOTH",
"884 1475 OFFCURVE",
"866 1496 OFFCURVE",
"815 1496 CURVE SMOOTH"
);
},
{
closed = 1;
nodes = (
"1216 1531 LINE SMOOTH",
"1163 1531 OFFCURVE",
"1139 1510 OFFCURVE",
"1128 1451 CURVE SMOOTH",
"804 -385 LINE SMOOTH",
"793 -444 OFFCURVE",
"811 -465 OFFCURVE",
"864 -465 CURVE SMOOTH",
"1348 -465 LINE SMOOTH",
"1401 -465 OFFCURVE",
"1427 -441 OFFCURVE",
"1437 -380 CURVE SMOOTH",
"1448 -319 OFFCURVE",
"1431 -296 OFFCURVE",
"1379 -296 CURVE SMOOTH",
"996 -296 LINE",
"1287 1362 LINE",
"1670 1362 LINE SMOOTH",
"1723 1362 OFFCURVE",
"1748 1386 OFFCURVE",
"1759 1446 CURVE SMOOTH",
"1769 1507 OFFCURVE",
"1753 1531 OFFCURVE",
"1700 1531 CURVE SMOOTH"
);
}
);
};
layerId = "38D47A70-C265-4203-8B70-C23C50FC2DCC";
paths = (
{
closed = 1;
nodes = (
"12 -301 LINE SMOOTH",
"-22 -301 OFFCURVE",
"-39 -322 OFFCURVE",
"-44 -377 CURVE SMOOTH",
"-53 -445 OFFCURVE",
"-42 -460 OFFCURVE",
"-15 -460 CURVE SMOOTH",
"955 -460 LINE SMOOTH",
"984 -460 OFFCURVE",
"998 -441 OFFCURVE",
"1006 -380 CURVE SMOOTH",
"1013 -321 OFFCURVE",
"1003 -301 OFFCURVE",
"978 -301 CURVE SMOOTH"
);
}
);
width = 1006;
}
);
unicode = 005F;
},
{
glyphname = grave;
lastChange = "2026-02-27 13:18:40 +0000";
layers = (
{
layerId = UUID0;
paths = (
{
closed = 1;
nodes = (
"406 1655 OFFCURVE",
"371 1629 OFFCURVE",
"338 1523 CURVE SMOOTH",
"305 1415 OFFCURVE",
"312 1366 OFFCURVE",
"341 1355 CURVE SMOOTH",
"734 1209 LINE SMOOTH",
"761 1198 OFFCURVE",
"781 1219 OFFCURVE",
"790 1255 CURVE SMOOTH",
"799 1288 OFFCURVE",
"792 1321 OFFCURVE",
"771 1340 CURVE SMOOTH",
"437 1629 LINE SMOOTH"
);
}
);
width = 1006;
},
{
layerId = "38D47A70-C265-4203-8B70-C23C50FC2DCC";
paths = (
{
closed = 1;
nodes = (
"403 1617 OFFCURVE",
"383 1620 OFFCURVE",
"349 1532 CURVE SMOOTH",
"316 1449 OFFCURVE",
"327 1417 OFFCURVE",
"349 1407 CURVE SMOOTH",
"742 1216 LINE SMOOTH",
"763 1207 OFFCURVE",
"779 1226 OFFCURVE",
"788 1253 CURVE SMOOTH",
"795 1280 OFFCURVE",
"791 1311 OFFCURVE",
"771 1326 CURVE SMOOTH",
"431 1595 LINE SMOOTH"
);
}
);
width = 1006;
}
);
unicode = 0060;
},
{
glyphname = a;
lastChange = "2026-02-27 13:18:40 +0000";
layers = (
{
layerId = UUID0;
paths = (
{
closed = 1;
nodes = (
"222 1107 OFFCURVE",
"87 740 OFFCURVE",
"87 445 CURVE SMOOTH",
"87 169 OFFCURVE",
"201 -26 OFFCURVE",
"380 -26 CURVE SMOOTH",
"508 -26 OFFCURVE",
"616 43 OFFCURVE",
"706 200 CURVE",
"668 212 LINE",
"685 61 OFFCURVE",
"761 0 OFFCURVE",
"861 0 CURVE SMOOTH",
"881 0 LINE SMOOTH",
"918 0 OFFCURVE",
"936 23 OFFCURVE",
"949 132 CURVE SMOOTH",
"961 241 OFFCURVE",
"950 263 OFFCURVE",
"914 263 CURVE SMOOTH",
"909 263 LINE SMOOTH",
"858 263 OFFCURVE",
"832 305 OFFCURVE",
"845 410 CURVE SMOOTH",
"919 1008 LINE SMOOTH",
"926 1060 OFFCURVE",
"914 1081 OFFCURVE",
"877 1081 CURVE SMOOTH",
"799 1081 LINE SMOOTH",
"763 1081 OFFCURVE",
"744 1060 OFFCURVE",
"738 1008 CURVE SMOOTH",
"728 915 LINE",
"688 1031 OFFCURVE",
"604 1107 OFFCURVE",
"503 1107 CURVE SMOOTH"
);
},
{
closed = 1;
nodes = (
"602 840 OFFCURVE",
"668 757 OFFCURVE",
"668 611 CURVE SMOOTH",
"668 441 OFFCURVE",
"586 241 OFFCURVE",
"439 241 CURVE SMOOTH",
"352 241 OFFCURVE",
"304 327 OFFCURVE",
"304 458 CURVE SMOOTH",
"304 614 OFFCURVE",
"363 840 OFFCURVE",
"513 840 CURVE SMOOTH"
);
}
);
width = 1006;
},
{
layerId = "38D47A70-C265-4203-8B70-C23C50FC2DCC";
paths = (
{
closed = 1;
nodes = (
"250 1107 OFFCURVE",
"116 731 OFFCURVE",
"116 428 CURVE SMOOTH",
"116 149 OFFCURVE",
"240 -26 OFFCURVE",
"411 -26 CURVE SMOOTH",
"535 -26 OFFCURVE",
"631 59 OFFCURVE",
"708 215 CURVE",
"703 229 LINE",
"703 81 OFFCURVE",
"764 0 OFFCURVE",
"853 0 CURVE SMOOTH",
"863 0 LINE SMOOTH",
"900 0 OFFCURVE",
"916 23 OFFCURVE",
"925 84 CURVE SMOOTH",
"933 145 OFFCURVE",
"920 169 OFFCURVE",
"884 169 CURVE SMOOTH",
"879 169 LINE SMOOTH",
"829 169 OFFCURVE",
"799 220 OFFCURVE",
"812 327 CURVE SMOOTH",
"898 1017 LINE SMOOTH",
"903 1071 OFFCURVE",
"892 1093 OFFCURVE",
"848 1093 CURVE SMOOTH",
"846 1093 LINE SMOOTH",
"803 1093 OFFCURVE",
"789 1071 OFFCURVE",
"783 1017 CURVE SMOOTH",
"767 896 LINE",
"719 1023 OFFCURVE",
"638 1107 OFFCURVE",
"534 1107 CURVE SMOOTH"
);
},
{
closed = 1;
nodes = (
"645 934 OFFCURVE",
"721 825 OFFCURVE",
"721 633 CURVE SMOOTH",
"721 397 OFFCURVE",
"599 147 OFFCURVE",
"429 147 CURVE SMOOTH",
"310 147 OFFCURVE",
"245 264 OFFCURVE",
"245 439 CURVE SMOOTH",
"245 680 OFFCURVE",
"349 934 OFFCURVE",
"529 934 CURVE SMOOTH"
);
}
);
width = 1006;
}
);
unicode = 0061;
},
{
glyphname = b;
lastChange = "2026-02-27 13:18:40 +0000";
layers = (
{
layerId = UUID0;
paths = (
{
closed = 1;
nodes = (
"198 1535 LINE SMOOTH",
"160 1535 OFFCURVE",
"144 1514 OFFCURVE",
"131 1415 CURVE SMOOTH",
"119 1315 OFFCURVE",
"131 1296 OFFCURVE",
"169 1296 CURVE SMOOTH",
"247 1296 LINE",
"95 62 LINE SMOOTH",
"89 9 OFFCURVE",
"105 -12 OFFCURVE",
"166 -12 CURVE SMOOTH",
"228 -12 OFFCURVE",
"261 9 OFFCURVE",
"267 62 CURVE SMOOTH",
"281 178 LINE",
"322 55 OFFCURVE",
"408 -26 OFFCURVE",
"513 -26 CURVE SMOOTH",
"796 -26 OFFCURVE",
"932 342 OFFCURVE",
"932 637 CURVE SMOOTH",
"932 913 OFFCURVE",
"818 1107 OFFCURVE",
"635 1107 CURVE SMOOTH",
"551 1107 OFFCURVE",
"477 1057 OFFCURVE",
"412 975 CURVE",
"473 1462 LINE SMOOTH",
"480 1514 OFFCURVE",
"467 1535 OFFCURVE",
"431 1535 CURVE SMOOTH"
);
},
{
closed = 1;
nodes = (
"665 841 OFFCURVE",
"714 758 OFFCURVE",
"714 624 CURVE SMOOTH",
"714 473 OFFCURVE",
"654 240 OFFCURVE",
"504 240 CURVE SMOOTH",
"415 240 OFFCURVE",
"349 321 OFFCURVE",
"349 470 CURVE SMOOTH",
"349 642 OFFCURVE",
"431 841 OFFCURVE",
"578 841 CURVE SMOOTH"
);
}
);
width = 1006;
},
{
layerId = "38D47A70-C265-4203-8B70-C23C50FC2DCC";
paths = (
{
closed = 1;
nodes = (
"206 1535 LINE SMOOTH",
"169 1535 OFFCURVE",
"152 1514 OFFCURVE",
"144 1456 CURVE SMOOTH",
"137 1397 OFFCURVE",
"149 1376 OFFCURVE",
"186 1376 CURVE SMOOTH",
"269 1376 LINE",
"108 64 LINE SMOOTH",
"101 11 OFFCURVE",
"110 -12 OFFCURVE",
"156 -12 CURVE SMOOTH",
"201 -12 OFFCURVE",
"215 11 OFFCURVE",
"222 64 CURVE SMOOTH",
"238 185 LINE",
"289 60 OFFCURVE",
"376 -26 OFFCURVE",
"488 -26 CURVE SMOOTH",
"777 -26 OFFCURVE",
"908 350 OFFCURVE",
"908 653 CURVE SMOOTH",
"908 933 OFFCURVE",
"786 1107 OFFCURVE",
"611 1107 CURVE SMOOTH",
"506 1107 OFFCURVE",
"415 1042 OFFCURVE",
"337 926 CURVE",
"403 1456 LINE SMOOTH",
"410 1514 OFFCURVE",
"398 1535 OFFCURVE",
"360 1535 CURVE SMOOTH"
);
},
{
closed = 1;
nodes = (
"714 934 OFFCURVE",
"779 817 OFFCURVE",
"779 642 CURVE SMOOTH",
"779 401 OFFCURVE",
"676 147 OFFCURVE",
"493 147 CURVE SMOOTH",
"366 147 OFFCURVE",
"283 256 OFFCURVE",
"283 448 CURVE SMOOTH",
"283 689 OFFCURVE",
"394 934 OFFCURVE",
"589 934 CURVE"
);
}
);
width = 1006;
}
);
unicode = 0062;
},
{
glyphname = c;
lastChange = "2026-02-27 13:18:40 +0000";
layers = (
{
layerId = UUID0;
paths = (
{
closed = 1;
nodes = (
"791 1107 OFFCURVE",
"758 1086 OFFCURVE",
"752 1033 CURVE SMOOTH",
"744 964 LINE",
"717 1058 OFFCURVE",
"645 1107 OFFCURVE",
"557 1107 CURVE SMOOTH",
"267 1107 OFFCURVE",
"110 765 OFFCURVE",
"110 455 CURVE SMOOTH",
"110 180 OFFCURVE",
"247 -26 OFFCURVE",
"472 -26 CURVE SMOOTH",
"585 -26 OFFCURVE",
"716 22 OFFCURVE",
"824 97 CURVE SMOOTH",
"861 124 OFFCURVE",
"872 171 OFFCURVE",
"848 263 CURVE SMOOTH",
"825 351 OFFCURVE",
"797 377 OFFCURVE",
"762 350 CURVE SMOOTH",
"673 283 OFFCURVE",
"578 240 OFFCURVE",
"492 240 CURVE SMOOTH",
"389 240 OFFCURVE",
"328 328 OFFCURVE",
"328 470 CURVE SMOOTH",
"328 639 OFFCURVE",
"404 841 OFFCURVE",
"565 841 CURVE SMOOTH",
"662 841 OFFCURVE",
"701 754 OFFCURVE",
"689 658 CURVE SMOOTH",
"683 605 OFFCURVE",
"699 584 OFFCURVE",
"777 584 CURVE SMOOTH",
"854 584 OFFCURVE",
"888 605 OFFCURVE",
"894 658 CURVE SMOOTH",
"941 1033 LINE SMOOTH",
"947 1086 OFFCURVE",
"930 1107 OFFCURVE",
"861 1107 CURVE SMOOTH"
);
}
);
width = 1006;
},
{
layerId = "38D47A70-C265-4203-8B70-C23C50FC2DCC";
paths = (
{
closed = 1;
nodes = (
"831 1107 OFFCURVE",
"813 1085 OFFCURVE",
"806 1031 CURVE SMOOTH",
"796 949 LINE",
"752 1045 OFFCURVE",
"673 1107 OFFCURVE",
"573 1107 CURVE SMOOTH",
"294 1107 OFFCURVE",
"108 788 OFFCURVE",
"108 445 CURVE SMOOTH",
"108 176 OFFCURVE",
"236 -26 OFFCURVE",
"447 -26 CURVE SMOOTH",
"571 -26 OFFCURVE",
"702 32 OFFCURVE",
"802 123 CURVE SMOOTH",
"834 153 OFFCURVE",
"843 195 OFFCURVE",
"823 247 CURVE SMOOTH",
"802 301 OFFCURVE",
"771 303 OFFCURVE",
"747 279 CURVE SMOOTH",
"658 193 OFFCURVE",
"559 147 OFFCURVE",
"460 147 CURVE SMOOTH",
"321 147 OFFCURVE",
"238 274 OFFCURVE",
"238 458 CURVE SMOOTH",
"238 710 OFFCURVE",
"377 934 OFFCURVE",
"564 934 CURVE SMOOTH",
"714 934 OFFCURVE",
"779 833 OFFCURVE",
"765 692 CURVE SMOOTH",
"760 638 OFFCURVE",
"772 616 OFFCURVE",
"818 616 CURVE SMOOTH",
"865 616 OFFCURVE",
"881 638 OFFCURVE",
"887 692 CURVE SMOOTH",
"929 1031 LINE SMOOTH",
"935 1085 OFFCURVE",
"922 1107 OFFCURVE",
"877 1107 CURVE SMOOTH"
);
}
);
width = 1006;
}
);
unicode = 0063;
},
{
glyphname = d;
lastChange = "2026-02-27 13:18:40 +0000";
layers = (
{
background = {
paths = (
{
closed = 1;
nodes = (
"942 1535 LINE SMOOTH",
"889 1535 OFFCURVE",
"865 1514 OFFCURVE",
"847 1415 CURVE SMOOTH",
"830 1315 OFFCURVE",
"847 1296 OFFCURVE",
"900 1296 CURVE SMOOTH",
"1072 1296 LINE",
"1013 964 LINE",
"948 1052 OFFCURVE",
"843 1107 OFFCURVE",
"719 1107 CURVE SMOOTH",
"314 1107 OFFCURVE",
"121 740 OFFCURVE",
"121 445 CURVE SMOOTH",
"121 173 OFFCURVE",
"281 -26 OFFCURVE",
"555 -26 CURVE SMOOTH",
"690 -26 OFFCURVE",
"827 29 OFFCURVE",
"942 149 CURVE",
"960 39 OFFCURVE",
"1044 0 OFFCURVE",
"1136 0 CURVE SMOOTH",
"1248 0 LINE SMOOTH",
"1300 0 OFFCURVE",
"1324 20 OFFCURVE",
"1341 119 CURVE SMOOTH",
"1359 219 OFFCURVE",
"1342 240 OFFCURVE",
"1290 240 CURVE SMOOTH",
"1256 240 LINE SMOOTH",
"1205 240 OFFCURVE",
"1184 277 OFFCURVE",
"1196 339 CURVE SMOOTH",
"1394 1462 LINE SMOOTH",
"1403 1514 OFFCURVE",
"1386 1535 OFFCURVE",
"1333 1535 CURVE SMOOTH"
);
},
{
closed = 1;
nodes = (
"858 841 OFFCURVE",
"954 761 OFFCURVE",
"954 611 CURVE SMOOTH",
"954 439 OFFCURVE",
"836 240 OFFCURVE",
"625 240 CURVE SMOOTH",
"502 240 OFFCURVE",
"432 323 OFFCURVE",
"432 458 CURVE SMOOTH",
"432 609 OFFCURVE",
"517 841 OFFCURVE",
"730 841 CURVE SMOOTH"
);
}
);
};
layerId = UUID0;
paths = (
{
closed = 1;
nodes = (
"660 1535 LINE SMOOTH",
"623 1535 OFFCURVE",
"605 1514 OFFCURVE",
"593 1415 CURVE SMOOTH",
"580 1315 OFFCURVE",
"593 1296 OFFCURVE",
"630 1296 CURVE SMOOTH",
"750 1296 LINE",
"709 964 LINE",
"664 1052 OFFCURVE",
"590 1107 OFFCURVE",
"503 1107 CURVE SMOOTH",
"220 1107 OFFCURVE",
"84 740 OFFCURVE",
"84 445 CURVE SMOOTH",
"84 169 OFFCURVE",
"198 -26 OFFCURVE",
"380 -26 CURVE SMOOTH",
"480 -26 OFFCURVE",
"566 44 OFFCURVE",
"644 161 CURVE",
"632 74 LINE SMOOTH",
"626 21 OFFCURVE",
"638 0 OFFCURVE",
"675 0 CURVE SMOOTH",
"867 0 LINE SMOOTH",
"903 0 OFFCURVE",
"921 21 OFFCURVE",
"933 121 CURVE SMOOTH",
"946 220 OFFCURVE",
"933 240 OFFCURVE",
"896 240 CURVE SMOOTH",
"825 240 LINE",
"976 1462 LINE SMOOTH",
"982 1514 OFFCURVE",
"970 1535 OFFCURVE",
"933 1535 CURVE SMOOTH"
);
},
{
closed = 1;
nodes = (
"600 841 OFFCURVE",
"668 761 OFFCURVE",
"668 611 CURVE SMOOTH",
"668 439 OFFCURVE",
"585 240 OFFCURVE",
"438 240 CURVE SMOOTH",
"351 240 OFFCURVE",
"302 323 OFFCURVE",
"302 458 CURVE SMOOTH",
"302 609 OFFCURVE",
"362 841 OFFCURVE",
"511 841 CURVE SMOOTH"
);
}
);
width = 1006;
},
{
background = {
paths = (
{
closed = 1;
nodes = (
"1024 1535 LINE SMOOTH",
"971 1535 OFFCURVE",
"947 1514 OFFCURVE",
"936 1456 CURVE SMOOTH",
"926 1397 OFFCURVE",
"943 1376 OFFCURVE",
"996 1376 CURVE SMOOTH",
"1185 1376 LINE",
"1104 910 LINE",
"1031 1028 OFFCURVE",
"912 1107 OFFCURVE",
"755 1107 CURVE SMOOTH",
"342 1107 OFFCURVE",
"153 731 OFFCURVE",
"153 428 CURVE SMOOTH",
"153 149 OFFCURVE",
"328 -26 OFFCURVE",
"579 -26 CURVE SMOOTH",
"729 -26 OFFCURVE",
"865 40 OFFCURVE",
"983 167 CURVE",
"990 64 OFFCURVE",
"1058 0 OFFCURVE",
"1154 0 CURVE SMOOTH",
"1214 0 LINE SMOOTH",
"1266 0 OFFCURVE",
"1291 21 OFFCURVE",
"1300 80 CURVE SMOOTH",
"1311 138 OFFCURVE",
"1293 159 OFFCURVE",
"1241 159 CURVE SMOOTH",
"1211 159 LINE SMOOTH",
"1168 159 OFFCURVE",
"1152 187 OFFCURVE",
"1160 235 CURVE SMOOTH",
"1375 1456 LINE SMOOTH",
"1386 1516 OFFCURVE",
"1368 1535 OFFCURVE",
"1315 1535 CURVE SMOOTH"
);
},
{
closed = 1;
nodes = (
"928 934 OFFCURVE",
"1046 825 OFFCURVE",
"1046 633 CURVE SMOOTH",
"1046 392 OFFCURVE",
"887 147 OFFCURVE",
"610 147 CURVE SMOOTH",
"431 147 OFFCURVE",
"337 264 OFFCURVE",
"337 439 CURVE SMOOTH",
"337 680 OFFCURVE",
"484 934 OFFCURVE",
"748 934 CURVE SMOOTH"
);
}
);
};
layerId = "38D47A70-C265-4203-8B70-C23C50FC2DCC";
paths = (
{
closed = 1;
nodes = (
"717 1535 LINE SMOOTH",
"680 1535 OFFCURVE",
"662 1514 OFFCURVE",
"655 1456 CURVE SMOOTH",
"648 1397 OFFCURVE",
"660 1376 OFFCURVE",
"697 1376 CURVE SMOOTH",
"830 1376 LINE",
"772 910 LINE",
"722 1028 OFFCURVE",
"638 1107 OFFCURVE",
"529 1107 CURVE SMOOTH",
"239 1107 OFFCURVE",
"108 731 OFFCURVE",
"108 428 CURVE SMOOTH",
"108 149 OFFCURVE",
"229 -26 OFFCURVE",
"406 -26 CURVE SMOOTH",
"515 -26 OFFCURVE",
"607 47 OFFCURVE",
"689 173 CURVE",
"678 80 LINE SMOOTH",
"671 21 OFFCURVE",
"683 0 OFFCURVE",
"720 0 CURVE SMOOTH",
"851 0 LINE SMOOTH",
"887 0 OFFCURVE",
"905 21 OFFCURVE",
"910 80 CURVE SMOOTH",
"919 138 OFFCURVE",
"906 159 OFFCURVE",
"870 159 CURVE SMOOTH",
"802 159 LINE",
"963 1456 LINE SMOOTH",
"970 1514 OFFCURVE",
"957 1535 OFFCURVE",
"921 1535 CURVE SMOOTH"
);
},
{
closed = 1;
nodes = (
"650 934 OFFCURVE",
"733 825 OFFCURVE",
"733 633 CURVE SMOOTH",
"733 392 OFFCURVE",
"621 147 OFFCURVE",
"427 147 CURVE SMOOTH",
"302 147 OFFCURVE",
"236 264 OFFCURVE",
"236 439 CURVE SMOOTH",
"236 680 OFFCURVE",
"339 934 OFFCURVE",
"523 934 CURVE SMOOTH"
);
}
);
width = 1006;
}
);
unicode = 0064;
},
{
glyphname = e;
lastChange = "2026-02-27 13:18:40 +0000";
layers = (
{
layerId = UUID0;
paths = (
{
closed = 1;
nodes = (
"286 1107 OFFCURVE",
"112 803 OFFCURVE",
"112 444 CURVE SMOOTH",
"112 174 OFFCURVE",
"232 -26 OFFCURVE",
"446 -26 CURVE SMOOTH",
"563 -26 OFFCURVE",
"690 6 OFFCURVE",
"806 57 CURVE SMOOTH",
"848 76 OFFCURVE",
"859 110 OFFCURVE",
"846 206 CURVE SMOOTH",
"833 301 OFFCURVE",
"816 319 OFFCURVE",
"777 304 CURVE SMOOTH",
"664 257 OFFCURVE",
"566 240 OFFCURVE",
"479 240 CURVE SMOOTH",
"359 240 OFFCURVE",
"304 341 OFFCURVE",
"327 537 CURVE SMOOTH",
"351 741 OFFCURVE",
"432 841 OFFCURVE",
"564 841 CURVE SMOOTH",
"652 841 OFFCURVE",
"687 786 OFFCURVE",
"687 730 CURVE SMOOTH",
"687 690 OFFCURVE",
"673 652 OFFCURVE",
"624 645 CURVE SMOOTH",
"263 593 LINE",
"236 372 LINE",
"697 438 LINE SMOOTH",
"838 458 OFFCURVE",
"903 568 OFFCURVE",
"903 742 CURVE SMOOTH",
"903 956 OFFCURVE",
"777 1107 OFFCURVE",
"585 1107 CURVE SMOOTH"
);
}
);
width = 1006;
},
{
layerId = "38D47A70-C265-4203-8B70-C23C50FC2DCC";
paths = (
{
closed = 1;
nodes = (
"314 1107 OFFCURVE",
"124 800 OFFCURVE",
"124 414 CURVE SMOOTH",
"124 143 OFFCURVE",
"239 -26 OFFCURVE",
"445 -26 CURVE SMOOTH",
"572 -26 OFFCURVE",
"705 19 OFFCURVE",
"797 77 CURVE SMOOTH",
"832 99 OFFCURVE",
"844 133 OFFCURVE",
"831 194 CURVE SMOOTH",
"818 254 OFFCURVE",
"791 272 OFFCURVE",
"764 252 CURVE SMOOTH",
"681 192 OFFCURVE",
"566 144 OFFCURVE",
"458 144 CURVE SMOOTH",
"329 144 OFFCURVE",
"253 227 OFFCURVE",
"253 422 CURVE SMOOTH",
"253 705 OFFCURVE",
"371 937 OFFCURVE",
"580 937 CURVE SMOOTH",
"699 937 OFFCURVE",
"758 859 OFFCURVE",
"758 761 CURVE SMOOTH",
"758 693 OFFCURVE",
"740 653 OFFCURVE",
"676 644 CURVE SMOOTH",
"234 571 LINE",
"206 407 LINE",
"702 481 LINE SMOOTH",
"834 501 OFFCURVE",
"887 609 OFFCURVE",
"887 767 CURVE SMOOTH",
"887 961 OFFCURVE",
"775 1107 OFFCURVE",
"592 1107 CURVE SMOOTH"
);
}
);
width = 1006;
}
);
unicode = 0065;
},
{
glyphname = f;
lastChange = "2026-02-27 13:18:40 +0000";
layers = (
{
layerId = UUID0;
paths = (
{
closed = 1;
nodes = (
"590 1541 OFFCURVE",
"484 1388 OFFCURVE",
"449 1097 CURVE SMOOTH",
"439 1011 LINE",
"288 1011 LINE SMOOTH",
"252 1011 OFFCURVE",
"234 984 OFFCURVE",
"221 885 CURVE SMOOTH",
"209 785 OFFCURVE",
"220 760 OFFCURVE",
"257 760 CURVE SMOOTH",
"407 760 LINE",
"309 -37 LINE SMOOTH",
"293 -166 OFFCURVE",
"252 -220 OFFCURVE",
"188 -220 CURVE SMOOTH",
"135 -220 OFFCURVE",
"95 -199 OFFCURVE",
"40 -147 CURVE SMOOTH",
"7 -116 OFFCURVE",
"-26 -140 OFFCURVE",
"-57 -219 CURVE SMOOTH",
"-87 -291 OFFCURVE",
"-90 -337 OFFCURVE",
"-55 -373 CURVE SMOOTH",
"29 -458 OFFCURVE",
"96 -486 OFFCURVE",
"190 -486 CURVE SMOOTH",
"376 -486 OFFCURVE",
"476 -338 OFFCURVE",
"513 -53 CURVE SMOOTH",
"612 760 LINE",
"867 760 LINE SMOOTH",
"903 760 OFFCURVE",
"922 785 OFFCURVE",
"934 885 CURVE SMOOTH",
"947 984 OFFCURVE",
"935 1011 OFFCURVE",
"898 1011 CURVE SMOOTH",
"644 1011 LINE",
"652 1081 LINE SMOOTH",
"668 1216 OFFCURVE",
"714 1276 OFFCURVE",
"782 1276 CURVE SMOOTH",
"837 1276 OFFCURVE",
"892 1260 OFFCURVE",
"957 1230 CURVE SMOOTH",
"991 1215 OFFCURVE",
"1023 1224 OFFCURVE",
"1047 1319 CURVE SMOOTH",
"1072 1416 OFFCURVE",
"1056 1455 OFFCURVE",
"1020 1475 CURVE SMOOTH",
"937 1523 OFFCURVE",
"857 1541 OFFCURVE",
"779 1541 CURVE SMOOTH"
);
}
);
width = 1006;
},
{
layerId = "38D47A70-C265-4203-8B70-C23C50FC2DCC";
paths = (
{
closed = 1;
nodes = (
"630 1541 OFFCURVE",
"514 1388 OFFCURVE",
"482 1132 CURVE SMOOTH",
"463 988 LINE",
"302 988 LINE SMOOTH",
"264 988 OFFCURVE",
"247 967 OFFCURVE",
"240 908 CURVE SMOOTH",
"234 850 OFFCURVE",
"245 829 OFFCURVE",
"282 829 CURVE SMOOTH",
"444 829 LINE",
"331 -91 LINE SMOOTH",
"312 -241 OFFCURVE",
"260 -309 OFFCURVE",
"171 -309 CURVE SMOOTH",
"111 -309 OFFCURVE",
"54 -284 OFFCURVE",
"1 -228 CURVE SMOOTH",
"-20 -205 OFFCURVE",
"-47 -211 OFFCURVE",
"-70 -264 CURVE SMOOTH",
"-95 -321 OFFCURVE",
"-87 -355 OFFCURVE",
"-63 -379 CURVE SMOOTH",
"4 -447 OFFCURVE",
"81 -480 OFFCURVE",
"160 -480 CURVE SMOOTH",
"324 -480 OFFCURVE",
"424 -343 OFFCURVE",
"452 -106 CURVE SMOOTH",
"566 829 LINE",
"851 829 LINE SMOOTH",
"887 829 OFFCURVE",
"906 850 OFFCURVE",
"912 908 CURVE SMOOTH",
"919 967 OFFCURVE",
"907 988 OFFCURVE",
"870 988 CURVE SMOOTH",
"586 988 LINE",
"603 1116 LINE SMOOTH",
"623 1277 OFFCURVE",
"685 1370 OFFCURVE",
"799 1370 CURVE SMOOTH",
"865 1370 OFFCURVE",
"927 1349 OFFCURVE",
"987 1315 CURVE SMOOTH",
"1012 1300 OFFCURVE",
"1038 1310 OFFCURVE",
"1053 1374 CURVE SMOOTH",
"1068 1434 OFFCURVE",
"1050 1465 OFFCURVE",
"1023 1482 CURVE SMOOTH",
"962 1518 OFFCURVE",
"889 1541 OFFCURVE",
"812 1541 CURVE SMOOTH"
);
}
);
width = 1006;
}
);
unicode = 0066;
},
{
glyphname = g;
lastChange = "2026-02-27 13:18:40 +0000";
layers = (
{
layerId = UUID0;
paths = (
{
closed = 1;
nodes = (
"243 1107 OFFCURVE",
"106 763 OFFCURVE",
"106 462 CURVE SMOOTH",
"106 204 OFFCURVE",
"217 9 OFFCURVE",
"405 9 CURVE SMOOTH",
"486 9 OFFCURVE",
"564 61 OFFCURVE",
"628 144 CURVE",
"613 25 LINE SMOOTH",
"595 -131 OFFCURVE",
"530 -214 OFFCURVE",
"392 -214 CURVE SMOOTH",
"323 -214 OFFCURVE",
"233 -187 OFFCURVE",
"157 -147 CURVE SMOOTH",
"124 -130 OFFCURVE",
"95 -146 OFFCURVE",
"68 -246 CURVE SMOOTH",
"42 -343 OFFCURVE",
"51 -380 OFFCURVE",
"88 -399 CURVE SMOOTH",
"193 -453 OFFCURVE",
"300 -480 OFFCURVE",
"384 -480 CURVE SMOOTH",
"646 -480 OFFCURVE",
"779 -298 OFFCURVE",
"816 1 CURVE SMOOTH",
"941 1019 LINE SMOOTH",
"948 1072 OFFCURVE",
"932 1093 OFFCURVE",
"870 1093 CURVE SMOOTH",
"809 1093 OFFCURVE",
"776 1072 OFFCURVE",
"769 1019 CURVE SMOOTH",
"758 926 LINE",
"709 1044 OFFCURVE",
"628 1107 OFFCURVE",
"523 1107 CURVE SMOOTH"
);
},
{
closed = 1;
nodes = (
"621 841 OFFCURVE",
"689 770 OFFCURVE",
"689 625 CURVE SMOOTH",
"689 456 OFFCURVE",
"613 275 OFFCURVE",
"462 275 CURVE SMOOTH",
"377 275 OFFCURVE",
"325 348 OFFCURVE",
"325 482 CURVE SMOOTH",
"325 645 OFFCURVE",
"390 841 OFFCURVE",
"531 841 CURVE SMOOTH"
);
}
);
width = 1006;
},
{
layerId = "38D47A70-C265-4203-8B70-C23C50FC2DCC";
paths = (
{
closed = 1;
nodes = (
"281 1107 OFFCURVE",
"124 802 OFFCURVE",
"124 468 CURVE SMOOTH",
"124 201 OFFCURVE",
"247 33 OFFCURVE",
"425 33 CURVE SMOOTH",
"530 33 OFFCURVE",
"618 91 OFFCURVE",
"697 204 CURVE",
"671 -20 LINE SMOOTH",
"650 -192 OFFCURVE",
"562 -307 OFFCURVE",
"411 -307 CURVE SMOOTH",
"321 -307 OFFCURVE",
"222 -281 OFFCURVE",
"140 -229 CURVE SMOOTH",
"115 -213 OFFCURVE",
"90 -227 OFFCURVE",
"74 -288 CURVE SMOOTH",
"57 -348 OFFCURVE",
"68 -382 OFFCURVE",
"96 -398 CURVE SMOOTH",
"186 -452 OFFCURVE",
"290 -480 OFFCURVE",
"398 -480 CURVE SMOOTH",
"617 -480 OFFCURVE",
"755 -327 OFFCURVE",
"789 -47 CURVE SMOOTH",
"921 1017 LINE SMOOTH",
"927 1071 OFFCURVE",
"919 1093 OFFCURVE",
"873 1093 CURVE SMOOTH",
"826 1093 OFFCURVE",
"812 1071 OFFCURVE",
"806 1017 CURVE SMOOTH",
"791 896 LINE",
"742 1026 OFFCURVE",
"660 1107 OFFCURVE",
"549 1107 CURVE SMOOTH"
);
},
{
closed = 1;
nodes = (
"662 934 OFFCURVE",
"748 831 OFFCURVE",
"748 651 CURVE SMOOTH",
"748 448 OFFCURVE",
"651 206 OFFCURVE",
"447 206 CURVE SMOOTH",
"319 206 OFFCURVE",
"253 317 OFFCURVE",
"253 482 CURVE SMOOTH",
"253 705 OFFCURVE",
"352 934 OFFCURVE",
"536 934 CURVE SMOOTH"
);
}
);
width = 1006;
}
);
unicode = 0067;
},
{
glyphname = h;
lastChange = "2026-02-27 13:18:40 +0000";
layers = (
{
layerId = UUID0;
paths = (
{
closed = 1;
nodes = (
"222 1535 LINE SMOOTH",
"185 1535 OFFCURVE",
"169 1514 OFFCURVE",
"156 1415 CURVE SMOOTH",
"144 1315 OFFCURVE",
"156 1296 OFFCURVE",
"193 1296 CURVE SMOOTH",
"272 1296 LINE",
"122 74 LINE SMOOTH",
"115 21 OFFCURVE",
"128 0 OFFCURVE",
"164 0 CURVE SMOOTH",
"266 0 LINE SMOOTH",
"302 0 OFFCURVE",
"319 21 OFFCURVE",
"327 74 CURVE SMOOTH",
"365 396 LINE SMOOTH",
"391 616 OFFCURVE",
"507 841 OFFCURVE",
"605 841 CURVE SMOOTH",
"661 841 OFFCURVE",
"682 798 OFFCURVE",
"682 724 CURVE SMOOTH",
"682 703 OFFCURVE",
"681 681 OFFCURVE",
"678 657 CURVE SMOOTH",
"606 74 LINE SMOOTH",
"599 21 OFFCURVE",
"612 0 OFFCURVE",
"648 0 CURVE SMOOTH",
"865 0 LINE SMOOTH",
"902 0 OFFCURVE",
"919 20 OFFCURVE",
"930 119 CURVE SMOOTH",
"943 219 OFFCURVE",
"932 240 OFFCURVE",
"894 240 CURVE SMOOTH",
"832 240 LINE",
"888 702 LINE SMOOTH",
"892 731 OFFCURVE",
"894 763 OFFCURVE",
"894 791 CURVE SMOOTH",
"894 978 OFFCURVE",
"813 1107 OFFCURVE",
"682 1107 CURVE SMOOTH",
"595 1107 OFFCURVE",
"511 1043 OFFCURVE",
"428 906 CURVE",
"497 1462 LINE SMOOTH",
"504 1514 OFFCURVE",
"492 1535 OFFCURVE",
"455 1535 CURVE SMOOTH"
);
}
);
width = 1006;
},
{
layerId = "38D47A70-C265-4203-8B70-C23C50FC2DCC";
paths = (
{
closed = 1;
nodes = (
"247 1535 LINE SMOOTH",
"209 1535 OFFCURVE",
"193 1514 OFFCURVE",
"185 1456 CURVE SMOOTH",
"178 1397 OFFCURVE",
"190 1376 OFFCURVE",
"227 1376 CURVE SMOOTH",
"302 1376 LINE",
"140 64 LINE SMOOTH",
"133 11 OFFCURVE",
"146 -12 OFFCURVE",
"192 -12 CURVE SMOOTH",
"193 -12 LINE SMOOTH",
"236 -12 OFFCURVE",
"256 11 OFFCURVE",
"263 64 CURVE SMOOTH",
"312 470 LINE SMOOTH",
"344 726 OFFCURVE",
"493 934 OFFCURVE",
"632 934 CURVE SMOOTH",
"707 934 OFFCURVE",
"742 870 OFFCURVE",
"742 770 CURVE SMOOTH",
"742 750 OFFCURVE",
"740 730 OFFCURVE",
"737 708 CURVE SMOOTH",
"660 80 LINE SMOOTH",
"652 21 OFFCURVE",
"665 0 OFFCURVE",
"702 0 CURVE SMOOTH",
"840 0 LINE SMOOTH",
"878 0 OFFCURVE",
"894 21 OFFCURVE",
"901 80 CURVE SMOOTH",
"908 138 OFFCURVE",
"896 159 OFFCURVE",
"859 159 CURVE SMOOTH",
"792 159 LINE",
"861 714 LINE SMOOTH",
"865 745 OFFCURVE",
"867 776 OFFCURVE",
"867 804 CURVE SMOOTH",
"867 988 OFFCURVE",
"788 1107 OFFCURVE",
"658 1107 CURVE SMOOTH",
"555 1107 OFFCURVE",
"453 1026 OFFCURVE",
"364 878 CURVE",
"435 1456 LINE SMOOTH",
"442 1514 OFFCURVE",
"431 1535 OFFCURVE",
"393 1535 CURVE SMOOTH"
);
}
);
width = 1006;
}
);
unicode = 0068;
},
{
glyphname = i;
lastChange = "2026-02-27 13:18:40 +0000";
layers = (
{
layerId = UUID0;
paths = (
{
closed = 1;
nodes = (
"280 1081 LINE SMOOTH",
"243 1081 OFFCURVE",
"226 1060 OFFCURVE",
"214 961 CURVE SMOOTH",
"201 861 OFFCURVE",
"214 841 OFFCURVE",
"250 841 CURVE SMOOTH",
"408 841 LINE",
"359 431 LINE SMOOTH",
"353 391 OFFCURVE",
"351 353 OFFCURVE",
"351 318 CURVE SMOOTH",
"351 101 OFFCURVE",
"444 -26 OFFCURVE",
"603 -26 CURVE SMOOTH",
"697 -26 OFFCURVE",
"771 2 OFFCURVE",
"877 87 CURVE SMOOTH",
"921 123 OFFCURVE",
"915 171 OFFCURVE",
"893 239 CURVE SMOOTH",
"868 315 OFFCURVE",
"845 344 OFFCURVE",
"804 312 CURVE SMOOTH",
"736 261 OFFCURVE",
"692 240 OFFCURVE",
"638 240 CURVE SMOOTH",
"586 240 OFFCURVE",
"558 276 OFFCURVE",
"558 360 CURVE SMOOTH",
"558 379 OFFCURVE",
"559 400 OFFCURVE",
"562 422 CURVE SMOOTH",
"634 1008 LINE SMOOTH",
"640 1060 OFFCURVE",
"628 1081 OFFCURVE",
"591 1081 CURVE SMOOTH"
);
},
{
closed = 1;
nodes = (
"527 1619 OFFCURVE",
"502 1597 OFFCURVE",
"496 1545 CURVE SMOOTH",
"472 1353 LINE SMOOTH",
"466 1300 OFFCURVE",
"489 1279 OFFCURVE",
"566 1279 CURVE SMOOTH",
"645 1279 OFFCURVE",
"671 1300 OFFCURVE",
"676 1353 CURVE SMOOTH",
"701 1545 LINE SMOOTH",
"707 1597 OFFCURVE",
"682 1619 OFFCURVE",
"605 1619 CURVE SMOOTH"
);
}
);
width = 1006;
},
{
layerId = "38D47A70-C265-4203-8B70-C23C50FC2DCC";
paths = (
{
closed = 1;
nodes = (
"263 1081 LINE SMOOTH",
"227 1081 OFFCURVE",
"209 1060 OFFCURVE",
"202 1002 CURVE SMOOTH",
"195 943 OFFCURVE",
"207 922 OFFCURVE",
"245 922 CURVE SMOOTH",
"452 922 LINE",
"383 359 LINE SMOOTH",
"378 328 OFFCURVE",
"377 297 OFFCURVE",
"377 268 CURVE SMOOTH",
"377 85 OFFCURVE",
"455 -26 OFFCURVE",
"597 -26 CURVE SMOOTH",
"676 -26 OFFCURVE",
"760 8 OFFCURVE",
"843 76 CURVE SMOOTH",
"873 101 OFFCURVE",
"882 132 OFFCURVE",
"867 188 CURVE SMOOTH",
"853 243 OFFCURVE",
"826 257 OFFCURVE",
"799 234 CURVE SMOOTH",
"733 174 OFFCURVE",
"673 145 OFFCURVE",
"610 145 CURVE SMOOTH",
"534 145 OFFCURVE",
"500 187 OFFCURVE",
"500 286 CURVE SMOOTH",
"500 308 OFFCURVE",
"502 335 OFFCURVE",
"506 363 CURVE SMOOTH",
"584 1002 LINE SMOOTH",
"591 1060 OFFCURVE",
"579 1081 OFFCURVE",
"542 1081 CURVE SMOOTH"
);
},
{
closed = 1;
nodes = (
"517 1595 OFFCURVE",
"499 1573 OFFCURVE",
"493 1519 CURVE SMOOTH",
"474 1367 LINE SMOOTH",
"467 1313 OFFCURVE",
"480 1291 OFFCURVE",
"542 1291 CURVE SMOOTH",
"605 1291 OFFCURVE",
"623 1313 OFFCURVE",
"630 1367 CURVE SMOOTH",
"648 1519 LINE SMOOTH",
"654 1573 OFFCURVE",
"642 1595 OFFCURVE",
"580 1595 CURVE SMOOTH"
);
}
);
width = 1006;
}
);
unicode = 0069;
},
{
glyphname = j;
lastChange = "2026-02-27 13:18:40 +0000";
layers = (
{
layerId = UUID0;
paths = (
{
closed = 1;
nodes = (
"312 1081 LINE SMOOTH",
"276 1081 OFFCURVE",
"259 1060 OFFCURVE",
"247 961 CURVE SMOOTH",
"234 861 OFFCURVE",
"247 841 OFFCURVE",
"283 841 CURVE SMOOTH",
"597 841 LINE",
"492 -20 LINE SMOOTH",
"475 -154 OFFCURVE",
"428 -214 OFFCURVE",
"362 -214 CURVE SMOOTH",
"305 -214 OFFCURVE",
"234 -169 OFFCURVE",
"167 -123 CURVE SMOOTH",
"136 -102 OFFCURVE",
"106 -110 OFFCURVE",
"73 -202 CURVE SMOOTH",
"37 -295 OFFCURVE",
"47 -337 OFFCURVE",
"80 -363 CURVE SMOOTH",
"170 -434 OFFCURVE",
"269 -480 OFFCURVE",
"363 -480 CURVE SMOOTH",
"554 -480 OFFCURVE",
"657 -338 OFFCURVE",
"693 -47 CURVE SMOOTH",
"823 1008 LINE SMOOTH",
"829 1060 OFFCURVE",
"817 1081 OFFCURVE",
"779 1081 CURVE SMOOTH"
);
},
{
closed = 1;
nodes = (
"715 1619 OFFCURVE",
"690 1597 OFFCURVE",
"685 1545 CURVE SMOOTH",
"660 1353 LINE SMOOTH",
"654 1300 OFFCURVE",
"678 1279 OFFCURVE",
"755 1279 CURVE SMOOTH",
"833 1279 OFFCURVE",
"859 1300 OFFCURVE",
"865 1353 CURVE SMOOTH",
"889 1545 LINE SMOOTH",
"895 1597 OFFCURVE",
"871 1619 OFFCURVE",
"793 1619 CURVE SMOOTH"
);
}
);
width = 1006;
},
{
layerId = "38D47A70-C265-4203-8B70-C23C50FC2DCC";
paths = (
{
closed = 1;
nodes = (
"345 1081 LINE SMOOTH",
"309 1081 OFFCURVE",
"291 1060 OFFCURVE",
"284 1002 CURVE SMOOTH",
"277 943 OFFCURVE",
"289 922 OFFCURVE",
"327 922 CURVE SMOOTH",
"673 922 LINE",
"554 -51 LINE SMOOTH",
"531 -224 OFFCURVE",
"486 -309 OFFCURVE",
"376 -309 CURVE SMOOTH",
"300 -309 OFFCURVE",
"220 -261 OFFCURVE",
"157 -195 CURVE SMOOTH",
"135 -172 OFFCURVE",
"106 -173 OFFCURVE",
"82 -233 CURVE SMOOTH",
"57 -293 OFFCURVE",
"67 -323 OFFCURVE",
"91 -348 CURVE SMOOTH",
"164 -421 OFFCURVE",
"269 -480 OFFCURVE",
"363 -480 CURVE SMOOTH",
"554 -480 OFFCURVE",
"641 -335 OFFCURVE",
"674 -67 CURVE SMOOTH",
"805 1002 LINE SMOOTH",
"812 1060 OFFCURVE",
"800 1081 OFFCURVE",
"763 1081 CURVE SMOOTH"
);
},
{
closed = 1;
nodes = (
"738 1595 OFFCURVE",
"720 1573 OFFCURVE",
"714 1519 CURVE SMOOTH",
"695 1367 LINE SMOOTH",
"688 1313 OFFCURVE",
"701 1291 OFFCURVE",
"763 1291 CURVE SMOOTH",
"826 1291 OFFCURVE",
"844 1313 OFFCURVE",
"851 1367 CURVE SMOOTH",
"870 1519 LINE SMOOTH",
"875 1573 OFFCURVE",
"864 1595 OFFCURVE",
"802 1595 CURVE SMOOTH"
);
}
);
width = 1006;
}
);
unicode = 006A;
},
{
glyphname = k;
lastChange = "2026-02-27 13:18:40 +0000";
layers = (
{
layerId = UUID0;
paths = (
{
closed = 1;
nodes = (
"231 1535 LINE SMOOTH",
"193 1535 OFFCURVE",
"177 1514 OFFCURVE",
"164 1415 CURVE SMOOTH",
"152 1315 OFFCURVE",
"164 1296 OFFCURVE",
"201 1296 CURVE SMOOTH",
"280 1296 LINE",
"130 74 LINE SMOOTH",
"123 21 OFFCURVE",
"136 0 OFFCURVE",
"172 0 CURVE SMOOTH",
"274 0 LINE SMOOTH",
"310 0 OFFCURVE",
"328 21 OFFCURVE",
"335 74 CURVE SMOOTH",
"363 310 LINE",
"369 316 LINE SMOOTH",
"394 343 OFFCURVE",
"427 356 OFFCURVE",
"458 356 CURVE SMOOTH",
"483 356 OFFCURVE",
"509 345 OFFCURVE",
"529 323 CURVE SMOOTH",
"584 259 OFFCURVE",
"592 135 OFFCURVE",
"650 55 CURVE SMOOTH",
"678 16 OFFCURVE",
"709 0 OFFCURVE",
"744 0 CURVE SMOOTH",
"840 0 LINE SMOOTH",
"878 0 OFFCURVE",
"894 20 OFFCURVE",
"906 119 CURVE SMOOTH",
"919 219 OFFCURVE",
"907 240 OFFCURVE",
"870 240 CURVE SMOOTH",
"846 240 LINE SMOOTH",
"823 240 OFFCURVE",
"805 252 OFFCURVE",
"793 272 CURVE SMOOTH",
"757 327 OFFCURVE",
"750 440 OFFCURVE",
"681 501 CURVE SMOOTH",
"646 532 OFFCURVE",
"607 537 OFFCURVE",
"566 525 CURVE",
"919 865 LINE",
"943 865 LINE SMOOTH",
"980 865 OFFCURVE",
"997 885 OFFCURVE",
"1008 973 CURVE SMOOTH",
"1018 1060 OFFCURVE",
"1006 1081 OFFCURVE",
"969 1081 CURVE SMOOTH",
"630 1081 LINE SMOOTH",
"593 1081 OFFCURVE",
"576 1060 OFFCURVE",
"565 973 CURVE SMOOTH",
"555 885 OFFCURVE",
"566 865 OFFCURVE",
"604 865 CURVE SMOOTH",
"639 865 LINE",
"403 626 LINE",
"506 1462 LINE SMOOTH",
"513 1514 OFFCURVE",
"500 1535 OFFCURVE",
"463 1535 CURVE SMOOTH"
);
}
);
width = 1006;
},
{
layerId = "38D47A70-C265-4203-8B70-C23C50FC2DCC";
paths = (
{
closed = 1;
nodes = (
"239 1535 LINE SMOOTH",
"201 1535 OFFCURVE",
"185 1514 OFFCURVE",
"177 1456 CURVE SMOOTH",
"170 1397 OFFCURVE",
"181 1376 OFFCURVE",
"219 1376 CURVE SMOOTH",
"327 1376 LINE",
"164 64 LINE SMOOTH",
"157 11 OFFCURVE",
"170 -12 OFFCURVE",
"215 -12 CURVE SMOOTH",
"218 -12 LINE SMOOTH",
"261 -12 OFFCURVE",
"280 11 OFFCURVE",
"287 64 CURVE SMOOTH",
"325 376 LINE",
"341 391 LINE SMOOTH",
"373 425 OFFCURVE",
"422 444 OFFCURVE",
"462 444 CURVE SMOOTH",
"504 444 OFFCURVE",
"542 422 OFFCURVE",
"569 380 CURVE SMOOTH",
"617 300 OFFCURVE",
"621 149 OFFCURVE",
"695 47 CURVE SMOOTH",
"717 14 OFFCURVE",
"752 0 OFFCURVE",
"789 0 CURVE SMOOTH",
"824 0 LINE SMOOTH",
"861 0 OFFCURVE",
"878 21 OFFCURVE",
"885 80 CURVE SMOOTH",
"892 138 OFFCURVE",
"880 159 OFFCURVE",
"843 159 CURVE SMOOTH",
"824 159 LINE SMOOTH",
"800 159 OFFCURVE",
"783 173 OFFCURVE",
"770 195 CURVE SMOOTH",
"730 262 OFFCURVE",
"719 405 OFFCURVE",
"660 496 CURVE SMOOTH",
"620 558 OFFCURVE",
"575 582 OFFCURVE",
"520 569 CURVE",
"859 922 LINE",
"903 922 LINE SMOOTH",
"941 922 OFFCURVE",
"958 943 OFFCURVE",
"965 1002 CURVE SMOOTH",
"973 1060 OFFCURVE",
"960 1081 OFFCURVE",
"923 1081 CURVE SMOOTH",
"650 1081 LINE SMOOTH",
"613 1081 OFFCURVE",
"596 1060 OFFCURVE",
"589 1002 CURVE SMOOTH",
"582 943 OFFCURVE",
"593 922 OFFCURVE",
"630 922 CURVE SMOOTH",
"674 922 LINE",
"351 582 LINE",
"459 1456 LINE SMOOTH",
"466 1514 OFFCURVE",
"454 1535 OFFCURVE",
"417 1535 CURVE SMOOTH"
);
}
);
width = 1006;
}
);
unicode = 006B;
},
{
glyphname = l;
lastChange = "2026-02-27 13:18:40 +0000";
layers = (
{
layerId = UUID0;
paths = (
{
closed = 1;
nodes = (
"280 1535 LINE SMOOTH",
"242 1535 OFFCURVE",
"226 1514 OFFCURVE",
"213 1415 CURVE SMOOTH",
"201 1315 OFFCURVE",
"213 1296 OFFCURVE",
"250 1296 CURVE SMOOTH",
"441 1296 LINE",
"335 431 LINE SMOOTH",
"329 391 OFFCURVE",
"327 353 OFFCURVE",
"327 318 CURVE SMOOTH",
"327 101 OFFCURVE",
"419 -26 OFFCURVE",
"578 -26 CURVE SMOOTH",
"673 -26 OFFCURVE",
"747 2 OFFCURVE",
"852 87 CURVE SMOOTH",
"896 123 OFFCURVE",
"891 171 OFFCURVE",
"868 239 CURVE SMOOTH",
"844 315 OFFCURVE",
"820 344 OFFCURVE",
"779 312 CURVE SMOOTH",
"712 261 OFFCURVE",
"667 240 OFFCURVE",
"613 240 CURVE SMOOTH",
"562 240 OFFCURVE",
"534 276 OFFCURVE",
"534 360 CURVE SMOOTH",
"534 379 OFFCURVE",
"535 400 OFFCURVE",
"537 422 CURVE SMOOTH",
"666 1462 LINE SMOOTH",
"673 1514 OFFCURVE",
"660 1535 OFFCURVE",
"624 1535 CURVE SMOOTH"
);
}
);
width = 1006;
},
{
layerId = "38D47A70-C265-4203-8B70-C23C50FC2DCC";
paths = (
{
closed = 1;
nodes = (
"288 1535 LINE SMOOTH",
"250 1535 OFFCURVE",
"234 1514 OFFCURVE",
"226 1456 CURVE SMOOTH",
"219 1397 OFFCURVE",
"231 1376 OFFCURVE",
"268 1376 CURVE SMOOTH",
"492 1376 LINE",
"366 359 LINE SMOOTH",
"362 328 OFFCURVE",
"360 296 OFFCURVE",
"360 268 CURVE SMOOTH",
"360 85 OFFCURVE",
"439 -26 OFFCURVE",
"580 -26 CURVE SMOOTH",
"660 -26 OFFCURVE",
"743 8 OFFCURVE",
"826 76 CURVE SMOOTH",
"857 101 OFFCURVE",
"866 132 OFFCURVE",
"851 188 CURVE SMOOTH",
"837 243 OFFCURVE",
"810 257 OFFCURVE",
"783 234 CURVE SMOOTH",
"716 174 OFFCURVE",
"657 145 OFFCURVE",
"593 145 CURVE SMOOTH",
"517 145 OFFCURVE",
"483 187 OFFCURVE",
"483 284 CURVE SMOOTH",
"483 308 OFFCURVE",
"486 334 OFFCURVE",
"489 363 CURVE SMOOTH",
"624 1456 LINE SMOOTH",
"632 1514 OFFCURVE",
"619 1535 OFFCURVE",
"583 1535 CURVE SMOOTH"
);
}
);
width = 1006;
}
);
unicode = 006C;
},
{
glyphname = m;
lastChange = "2026-02-27 13:18:40 +0000";
layers = (
{
layerId = UUID0;
paths = (
{
closed = 1;
nodes = (
"785 1107 OFFCURVE",
"702 1028 OFFCURVE",
"640 870 CURVE",
"633 1019 OFFCURVE",
"595 1107 OFFCURVE",
"509 1107 CURVE SMOOTH",
"427 1107 OFFCURVE",
"349 1017 OFFCURVE",
"280 839 CURVE",
"301 1008 LINE SMOOTH",
"308 1060 OFFCURVE",
"295 1081 OFFCURVE",
"259 1081 CURVE SMOOTH",
"116 1081 LINE SMOOTH",
"78 1081 OFFCURVE",
"62 1060 OFFCURVE",
"49 961 CURVE SMOOTH",
"37 861 OFFCURVE",
"49 841 OFFCURVE",
"87 841 CURVE SMOOTH",
"132 841 LINE",
"39 74 LINE SMOOTH",
"32 21 OFFCURVE",
"44 0 OFFCURVE",
"81 0 CURVE SMOOTH",
"183 0 LINE SMOOTH",
"220 0 OFFCURVE",
"236 21 OFFCURVE",
"243 74 CURVE SMOOTH",
"293 472 LINE SMOOTH",
"319 696 OFFCURVE",
"367 806 OFFCURVE",
"417 806 CURVE SMOOTH",
"439 806 OFFCURVE",
"449 785 OFFCURVE",
"449 743 CURVE SMOOTH",
"449 727 OFFCURVE",
"447 708 OFFCURVE",
"445 686 CURVE SMOOTH",
"370 74 LINE SMOOTH",
"363 21 OFFCURVE",
"376 0 OFFCURVE",
"412 0 CURVE SMOOTH",
"514 0 LINE SMOOTH",
"550 0 OFFCURVE",
"568 21 OFFCURVE",
"575 74 CURVE SMOOTH",
"624 472 LINE SMOOTH",
"651 696 OFFCURVE",
"697 806 OFFCURVE",
"748 806 CURVE SMOOTH",
"770 806 OFFCURVE",
"779 785 OFFCURVE",
"779 743 CURVE SMOOTH",
"779 727 OFFCURVE",
"778 708 OFFCURVE",
"776 686 CURVE SMOOTH",
"701 74 LINE SMOOTH",
"694 21 OFFCURVE",
"706 0 OFFCURVE",
"743 0 CURVE SMOOTH",
"845 0 LINE SMOOTH",
"881 0 OFFCURVE",
"899 21 OFFCURVE",
"906 74 CURVE SMOOTH",
"988 741 LINE SMOOTH",
"992 785 OFFCURVE",
"996 825 OFFCURVE",
"996 861 CURVE SMOOTH",
"996 1028 OFFCURVE",
"941 1107 OFFCURVE",
"861 1107 CURVE SMOOTH"
);
},
{
closed = 1;
nodes = (
"800 240 LINE",
"771 0 LINE",
"841 0 LINE SMOOTH",
"878 0 OFFCURVE",
"895 20 OFFCURVE",
"908 119 CURVE SMOOTH",
"920 219 OFFCURVE",
"908 240 OFFCURVE",
"871 240 CURVE SMOOTH"
);
}
);
width = 1006;
},
{
layerId = "38D47A70-C265-4203-8B70-C23C50FC2DCC";
paths = (
{
closed = 1;
nodes = (
"752 1107 OFFCURVE",
"673 1040 OFFCURVE",
"611 895 CURVE",
"606 1035 OFFCURVE",
"554 1107 OFFCURVE",
"482 1107 CURVE SMOOTH",
"414 1107 OFFCURVE",
"336 1037 OFFCURVE",
"274 886 CURVE",
"288 1002 LINE SMOOTH",
"295 1060 OFFCURVE",
"283 1081 OFFCURVE",
"246 1081 CURVE SMOOTH",
"124 1081 LINE SMOOTH",
"87 1081 OFFCURVE",
"70 1060 OFFCURVE",
"62 1002 CURVE SMOOTH",
"56 943 OFFCURVE",
"67 922 OFFCURVE",
"104 922 CURVE SMOOTH",
"171 922 LINE",
"66 64 LINE SMOOTH",
"59 11 OFFCURVE",
"71 -12 OFFCURVE",
"117 -12 CURVE SMOOTH",
"119 -12 LINE SMOOTH",
"163 -12 OFFCURVE",
"181 11 OFFCURVE",
"188 64 CURVE SMOOTH",
"243 511 LINE SMOOTH",
"272 748 OFFCURVE",
"360 934 OFFCURVE",
"439 934 CURVE SMOOTH",
"482 934 OFFCURVE",
"501 899 OFFCURVE",
"501 833 CURVE SMOOTH",
"501 815 OFFCURVE",
"499 795 OFFCURVE",
"496 772 CURVE SMOOTH",
"408 64 LINE SMOOTH",
"403 11 OFFCURVE",
"414 -12 OFFCURVE",
"460 -12 CURVE SMOOTH",
"462 -12 LINE SMOOTH",
"506 -12 OFFCURVE",
"525 11 OFFCURVE",
"531 64 CURVE SMOOTH",
"586 511 LINE SMOOTH",
"616 748 OFFCURVE",
"703 934 OFFCURVE",
"782 934 CURVE SMOOTH",
"825 934 OFFCURVE",
"844 899 OFFCURVE",
"844 833 CURVE SMOOTH",
"844 816 OFFCURVE",
"843 795 OFFCURVE",
"840 772 CURVE SMOOTH",
"754 80 LINE SMOOTH",
"747 21 OFFCURVE",
"760 0 OFFCURVE",
"796 0 CURVE SMOOTH",
"816 0 LINE SMOOTH",
"852 0 OFFCURVE",
"870 21 OFFCURVE",
"877 80 CURVE SMOOTH",
"963 782 LINE SMOOTH",
"968 812 OFFCURVE",
"969 840 OFFCURVE",
"969 866 CURVE SMOOTH",
"969 1022 OFFCURVE",
"905 1107 OFFCURVE",
"824 1107 CURVE SMOOTH"
);
},
{
closed = 1;
nodes = (
"825 159 LINE",
"805 0 LINE",
"919 0 LINE SMOOTH",
"955 0 OFFCURVE",
"973 21 OFFCURVE",
"980 80 CURVE SMOOTH",
"985 138 OFFCURVE",
"974 159 OFFCURVE",
"937 159 CURVE SMOOTH"
);
}
);
width = 1006;
}
);
unicode = 006D;
},
{
glyphname = n;
lastChange = "2026-02-27 13:18:40 +0000";
layers = (
{
layerId = UUID0;
paths = (
{
closed = 1;
nodes = (
"580 1107 OFFCURVE",
"483 1028 OFFCURVE",
"387 838 CURVE",
"408 1008 LINE SMOOTH",
"414 1060 OFFCURVE",
"403 1081 OFFCURVE",
"365 1081 CURVE SMOOTH",
"165 1081 LINE SMOOTH",
"129 1081 OFFCURVE",
"111 1060 OFFCURVE",
"99 961 CURVE SMOOTH",
"87 861 OFFCURVE",
"99 841 OFFCURVE",
"136 841 CURVE SMOOTH",
"215 841 LINE",
"122 74 LINE SMOOTH",
"115 21 OFFCURVE",
"128 0 OFFCURVE",
"164 0 CURVE SMOOTH",
"266 0 LINE SMOOTH",
"302 0 OFFCURVE",
"319 21 OFFCURVE",
"327 74 CURVE SMOOTH",
"365 396 LINE SMOOTH",
"391 616 OFFCURVE",
"507 841 OFFCURVE",
"605 841 CURVE SMOOTH",
"660 841 OFFCURVE",
"682 799 OFFCURVE",
"682 727 CURVE SMOOTH",
"682 706 OFFCURVE",
"681 682 OFFCURVE",
"678 657 CURVE SMOOTH",
"606 74 LINE SMOOTH",
"599 21 OFFCURVE",
"612 0 OFFCURVE",
"648 0 CURVE SMOOTH",
"865 0 LINE SMOOTH",
"902 0 OFFCURVE",
"919 20 OFFCURVE",
"930 119 CURVE SMOOTH",
"943 219 OFFCURVE",
"932 240 OFFCURVE",
"894 240 CURVE SMOOTH",
"832 240 LINE",
"888 702 LINE SMOOTH",
"892 731 OFFCURVE",
"894 762 OFFCURVE",
"894 790 CURVE SMOOTH",
"894 977 OFFCURVE",
"813 1107 OFFCURVE",
"682 1107 CURVE SMOOTH"
);
}
);
width = 1006;
},
{
layerId = "38D47A70-C265-4203-8B70-C23C50FC2DCC";
paths = (
{
closed = 1;
nodes = (
"558 1107 OFFCURVE",
"453 1020 OFFCURVE",
"362 861 CURVE",
"378 1002 LINE SMOOTH",
"386 1060 OFFCURVE",
"373 1081 OFFCURVE",
"337 1081 CURVE SMOOTH",
"190 1081 LINE SMOOTH",
"153 1081 OFFCURVE",
"136 1060 OFFCURVE",
"129 1002 CURVE SMOOTH",
"122 943 OFFCURVE",
"133 922 OFFCURVE",
"171 922 CURVE SMOOTH",
"254 922 LINE",
"149 64 LINE SMOOTH",
"142 11 OFFCURVE",
"154 -12 OFFCURVE",
"200 -12 CURVE SMOOTH",
"201 -12 LINE SMOOTH",
"245 -12 OFFCURVE",
"264 11 OFFCURVE",
"272 64 CURVE SMOOTH",
"321 470 LINE SMOOTH",
"352 726 OFFCURVE",
"501 934 OFFCURVE",
"640 934 CURVE SMOOTH",
"715 934 OFFCURVE",
"750 871 OFFCURVE",
"750 771 CURVE SMOOTH",
"750 751 OFFCURVE",
"748 730 OFFCURVE",
"745 708 CURVE SMOOTH",
"668 80 LINE SMOOTH",
"660 21 OFFCURVE",
"673 0 OFFCURVE",
"710 0 CURVE SMOOTH",
"848 0 LINE SMOOTH",
"886 0 OFFCURVE",
"902 21 OFFCURVE",
"909 80 CURVE SMOOTH",
"916 138 OFFCURVE",
"905 159 OFFCURVE",
"867 159 CURVE SMOOTH",
"800 159 LINE",
"870 714 LINE SMOOTH",
"873 745 OFFCURVE",
"875 775 OFFCURVE",
"875 803 CURVE SMOOTH",
"875 988 OFFCURVE",
"797 1107 OFFCURVE",
"666 1107 CURVE SMOOTH"
);
}
);
width = 1006;
}
);
unicode = 006E;
},
{
glyphname = o;
lastChange = "2026-02-27 13:18:40 +0000";
layers = (
{
layerId = UUID0;
paths = (
{
closed = 1;
nodes = (
"246 1107 OFFCURVE",
"92 761 OFFCURVE",
"92 454 CURVE SMOOTH",
"92 179 OFFCURVE",
"226 -26 OFFCURVE",
"451 -26 CURVE SMOOTH",
"786 -26 OFFCURVE",
"930 334 OFFCURVE",
"930 627 CURVE SMOOTH",
"930 901 OFFCURVE",
"797 1107 OFFCURVE",
"573 1107 CURVE SMOOTH"
);
},
{
closed = 1;
nodes = (
"652 841 OFFCURVE",
"712 752 OFFCURVE",
"712 611 CURVE SMOOTH",
"712 421 OFFCURVE",
"624 240 OFFCURVE",
"475 240 CURVE SMOOTH",
"373 240 OFFCURVE",
"311 328 OFFCURVE",
"311 469 CURVE SMOOTH",
"311 659 OFFCURVE",
"399 841 OFFCURVE",
"549 841 CURVE SMOOTH"
);
}
);
width = 1006;
},
{
layerId = "38D47A70-C265-4203-8B70-C23C50FC2DCC";
paths = (
{
closed = 1;
nodes = (
"294 1107 OFFCURVE",
"114 795 OFFCURVE",
"114 452 CURVE SMOOTH",
"114 176 OFFCURVE",
"253 -26 OFFCURVE",
"459 -26 CURVE SMOOTH",
"730 -26 OFFCURVE",
"910 287 OFFCURVE",
"910 630 CURVE SMOOTH",
"910 906 OFFCURVE",
"771 1107 OFFCURVE",
"565 1107 CURVE SMOOTH"
);
},
{
closed = 1;
nodes = (
"700 934 OFFCURVE",
"783 806 OFFCURVE",
"783 620 CURVE SMOOTH",
"783 371 OFFCURVE",
"654 147 OFFCURVE",
"472 147 CURVE SMOOTH",
"324 147 OFFCURVE",
"242 275 OFFCURVE",
"242 461 CURVE SMOOTH",
"242 710 OFFCURVE",
"370 934 OFFCURVE",
"552 934 CURVE SMOOTH"
);
}
);
width = 1006;
}
);
unicode = 006F;
},
{
glyphname = p;
lastChange = "2026-02-27 13:18:40 +0000";
layers = (
{
layerId = UUID0;
paths = (
{
closed = 1;
nodes = (
"554 1107 OFFCURVE",
"466 1037 OFFCURVE",
"390 920 CURVE",
"400 1008 LINE SMOOTH",
"406 1060 OFFCURVE",
"394 1081 OFFCURVE",
"357 1081 CURVE SMOOTH",
"165 1081 LINE SMOOTH",
"129 1081 OFFCURVE",
"111 1060 OFFCURVE",
"99 961 CURVE SMOOTH",
"87 861 OFFCURVE",
"99 841 OFFCURVE",
"136 841 CURVE SMOOTH",
"207 841 LINE",
"77 -214 LINE",
"6 -214 LINE SMOOTH",
"-32 -214 OFFCURVE",
"-48 -235 OFFCURVE",
"-60 -335 CURVE SMOOTH",
"-73 -434 OFFCURVE",
"-60 -454 OFFCURVE",
"-23 -454 CURVE SMOOTH",
"390 -454 LINE SMOOTH",
"426 -454 OFFCURVE",
"444 -434 OFFCURVE",
"455 -335 CURVE SMOOTH",
"468 -235 OFFCURVE",
"455 -214 OFFCURVE",
"419 -214 CURVE SMOOTH",
"282 -214 LINE",
"323 117 LINE",
"369 29 OFFCURVE",
"442 -26 OFFCURVE",
"529 -26 CURVE SMOOTH",
"812 -26 OFFCURVE",
"948 342 OFFCURVE",
"948 637 CURVE SMOOTH",
"948 913 OFFCURVE",
"834 1107 OFFCURVE",
"652 1107 CURVE SMOOTH"
);
},
{
closed = 1;
nodes = (
"681 841 OFFCURVE",
"730 758 OFFCURVE",
"730 624 CURVE SMOOTH",
"730 473 OFFCURVE",
"671 240 OFFCURVE",
"521 240 CURVE SMOOTH",
"432 240 OFFCURVE",
"365 321 OFFCURVE",
"365 470 CURVE SMOOTH",
"365 642 OFFCURVE",
"447 841 OFFCURVE",
"595 841 CURVE SMOOTH"
);
}
);
width = 1006;
},
{
layerId = "38D47A70-C265-4203-8B70-C23C50FC2DCC";
paths = (
{
closed = 1;
nodes = (
"509 1107 OFFCURVE",
"415 1035 OFFCURVE",
"334 908 CURVE",
"345 1002 LINE SMOOTH",
"353 1060 OFFCURVE",
"341 1081 OFFCURVE",
"303 1081 CURVE SMOOTH",
"173 1081 LINE SMOOTH",
"136 1081 OFFCURVE",
"119 1060 OFFCURVE",
"112 1002 CURVE SMOOTH",
"105 943 OFFCURVE",
"117 922 OFFCURVE",
"154 922 CURVE SMOOTH",
"221 922 LINE",
"70 -295 LINE",
"-12 -295 LINE SMOOTH",
"-49 -295 OFFCURVE",
"-67 -316 OFFCURVE",
"-73 -374 CURVE SMOOTH",
"-81 -433 OFFCURVE",
"-69 -454 OFFCURVE",
"-32 -454 CURVE SMOOTH",
"316 -454 LINE SMOOTH",
"352 -454 OFFCURVE",
"370 -433 OFFCURVE",
"377 -374 CURVE SMOOTH",
"384 -316 OFFCURVE",
"372 -295 OFFCURVE",
"335 -295 CURVE SMOOTH",
"193 -295 LINE",
"250 171 LINE",
"302 54 OFFCURVE",
"385 -26 OFFCURVE",
"495 -26 CURVE SMOOTH",
"784 -26 OFFCURVE",
"916 350 OFFCURVE",
"916 653 CURVE SMOOTH",
"916 933 OFFCURVE",
"793 1107 OFFCURVE",
"618 1107 CURVE SMOOTH"
);
},
{
closed = 1;
nodes = (
"722 934 OFFCURVE",
"788 817 OFFCURVE",
"788 642 CURVE SMOOTH",
"788 401 OFFCURVE",
"685 147 OFFCURVE",
"500 147 CURVE SMOOTH",
"373 147 OFFCURVE",
"291 256 OFFCURVE",
"291 448 CURVE SMOOTH",
"291 689 OFFCURVE",
"403 934 OFFCURVE",
"597 934 CURVE SMOOTH"
);
}
);
width = 1006;
}
);
unicode = 0070;
},
{
glyphname = q;
lastChange = "2026-02-27 13:18:40 +0000";
layers = (
{
layerId = UUID0;
paths = (
{
closed = 1;
nodes = (
"240 1107 OFFCURVE",
"105 740 OFFCURVE",
"105 445 CURVE SMOOTH",
"105 169 OFFCURVE",
"219 -26 OFFCURVE",
"400 -26 CURVE SMOOTH",
"484 -26 OFFCURVE",
"558 25 OFFCURVE",
"624 106 CURVE",
"584 -214 LINE",
"447 -214 LINE SMOOTH",
"411 -214 OFFCURVE",
"393 -235 OFFCURVE",
"382 -335 CURVE SMOOTH",
"369 -434 OFFCURVE",
"382 -454 OFFCURVE",
"418 -454 CURVE SMOOTH",
"831 -454 LINE SMOOTH",
"867 -454 OFFCURVE",
"885 -434 OFFCURVE",
"898 -335 CURVE SMOOTH",
"909 -235 OFFCURVE",
"898 -214 OFFCURVE",
"860 -214 CURVE SMOOTH",
"789 -214 LINE",
"941 1019 LINE SMOOTH",
"948 1072 OFFCURVE",
"932 1093 OFFCURVE",
"870 1093 CURVE SMOOTH",
"809 1093 OFFCURVE",
"776 1072 OFFCURVE",
"769 1019 CURVE SMOOTH",
"755 903 LINE",
"714 1026 OFFCURVE",
"628 1107 OFFCURVE",
"523 1107 CURVE SMOOTH"
);
},
{
closed = 1;
nodes = (
"621 841 OFFCURVE",
"688 761 OFFCURVE",
"688 611 CURVE SMOOTH",
"688 439 OFFCURVE",
"605 240 OFFCURVE",
"458 240 CURVE SMOOTH",
"372 240 OFFCURVE",
"323 323 OFFCURVE",
"323 458 CURVE SMOOTH",
"323 609 OFFCURVE",
"383 841 OFFCURVE",
"531 841 CURVE SMOOTH"
);
}
);
width = 1006;
},
{
layerId = "38D47A70-C265-4203-8B70-C23C50FC2DCC";
paths = (
{
closed = 1;
nodes = (
"252 1107 OFFCURVE",
"119 731 OFFCURVE",
"119 428 CURVE SMOOTH",
"119 149 OFFCURVE",
"242 -26 OFFCURVE",
"418 -26 CURVE SMOOTH",
"523 -26 OFFCURVE",
"613 40 OFFCURVE",
"692 156 CURVE",
"635 -295 LINE",
"495 -295 LINE SMOOTH",
"458 -295 OFFCURVE",
"441 -316 OFFCURVE",
"433 -374 CURVE SMOOTH",
"426 -433 OFFCURVE",
"439 -454 OFFCURVE",
"475 -454 CURVE SMOOTH",
"823 -454 LINE SMOOTH",
"859 -454 OFFCURVE",
"877 -433 OFFCURVE",
"884 -374 CURVE SMOOTH",
"892 -316 OFFCURVE",
"879 -295 OFFCURVE",
"843 -295 CURVE SMOOTH",
"758 -295 LINE",
"921 1017 LINE SMOOTH",
"927 1071 OFFCURVE",
"919 1093 OFFCURVE",
"873 1093 CURVE SMOOTH",
"826 1093 OFFCURVE",
"812 1071 OFFCURVE",
"806 1017 CURVE SMOOTH",
"791 896 LINE",
"738 1022 OFFCURVE",
"653 1107 OFFCURVE",
"541 1107 CURVE SMOOTH"
);
},
{
closed = 1;
nodes = (
"662 934 OFFCURVE",
"744 825 OFFCURVE",
"744 633 CURVE SMOOTH",
"744 392 OFFCURVE",
"633 147 OFFCURVE",
"439 147 CURVE SMOOTH",
"314 147 OFFCURVE",
"248 264 OFFCURVE",
"248 439 CURVE SMOOTH",
"248 680 OFFCURVE",
"351 934 OFFCURVE",
"536 934 CURVE SMOOTH"
);
}
);
width = 1006;
}
);
unicode = 0071;
},
{
glyphname = r;
lastChange = "2026-02-27 13:18:40 +0000";
layers = (
{
layerId = UUID0;
paths = (
{
closed = 1;
nodes = (
"722 1107 OFFCURVE",
"600 990 OFFCURVE",
"493 765 CURVE",
"523 1008 LINE SMOOTH",
"529 1060 OFFCURVE",
"517 1081 OFFCURVE",
"480 1081 CURVE SMOOTH",
"255 1081 LINE SMOOTH",
"219 1081 OFFCURVE",
"201 1060 OFFCURVE",
"190 961 CURVE SMOOTH",
"177 861 OFFCURVE",
"190 841 OFFCURVE",
"226 841 CURVE SMOOTH",
"322 841 LINE",
"248 240 LINE",
"128 240 LINE SMOOTH",
"91 240 OFFCURVE",
"73 219 OFFCURVE",
"61 119 CURVE SMOOTH",
"48 20 OFFCURVE",
"62 0 OFFCURVE",
"98 0 CURVE SMOOTH",
"659 0 LINE SMOOTH",
"695 0 OFFCURVE",
"712 20 OFFCURVE",
"724 119 CURVE SMOOTH",
"736 219 OFFCURVE",
"726 240 OFFCURVE",
"688 240 CURVE SMOOTH",
"453 240 LINE",
"465 339 LINE SMOOTH",
"495 598 OFFCURVE",
"639 790 OFFCURVE",
"769 790 CURVE SMOOTH",
"799 790 OFFCURVE",
"829 779 OFFCURVE",
"857 757 CURVE SMOOTH",
"888 730 OFFCURVE",
"923 758 OFFCURVE",
"960 853 CURVE SMOOTH",
"994 940 OFFCURVE",
"990 998 OFFCURVE",
"953 1042 CURVE SMOOTH",
"915 1085 OFFCURVE",
"873 1107 OFFCURVE",
"827 1107 CURVE SMOOTH"
);
}
);
width = 1006;
},
{
layerId = "38D47A70-C265-4203-8B70-C23C50FC2DCC";
paths = (
{
closed = 1;
nodes = (
"697 1107 OFFCURVE",
"558 974 OFFCURVE",
"452 765 CURVE",
"481 1002 LINE SMOOTH",
"488 1060 OFFCURVE",
"476 1081 OFFCURVE",
"439 1081 CURVE SMOOTH",
"272 1081 LINE SMOOTH",
"235 1081 OFFCURVE",
"218 1060 OFFCURVE",
"211 1002 CURVE SMOOTH",
"204 943 OFFCURVE",
"215 922 OFFCURVE",
"253 922 CURVE SMOOTH",
"357 922 LINE",
"262 159 LINE",
"133 159 LINE SMOOTH",
"97 159 OFFCURVE",
"80 138 OFFCURVE",
"73 80 CURVE SMOOTH",
"66 21 OFFCURVE",
"78 0 OFFCURVE",
"115 0 CURVE SMOOTH",
"642 0 LINE SMOOTH",
"679 0 OFFCURVE",
"696 21 OFFCURVE",
"703 80 CURVE SMOOTH",
"710 138 OFFCURVE",
"697 159 OFFCURVE",
"661 159 CURVE SMOOTH",
"385 159 LINE",
"411 363 LINE SMOOTH",
"447 655 OFFCURVE",
"652 912 OFFCURVE",
"800 912 CURVE SMOOTH",
"829 912 OFFCURVE",
"857 902 OFFCURVE",
"879 881 CURVE SMOOTH",
"907 855 OFFCURVE",
"930 875 OFFCURVE",
"951 934 CURVE SMOOTH",
"974 992 OFFCURVE",
"958 1033 OFFCURVE",
"930 1060 CURVE SMOOTH",
"896 1092 OFFCURVE",
"859 1107 OFFCURVE",
"818 1107 CURVE SMOOTH"
);
}
);
width = 1006;
}
);
unicode = 0072;
},
{
glyphname = s;
lastChange = "2026-02-27 13:18:40 +0000";
layers = (
{
layerId = UUID0;
paths = (
{
closed = 1;
nodes = (
"751 1107 OFFCURVE",
"728 1086 OFFCURVE",
"720 1033 CURVE SMOOTH",
"717 1016 LINE",
"658 1077 OFFCURVE",
"586 1107 OFFCURVE",
"501 1107 CURVE SMOOTH",
"275 1107 OFFCURVE",
"171 927 OFFCURVE",
"171 737 CURVE SMOOTH",
"171 618 OFFCURVE",
"207 549 OFFCURVE",
"260 504 CURVE SMOOTH",
"357 422 OFFCURVE",
"502 415 OFFCURVE",
"586 387 CURVE SMOOTH",
"626 374 OFFCURVE",
"646 351 OFFCURVE",
"646 315 CURVE SMOOTH",
"646 260 OFFCURVE",
"611 208 OFFCURVE",
"502 208 CURVE SMOOTH",
"408 208 OFFCURVE",
"321 246 OFFCURVE",
"275 350 CURVE SMOOTH",
"266 371 OFFCURVE",
"247 383 OFFCURVE",
"211 383 CURVE SMOOTH",
"157 383 OFFCURVE",
"130 362 OFFCURVE",
"123 309 CURVE SMOOTH",
"91 48 LINE SMOOTH",
"84 -5 OFFCURVE",
"109 -26 OFFCURVE",
"179 -26 CURVE SMOOTH",
"248 -26 OFFCURVE",
"282 -5 OFFCURVE",
"288 48 CURVE SMOOTH",
"289 63 LINE",
"350 6 OFFCURVE",
"414 -26 OFFCURVE",
"499 -26 CURVE SMOOTH",
"769 -26 OFFCURVE",
"861 179 OFFCURVE",
"861 369 CURVE SMOOTH",
"861 486 OFFCURVE",
"824 552 OFFCURVE",
"771 596 CURVE SMOOTH",
"675 674 OFFCURVE",
"524 680 OFFCURVE",
"441 706 CURVE SMOOTH",
"405 717 OFFCURVE",
"384 735 OFFCURVE",
"384 772 CURVE SMOOTH",
"384 824 OFFCURVE",
"419 873 OFFCURVE",
"499 873 CURVE SMOOTH",
"603 873 OFFCURVE",
"682 839 OFFCURVE",
"737 737 CURVE SMOOTH",
"747 720 OFFCURVE",
"765 713 OFFCURVE",
"793 713 CURVE SMOOTH",
"847 713 OFFCURVE",
"872 734 OFFCURVE",
"878 786 CURVE SMOOTH",
"908 1033 LINE SMOOTH",
"915 1086 OFFCURVE",
"891 1107 OFFCURVE",
"820 1107 CURVE SMOOTH"
);
}
);
width = 1006;
},
{
layerId = "38D47A70-C265-4203-8B70-C23C50FC2DCC";
paths = (
{
closed = 1;
nodes = (
"793 1107 OFFCURVE",
"776 1085 OFFCURVE",
"769 1031 CURVE SMOOTH",
"763 978 LINE",
"712 1058 OFFCURVE",
"627 1107 OFFCURVE",
"520 1107 CURVE SMOOTH",
"296 1107 OFFCURVE",
"187 929 OFFCURVE",
"187 736 CURVE SMOOTH",
"187 619 OFFCURVE",
"242 558 OFFCURVE",
"316 523 CURVE SMOOTH",
"418 474 OFFCURVE",
"524 481 OFFCURVE",
"625 447 CURVE SMOOTH",
"678 429 OFFCURVE",
"714 400 OFFCURVE",
"714 343 CURVE SMOOTH",
"714 269 OFFCURVE",
"668 144 OFFCURVE",
"494 144 CURVE SMOOTH",
"343 144 OFFCURVE",
"261 208 OFFCURVE",
"239 359 CURVE SMOOTH",
"234 393 OFFCURVE",
"225 407 OFFCURVE",
"201 407 CURVE SMOOTH",
"154 407 OFFCURVE",
"136 385 OFFCURVE",
"130 331 CURVE SMOOTH",
"95 50 LINE SMOOTH",
"89 -4 OFFCURVE",
"102 -26 OFFCURVE",
"147 -26 CURVE SMOOTH",
"193 -26 OFFCURVE",
"212 -4 OFFCURVE",
"218 50 CURVE SMOOTH",
"226 116 LINE",
"281 21 OFFCURVE",
"363 -26 OFFCURVE",
"482 -26 CURVE SMOOTH",
"768 -26 OFFCURVE",
"845 219 OFFCURVE",
"845 374 CURVE SMOOTH",
"845 497 OFFCURVE",
"788 562 OFFCURVE",
"713 597 CURVE SMOOTH",
"613 642 OFFCURVE",
"508 640 OFFCURVE",
"408 671 CURVE SMOOTH",
"353 687 OFFCURVE",
"318 713 OFFCURVE",
"318 767 CURVE SMOOTH",
"318 852 OFFCURVE",
"378 937 OFFCURVE",
"507 937 CURVE SMOOTH",
"635 937 OFFCURVE",
"726 899 OFFCURVE",
"758 763 CURVE SMOOTH",
"763 743 OFFCURVE",
"775 733 OFFCURVE",
"793 733 CURVE SMOOTH",
"840 733 OFFCURVE",
"858 755 OFFCURVE",
"865 809 CURVE SMOOTH",
"892 1031 LINE SMOOTH",
"899 1085 OFFCURVE",
"886 1107 OFFCURVE",
"840 1107 CURVE SMOOTH"
);
}
);
width = 1006;
}
);
unicode = 0073;
},
